<svg xmlns="http://www.w3.org/2000/svg" xmlns:svg="http://www.w3.org/2000/svg" width="600" height="400"><g id="g3299"><rect style="fill:#ce1126" id="rect4" width="600" height="400"/><g id="g2817" transform="matrix(1.009921,0,0,1.009921,19.266464,-5.7478141)"><path style="fill:#fff;fill-opacity:1;fill-rule:nonzero" id="path3255" d="M 223.89706,191.54411 A 110.29412,112.5 0 1 1 3.3088226,191.54411 A 110.29412,112.5 0 1 1 223.89706,191.54411 z" transform="matrix(-0.851339,0,0,-0.834646,264.561,363.218)"/><path style="fill:#ce1126;fill-opacity:1;fill-rule:nonzero" id="path3281" d="M 992.64708,108.82353 A 134.55882,138.97058 0 1 1 723.52943,108.82353 A 134.55882,138.97058 0 1 1 992.64708,108.82353 z" transform="matrix(0.789983,0,0,0.712508,-445.226,126.189)"/><path style="fill:#fff;fill-opacity:1;fill-rule:nonzero" id="path3291" d="M 218.11764,179.05882 L 219.01984,215.41288 L 192.75405,190.26254 L 167.6858,216.60669 L 166.89705,180.25 L 130.54299,181.1522 L 155.69333,154.8864 L 129.34918,129.81816 L 165.70588,129.02941 L 164.80367,92.67535 L 191.06947,117.82569 L 216.13772,91.481533 L 216.92646,127.83823 L 253.28052,126.93603 L 228.13018,153.20182 L 254.47434,178.27007 L 218.11764,179.05882 z" transform="matrix(0.932281,-0.361734,0.361734,0.932281,-12.6934,128.857)"/></g><rect style="fill:#fff" width="600" height="66" y="312"/><rect style="fill:#fff" width="600" height="66" y="22"/><rect style="fill:#000" width="600" height="22" y="334"/><rect style="fill:#000" width="600" height="22" y="44"/></g></svg>