<svg xmlns="http://www.w3.org/2000/svg" xmlns:svg="http://www.w3.org/2000/svg" id="svg47" width="630" height="420" version="1.1"><metadata id="metadata4"/><defs id="defs6"><path id="star" fill="#f6e204" d="M0-22 4.715-6.489 19.972-6.489 7.629 2.479 12.343 16.989 0 8.021-12.343 16.989-7.629 2.479-19.972-6.489-4.715-6.489z"/></defs><g id="layer3"><rect style="fill:#e20212;fill-opacity:1;stroke:#0ff" id="rect315" width="633.663" height="423.663" x="0" y="-1.221"/></g><g id="layer4"><rect style="fill:#0ff;fill-opacity:1;stroke:#0ff;stroke-width:.94842499" id="rect40" width="439.586" height="28.133" x="72.206" y="202.649"/><path style="fill:#0ff;fill-opacity:1;stroke:#0ff" id="path52" d="m 490.81394,260.05814 74.69275,44.7831 -76.12968,42.29426 1.43693,-87.07736 z" transform="translate(19.732124,-87.127907)"/><rect style="fill:#0ff;fill-opacity:1;stroke:#0ff" id="rect56" width="23.198" height="23.198" x="195.546" y="179.477"/><rect style="fill:#0ff;fill-opacity:1;stroke:#0ff" id="rect56-8" width="23.198" height="23.198" x="194.936" y="230.145"/><rect style="fill:#0ff;fill-opacity:1;stroke:#0ff" id="rect56-9" width="23.198" height="23.198" x="170.517" y="254.564"/><rect style="fill:#0ff;fill-opacity:1;stroke:#0ff" id="rect56-88" width="23.198" height="23.198" x="170.517" y="155.669"/><rect style="fill:#0ff;fill-opacity:1;stroke:#0ff" id="rect56-83" width="23.198" height="23.198" x="146.098" y="278.983"/><rect style="fill:#0ff;fill-opacity:1;stroke:#0ff" id="rect56-3" width="23.198" height="23.198" x="146.098" y="131.25"/><rect style="fill:#0ff;fill-opacity:1;stroke:#0ff" id="rect56-80" width="23.198" height="23.198" x="146.098" y="228.924"/><rect style="fill:#0ff;fill-opacity:1;stroke:#0ff" id="rect56-7" width="23.198" height="23.198" x="121.68" y="253.343"/><rect style="fill:#0ff;fill-opacity:1;stroke:#0ff" id="rect56-89" width="23.198" height="23.198" x="98.482" y="277.762"/><rect style="fill:#0ff;fill-opacity:1;stroke:#0ff" id="rect56-6" width="23.198" height="23.198" x="146.098" y="178.866"/><rect style="fill:#0ff;fill-opacity:1;stroke:#0ff" id="rect56-90" width="23.198" height="23.198" x="121.68" y="154.448"/><rect style="fill:#0ff;fill-opacity:1;stroke:#0ff" id="rect56-37" width="23.198" height="23.198" x="97.261" y="131.25"/><rect style="fill:#0ff;fill-opacity:1;stroke:#0ff" id="rect56-65" width="23.198" height="23.198" x="97.261" y="230.145"/><rect style="fill:#0ff;fill-opacity:1;stroke:#0ff" id="rect56-5" width="23.198" height="23.198" x="72.843" y="253.343"/><rect style="fill:#0ff;fill-opacity:1;stroke:#0ff" id="rect56-60" width="23.198" height="23.198" x="50.866" y="275.32"/><rect style="fill:#0ff;fill-opacity:1;stroke:#0ff" id="rect56-0" width="23.198" height="23.198" x="96.04" y="178.866"/><rect style="fill:#0ff;fill-opacity:1;stroke:#0ff" id="rect56-70" width="23.198" height="23.198" x="71.622" y="155.669"/><rect style="fill:#0ff;fill-opacity:1;stroke:#0ff" id="rect56-4" width="23.198" height="23.198" x="47.203" y="130.029"/></g></svg>