<svg xmlns="http://www.w3.org/2000/svg" xmlns:svg="http://www.w3.org/2000/svg" id="svg2915" width="300" height="200" version="1.1"><metadata id="metadata2921"/><rect style="fill:#d40000;fill-opacity:1;stroke:none" id="rect2929" width="300" height="200" x="0" y="0"/><path style="fill:#fff;stroke:none" id="path2927-6" d="m 233.52854,33.691723 c 0,0 7.42088,18.269847 -31.21177,50.663354 -23.7088,25.400343 -73.30954,28.371473 -81.07037,65.772603 l -6.54559,-9.03254 c -2.99187,0.54398 -11.12254,5.35929 -11.66651,9.43909 4.0798,7.34367 -5.44569,22.16617 -16.488667,12.72281 C 75.743167,148.17059 97.49549,138.4317 109.81471,132.95016 l -6.16212,-9.65072 7.85413,3.87983 C 129.75983,75.208551 233.52854,33.691723 233.52854,33.691723 z"/><path style="fill:#fff;stroke:none" id="path2927-6-0" d="m 66.47146,33.691723 c 0,0 -7.42088,18.269847 31.21177,50.663354 23.7088,25.400343 73.30954,28.371473 81.07037,65.772603 l 6.54559,-9.03254 c 2.99187,0.54398 11.12254,5.35929 11.66651,9.43909 -4.0798,7.34367 5.44569,22.16617 16.48867,12.72281 10.80247,-15.08645 -10.94986,-24.82534 -23.26908,-30.30688 l 6.16212,-9.65072 -7.85413,3.87983 C 170.24017,75.208551 66.47146,33.691723 66.47146,33.691723 z"/></svg>