<svg xmlns="http://www.w3.org/2000/svg" xmlns:svg="http://www.w3.org/2000/svg" id="svg2" width="1125" height="750" version="1.1"><metadata id="metadata7"/><g id="layer1"><rect style="fill:#125dd3;fill-opacity:1;stroke:none;stroke-width:2.1;stroke-miterlimit:4;stroke-dasharray:none;stroke-opacity:1" id="rect3116" width="1125" height="750" x="0" y="0"/><path style="fill:#eea831;fill-opacity:1;fill-rule:evenodd;stroke:#000;stroke-width:3.36746;stroke-linecap:butt;stroke-linejoin:miter;stroke-miterlimit:4;stroke-dasharray:none;stroke-opacity:1" id="path1349" d="m 629.14209,233.82713 c 82.70345,-0.96685 217.10106,18.85064 217.10106,18.85064 106.84169,-0.26305 216.38465,-103.09842 191.46085,-172.640236 -12.1076,-10.190754 -22.8259,5.428248 -41.72541,21.047236 -7.9786,3.22688 -24.16164,-0.35368 -29.4235,-9.352449 -1.02192,-12.900392 14.9868,-44.716193 32.26823,-49.630127 C 1050.167,27.502644 1072.907,81.508387 1072.907,81.508387 1093.3973,214.28287 924.48702,295.48582 859.30499,303.21742 l 39.3903,172.45668 c 20.08858,27.16277 49.686,46.17509 72.49143,52.96174 l 26.48085,127.99087 -11.0337,15.44719 -83.85612,-2.20674 c 10.74912,-25.57885 28.2903,-38.93205 48.54827,-44.13478 L 896.15754,559.53019 792.44079,493.32801 c -26.99633,41.76161 -30.89972,63.1471 -19.86065,92.68305 -26.93188,44.14017 -68.80623,63.829 -97.09653,79.44261 h -81.64935 c 4.97723,-19.40964 18.10493,-32.02725 35.30783,-41.92803 l 59.58195,-6.62022 c 4.30074,-11.87665 26.26076,-52.27985 8.82696,-92.68305 l 6.62022,-79.44262 c -51.4369,15.05522 -78.42246,13.6305 -125.78414,6.95123 -28.85403,7.64278 -79.4426,7.13512 -119.16391,10.70267 33.84205,66.20218 58.17524,141.91321 48.54826,198.60654 l -86.06283,2.20674 c 5.20274,-21.61637 19.91433,-32.36552 44.13478,-48.54826 -2.42147,-38.41658 -60.53766,-101.28449 -121.37066,-147.85152 0,0 -129.19105,155.61306 -136.75077,166.3753 -6.90744,9.83366 -4.98523,30.53456 -4.98523,30.53456 L 99.524656,663.24693 c -0.90739,-14.48609 7.694064,-26.25535 17.653924,-35.30781 l 58.36825,-6.62022 71.82936,-174.33241 -19.86065,-129.30328 c 0,0 -59.92422,11.30242 -71.60869,3.75146 -11.49161,-7.42633 -14.45413,-19.19862 -14.45413,-19.19862 0,0 58.15505,-21.15318 44.13478,-50.755 -13.7814,-29.0975 -57.37523,-13.24044 -57.37523,-13.24044 l -19.86065,6.62022 c 0,0 -31.910214,-24.75894 -28.687604,-37.51458 2.849,-11.27693 66.202184,-41.92804 66.202184,-41.92804 l 44.13478,-28.6876 c 0,0 2.61742,-23.1098 50.75499,-39.72132 49.34959,-17.02977 211.84697,134.6111 211.84697,134.6111 65.63843,11.60284 93.8357,3.17359 176.53915,2.20674 z"/><path style="fill:none;fill-opacity:.75;fill-rule:evenodd;stroke:#000;stroke-width:2.66464;stroke-linecap:butt;stroke-linejoin:miter;stroke-miterlimit:4;stroke-dasharray:none;stroke-opacity:1" id="path1351" d="m 866.35353,367.67221 c -3.39602,69.95798 -52.29869,98.48452 -67.92037,122.25665"/><path style="fill:none;fill-opacity:.75;fill-rule:evenodd;stroke:#000;stroke-width:2.66464;stroke-linecap:butt;stroke-linejoin:miter;stroke-miterlimit:4;stroke-dasharray:none;stroke-opacity:1" id="path1353" d="m 1021.1966,48.438794 c -23.09304,-0.679203 -38.03548,16.980085 -43.4691,29.88495"/><path style="fill:none;fill-opacity:.75;fill-rule:evenodd;stroke:#000;stroke-width:2.66464;stroke-linecap:butt;stroke-linejoin:miter;stroke-miterlimit:4;stroke-dasharray:none;stroke-opacity:1" id="path1355" d="m 1028.0117,56.427401 c -23.0929,-0.679203 -38.0354,16.980085 -43.46903,29.88495"/><path style="fill:none;fill-opacity:.75;fill-rule:evenodd;stroke:#000;stroke-width:2.66464;stroke-linecap:butt;stroke-linejoin:miter;stroke-miterlimit:4;stroke-dasharray:none;stroke-opacity:1" id="path1357" d="m 1031.3624,62.860749 c -24.4513,6.11283 -35.3186,18.338492 -43.46904,29.88495"/><path style="fill:none;fill-opacity:.75;fill-rule:evenodd;stroke:#000;stroke-width:2.66464;stroke-linecap:butt;stroke-linejoin:miter;stroke-miterlimit:4;stroke-dasharray:none;stroke-opacity:1" id="path1359" d="M 680.25173,364.9554 C 657.61161,427.44214 620.029,435.59258 600.1057,446.45983"/><path style="fill:none;fill-opacity:.75;fill-rule:evenodd;stroke:#000;stroke-width:2.66464;stroke-linecap:butt;stroke-linejoin:miter;stroke-miterlimit:4;stroke-dasharray:none;stroke-opacity:1" id="path1361" d="m 665.30925,364.9554 c -20.37611,46.18584 -61.12833,71.99558 -76.0708,81.50443"/><path style="fill:none;fill-opacity:.75;fill-rule:evenodd;stroke:#000;stroke-width:2.66464;stroke-linecap:butt;stroke-linejoin:miter;stroke-miterlimit:4;stroke-dasharray:none;stroke-opacity:1" id="path1363" d="m 647.64995,366.3138 c -29.20576,44.14824 -65.85962,71.28554 -101.85741,84.1904"/><path style="fill:none;fill-opacity:.75;fill-rule:evenodd;stroke:#000;stroke-width:2.66464;stroke-linecap:butt;stroke-linejoin:miter;stroke-miterlimit:4;stroke-dasharray:none;stroke-opacity:1" id="path1365" d="m 615.04817,374.46425 c -26.48894,48.90265 -82.18363,76.0708 -122.25665,81.50443"/><path style="fill:none;fill-opacity:.75;fill-rule:evenodd;stroke:#000;stroke-width:2.66464;stroke-linecap:butt;stroke-linejoin:miter;stroke-miterlimit:4;stroke-dasharray:none;stroke-opacity:1" id="path1367" d="m 596.03048,381.25628 c -30.22456,39.73341 -87.95687,67.58076 -120.89825,71.99559"/><path style="fill:none;fill-opacity:.75;fill-rule:evenodd;stroke:#000;stroke-width:2.66464;stroke-linecap:butt;stroke-linejoin:miter;stroke-miterlimit:4;stroke-dasharray:none;stroke-opacity:1" id="path1369" d="m 577.01277,382.61469 c -44.14823,45.50664 -106.63496,63.16594 -133.12391,73.35399"/><path style="fill:none;fill-opacity:.75;fill-rule:evenodd;stroke:#000;stroke-width:2.66464;stroke-linecap:butt;stroke-linejoin:miter;stroke-miterlimit:4;stroke-dasharray:none;stroke-opacity:1" id="path1371" d="m 548.48623,379.89787 c -45.50664,57.39272 -133.80312,64.86395 -187.46021,71.99559"/><path style="fill:none;fill-opacity:.75;fill-rule:evenodd;stroke:#000;stroke-width:2.66464;stroke-linecap:butt;stroke-linejoin:miter;stroke-miterlimit:4;stroke-dasharray:none;stroke-opacity:1" id="path1373" d="m 524.03489,381.25628 c -29.54536,41.09182 -117.16262,47.20466 -161.65046,55.6947"/><path style="fill:none;fill-opacity:.75;fill-rule:evenodd;stroke:#000;stroke-width:2.66464;stroke-linecap:butt;stroke-linejoin:miter;stroke-miterlimit:4;stroke-dasharray:none;stroke-opacity:1" id="path1375" d="M 505.01718,379.89787 C 472.07581,409.78284 400.75944,417.93328 362.38443,423.3669"/><path style="fill:none;fill-opacity:.75;fill-rule:evenodd;stroke:#000;stroke-width:2.66464;stroke-linecap:butt;stroke-linejoin:miter;stroke-miterlimit:4;stroke-dasharray:none;stroke-opacity:1" id="path1377" d="m 481.92427,374.46425 c -27.84735,18.6781 -83.54205,30.22456 -116.82303,31.24336"/><path style="fill:none;fill-opacity:.75;fill-rule:evenodd;stroke:#000;stroke-width:2.66464;stroke-linecap:butt;stroke-linejoin:miter;stroke-miterlimit:4;stroke-dasharray:none;stroke-opacity:1" id="path1379" d="m 466.98178,363.59699 c -23.43252,20.03651 -77.0896,26.14934 -104.59735,25.80974"/><path style="fill:none;fill-opacity:.75;fill-rule:evenodd;stroke:#000;stroke-width:2.66464;stroke-linecap:butt;stroke-linejoin:miter;stroke-miterlimit:4;stroke-dasharray:none;stroke-opacity:1" id="path1381" d="m 278.08795,436.23417 c -13.58407,4.07522 -23.09293,-12.22567 -32.60178,-27.16815"/><path style="fill:none;fill-opacity:.75;fill-rule:evenodd;stroke:#000;stroke-width:2.66464;stroke-linecap:butt;stroke-linejoin:miter;stroke-miterlimit:4;stroke-dasharray:none;stroke-opacity:1" id="path1383" d="m 242.05255,375.10584 c 8.49004,23.09293 29.54536,48.90267 44.82743,54.3363"/><path style="fill:none;fill-opacity:.75;fill-rule:evenodd;stroke:#000;stroke-width:2.66464;stroke-linecap:butt;stroke-linejoin:miter;stroke-miterlimit:4;stroke-dasharray:none;stroke-opacity:1" id="path1385" d="m 239.33573,349.2961 c 13.24447,26.48894 37.0166,59.09072 52.97789,67.92036"/><path style="fill:none;fill-opacity:.75;fill-rule:evenodd;stroke:#000;stroke-width:2.66464;stroke-linecap:butt;stroke-linejoin:miter;stroke-miterlimit:4;stroke-dasharray:none;stroke-opacity:1" id="path1387" d="m 248.84458,338.42884 c 10.86725,23.09293 33.96018,57.05311 48.90267,65.20355"/><path style="fill:none;fill-opacity:.75;fill-rule:evenodd;stroke:#000;stroke-width:2.66464;stroke-linecap:butt;stroke-linejoin:miter;stroke-miterlimit:4;stroke-dasharray:none;stroke-opacity:1" id="path1389" d="m 255.63663,326.20318 c 14.26327,23.77212 37.3562,56.3739 51.61947,62.48673"/><path style="fill:none;fill-opacity:.75;fill-rule:evenodd;stroke:#000;stroke-width:2.66464;stroke-linecap:butt;stroke-linejoin:miter;stroke-miterlimit:4;stroke-dasharray:none;stroke-opacity:1" id="path1391" d="m 265.14547,311.26069 c 12.22567,24.45134 35.31859,59.76993 54.33629,65.20356"/><path style="fill:none;fill-opacity:.75;fill-rule:evenodd;stroke:#000;stroke-width:2.66464;stroke-linecap:butt;stroke-linejoin:miter;stroke-miterlimit:4;stroke-dasharray:none;stroke-opacity:1" id="path1393" d="m 274.08795,303.82707 c 28.52655,71.65598 119.53984,79.12722 179.30976,47.54425"/><path style="fill:none;fill-opacity:.75;fill-rule:evenodd;stroke:#000;stroke-width:2.66464;stroke-linecap:butt;stroke-linejoin:miter;stroke-miterlimit:4;stroke-dasharray:none;stroke-opacity:1" id="path1395" d="m 276.80476,292.95981 c 52.29869,66.56196 132.44472,58.41152 165.7257,43.46903"/><path style="fill:none;fill-opacity:.75;fill-rule:evenodd;stroke:#000;stroke-width:2.66464;stroke-linecap:butt;stroke-linejoin:miter;stroke-miterlimit:4;stroke-dasharray:none;stroke-opacity:1" id="path1397" d="m 279.52158,278.01734 c 68.25996,58.0719 125.99228,57.3927 158.93366,47.54425"/><path style="fill:none;fill-opacity:.75;fill-rule:evenodd;stroke:#000;stroke-width:2.66464;stroke-linecap:butt;stroke-linejoin:miter;stroke-miterlimit:4;stroke-dasharray:none;stroke-opacity:1" id="path1399" d="m 278.16317,256.28281 c 50.94028,41.77103 120.21905,60.10953 154.85844,58.41152"/><path style="fill:none;fill-opacity:.75;fill-rule:evenodd;stroke:#000;stroke-width:2.66464;stroke-linecap:butt;stroke-linejoin:miter;stroke-miterlimit:4;stroke-dasharray:none;stroke-opacity:1" id="path2130" d="m 257.78707,226.39785 c 63.84514,40.41262 154.85843,81.84404 173.87612,69.27877"/><path style="fill:none;fill-opacity:.75;fill-rule:evenodd;stroke:#000;stroke-width:2.66464;stroke-linecap:butt;stroke-linejoin:miter;stroke-miterlimit:4;stroke-dasharray:none;stroke-opacity:1" id="path2132" d="m 255.07025,207.38016 c 69.61838,40.75221 149.08519,71.9956 175.23453,70.63718"/><path style="fill:none;fill-opacity:.75;fill-rule:evenodd;stroke:#000;stroke-width:2.66464;stroke-linecap:butt;stroke-linejoin:miter;stroke-miterlimit:4;stroke-dasharray:none;stroke-opacity:1" id="path2134" d="m 196.64331,169.30619 c 67.58078,3.73562 206.83294,107.69234 237.73671,95.12706"/><path style="fill:none;fill-opacity:.75;fill-rule:evenodd;stroke:#000;stroke-width:2.66464;stroke-linecap:butt;stroke-linejoin:miter;stroke-miterlimit:4;stroke-dasharray:none;stroke-opacity:1" id="path2136" d="m 197.95545,154.356 c 44.14823,-6.79205 193.63473,96.49319 218.76527,88.34275"/><path style="fill:none;fill-opacity:.75;fill-rule:evenodd;stroke:#000;stroke-width:2.66464;stroke-linecap:butt;stroke-linejoin:miter;stroke-miterlimit:4;stroke-dasharray:none;stroke-opacity:1" id="path2138" d="m 208.80728,142.13804 c 45.84624,0 149.92637,65.35008 202.57237,86.99978"/><path style="fill:none;fill-opacity:.75;fill-rule:evenodd;stroke:#000;stroke-width:2.66464;stroke-linecap:butt;stroke-linejoin:miter;stroke-miterlimit:4;stroke-dasharray:none;stroke-opacity:1" id="path2140" d="m 206.24282,182.02175 c 13.58406,46.18584 12.22566,103.18496 5.43362,126.27788"/><path style="fill:none;fill-opacity:.75;fill-rule:evenodd;stroke:#000;stroke-width:2.66464;stroke-linecap:butt;stroke-linejoin:miter;stroke-miterlimit:4;stroke-dasharray:none;stroke-opacity:1" id="path2142" d="m 222.46848,189.30494 c 13.92367,44.48783 9.15382,91.26032 4.05979,118.08887"/><path style="fill:none;fill-opacity:.75;fill-rule:evenodd;stroke:#000;stroke-width:2.66464;stroke-linecap:butt;stroke-linejoin:miter;stroke-miterlimit:4;stroke-dasharray:none;stroke-opacity:1" id="path2144" d="m 236.69414,197.30494 c 12.56527,41.09181 7.78771,70.25129 8.12731,107.26789"/><path style="fill:none;fill-opacity:.75;fill-rule:evenodd;stroke:#000;stroke-width:2.66464;stroke-linecap:butt;stroke-linejoin:miter;stroke-miterlimit:4;stroke-dasharray:none;stroke-opacity:1" id="path2146" d="m 255.07025,238.62353 c 4.07522,27.50775 5.43363,39.0542 5.43363,61.12831"/><path style="fill:none;fill-opacity:.75;fill-rule:evenodd;stroke:#000;stroke-width:2.66464;stroke-linecap:butt;stroke-linejoin:miter;stroke-miterlimit:4;stroke-dasharray:none;stroke-opacity:1" id="path2148" d="m 267.29591,249.49078 4.07523,35.31859"/><path style="fill:none;fill-opacity:.75;fill-rule:evenodd;stroke:#000;stroke-width:2.66464;stroke-linecap:butt;stroke-linejoin:miter;stroke-miterlimit:4;stroke-dasharray:none;stroke-opacity:1" id="path2150" d="m 223.7112,123.08949 c 19.01769,2.37721 152.70465,74.00981 167.66255,79.08841"/><path style="fill:none;fill-opacity:.75;fill-rule:evenodd;stroke:#000;stroke-width:2.66464;stroke-linecap:butt;stroke-linejoin:miter;stroke-miterlimit:4;stroke-dasharray:none;stroke-opacity:1" id="path2164" d="m 86.627744,204.54829 21.734526,12.22568 -14.942492,9.50884"/><path style="fill:none;fill-opacity:.75;fill-rule:evenodd;stroke:#000;stroke-width:2.66464;stroke-linecap:butt;stroke-linejoin:miter;stroke-miterlimit:4;stroke-dasharray:none;stroke-opacity:1" id="path2166" d="m 102.92864,196.39785 35.31859,10.86726"/><path style="fill:none;fill-opacity:.75;fill-rule:evenodd;stroke:#000;stroke-width:2.66464;stroke-linecap:butt;stroke-linejoin:miter;stroke-miterlimit:4;stroke-dasharray:none;stroke-opacity:1" id="path2168" d="m 105.64545,207.26511 28.52656,9.50886"/><path style="fill:none;fill-opacity:.75;fill-rule:evenodd;stroke:#000;stroke-width:2.66464;stroke-linecap:butt;stroke-linejoin:miter;stroke-miterlimit:4;stroke-dasharray:none;stroke-opacity:1" id="path2170" d="m 104.28705,235.79166 13.58406,-17.65929"/><path style="fill:none;fill-opacity:.75;fill-rule:evenodd;stroke:#000;stroke-width:2.66464;stroke-linecap:butt;stroke-linejoin:miter;stroke-miterlimit:4;stroke-dasharray:none;stroke-opacity:1" id="path2172" d="M 115.1543,234.43325 126.02155,223.566"/><path style="fill:none;fill-opacity:.75;fill-rule:evenodd;stroke:#000;stroke-width:2.66464;stroke-linecap:butt;stroke-linejoin:miter;stroke-miterlimit:4;stroke-dasharray:none;stroke-opacity:1" id="path2174" d="m 111.07908,188.24741 21.73452,5.43363"/><path style="fill:none;fill-opacity:.75;fill-rule:evenodd;stroke:#000;stroke-width:2.66464;stroke-linecap:butt;stroke-linejoin:miter;stroke-miterlimit:4;stroke-dasharray:none;stroke-opacity:1" id="path2176" d="m 123.30474,182.81378 9.50886,4.07522"/><path style="fill:none;fill-opacity:.75;fill-rule:evenodd;stroke:#000;stroke-width:2.66464;stroke-linecap:butt;stroke-linejoin:miter;stroke-miterlimit:4;stroke-dasharray:none;stroke-opacity:1" id="path2178" d="m 139.60564,200.47307 c 10.52765,13.58407 27.50773,10.86726 36.67699,0"/><path style="fill:none;fill-opacity:.75;fill-rule:evenodd;stroke:#000;stroke-width:2.66464;stroke-linecap:butt;stroke-linejoin:miter;stroke-miterlimit:4;stroke-dasharray:none;stroke-opacity:1" id="path2180" d="m 139.60564,208.62353 c 13.24446,26.48894 35.65819,10.18805 36.67699,2.71681"/><path style="fill:none;fill-opacity:.75;fill-rule:evenodd;stroke:#000;stroke-width:2.66464;stroke-linecap:butt;stroke-linejoin:miter;stroke-miterlimit:4;stroke-dasharray:none;stroke-opacity:1" id="path2183" d="m 351.51716,457.32709 99.16374,4.07522"/><ellipse style="fill:#d1ab00;fill-opacity:1;stroke:#000;stroke-width:2.40425;stroke-miterlimit:4;stroke-dasharray:none;stroke-opacity:1" id="path1401" cx="59.951" cy="397.179" rx="19.27" ry="9.635" transform="matrix(0.968047,0,0,1.268875,99.90827,-315.7234)"/><path style="fill:#d1ab00;fill-opacity:1;fill-rule:evenodd;stroke:#000;stroke-width:2.66464;stroke-linecap:butt;stroke-linejoin:miter;stroke-miterlimit:4;stroke-dasharray:none;stroke-opacity:1" id="path2152" d="m 124.66318,239.6879 10.86726,23.09294 4.07523,-27.16816 z"/><path style="fill:#d1ab00;fill-opacity:1;fill-rule:evenodd;stroke:#000;stroke-width:2.66464;stroke-linecap:butt;stroke-linejoin:miter;stroke-miterlimit:4;stroke-dasharray:none;stroke-opacity:1" id="path2154" d="m 143.44913,234.80889 8.3822,15.20853 5.66538,-15.58408 z"/><path style="fill:#d1ab00;fill-opacity:1;fill-rule:evenodd;stroke:#000;stroke-width:2.66464;stroke-linecap:butt;stroke-linejoin:miter;stroke-miterlimit:4;stroke-dasharray:none;stroke-opacity:1" id="path2156" d="m 164.05699,236.43334 4.07522,12.22567 8.15045,-8.15045 z"/><path style="fill:#d1ab00;fill-opacity:1;fill-rule:evenodd;stroke:#000;stroke-width:2.66464;stroke-linecap:butt;stroke-linejoin:miter;stroke-miterlimit:4;stroke-dasharray:none;stroke-opacity:1" id="path2158" d="m 156.47858,295.32992 -11.61835,-10.6355 -1.50221,16.53264 z"/><path style="fill:#d1ab00;fill-opacity:1;fill-rule:evenodd;stroke:#000;stroke-width:2.66464;stroke-linecap:butt;stroke-linejoin:miter;stroke-miterlimit:4;stroke-dasharray:none;stroke-opacity:1" id="path2160" d="m 170.32869,286.16233 -15.31803,-11.61837 2.71682,19.01772 z"/><path style="fill:#d1ab00;fill-opacity:1;fill-rule:evenodd;stroke:#000;stroke-width:2.66464;stroke-linecap:butt;stroke-linejoin:miter;stroke-miterlimit:4;stroke-dasharray:none;stroke-opacity:1" id="path2162" d="m 182.89564,248.65901 c -17.2065,-0.45281 -23.54573,19.4705 -19.01772,27.16814 11.32007,-5.88643 9.14401,-22.81918 23.18089,-15.12154 z"/><path style="fill:none;fill-opacity:.75;fill-rule:evenodd;stroke:#000;stroke-width:2.66;stroke-linecap:butt;stroke-linejoin:miter;stroke-miterlimit:4;stroke-dasharray:none;stroke-opacity:1" id="path1405" d="m 244.53552,109.28962 c 31.42077,8.19672 81.96722,46.44809 103.82514,54.64481"/></g></svg>