<svg xmlns="http://www.w3.org/2000/svg" xmlns:svg="http://www.w3.org/2000/svg" xmlns:xlink="http://www.w3.org/1999/xlink" id="svg2" width="900" height="600" version="1.1"><defs id="defs4"><linearGradient id="linearGradient9581" x1="447.265" x2="447.265" y1="189.587" y2="378.373" gradientTransform="matrix(0.89820264,0,0,0.89820264,45.204849,484.18387)" gradientUnits="userSpaceOnUse" xlink:href="#linearGradient6283"/><linearGradient id="linearGradient6283"><stop style="stop-color:#7eceef;stop-opacity:1" id="stop6285" offset="0"/><stop style="stop-color:#206939;stop-opacity:1" id="stop6287" offset="1"/></linearGradient></defs><metadata id="metadata7"/><g id="layer1" transform="translate(0,-452.36218)"><rect style="fill:indigo;fill-opacity:1;fill-rule:evenodd;stroke:none;overflow:visible" id="rect6259" width="900" height="600" x="0" y="452.362"/><path style="fill:#fcd81b;fill-opacity:1;overflow:visible" id="path9573" d="m 451.93815,307.71945 a 63.08091,63.08091 0 1 1 -126.16182,0 63.08091,63.08091 0 1 1 126.16182,0 z" transform="matrix(3.4843387,0,0,3.4843387,-904.91033,-319.83662)"/><path style="fill:indigo;fill-opacity:1;overflow:visible" id="path9575" d="m 423.03315,311.80014 a 34.175911,34.175911 0 1 1 -68.35182,0 34.175911,34.175911 0 1 1 68.35182,0 z" transform="matrix(5.300859,0,0,5.300859,-1611.2774,-900.4464)"/><path style="fill:url(#linearGradient9581);fill-opacity:1;overflow:visible" id="path4627" d="m 597.12774,752.37084 c 0,81.24276 -65.8626,147.12124 -147.12559,147.12124 -81.24996,0 -147.12989,-65.87848 -147.12989,-147.12124 0,-81.26009 65.87993,-147.13856 147.12989,-147.13856 81.26299,0 147.12559,65.87847 147.12559,147.13856"/></g></svg>