<svg xmlns="http://www.w3.org/2000/svg" xmlns:svg="http://www.w3.org/2000/svg" xmlns:xlink="http://www.w3.org/1999/xlink" id="svg1330" width="737" height="492" version="1.0"><metadata id="metadata18"/><path d="M 0,0 H 737 V 492 H 0 Z" style="fill:#074899" id="path2241"/><g transform="translate(-760,-11.362183)" style="fill:#fff;fill-opacity:1" id="g2251"><path d="m 760,347.36218 222,156 h 200 l -422,-295 z" style="fill:#fff;fill-opacity:1;fill-rule:evenodd;stroke:none;stroke-width:1px;stroke-linecap:butt;stroke-linejoin:miter;stroke-opacity:1" id="path2243"/><path d="m 760,68.362183 621,434.999997 h 116 v -59 L 880,11.362183 H 760 Z" style="fill:#fff;fill-opacity:1;fill-rule:evenodd;stroke:none;stroke-width:1px;stroke-linecap:butt;stroke-linejoin:miter;stroke-opacity:1" id="path2247"/><path d="m 1079,11.362183 418,292.999997 v -139 L 1278,11.362183 Z" style="fill:#fff;fill-opacity:1;fill-rule:evenodd;stroke:none;stroke-width:1px;stroke-linecap:butt;stroke-linejoin:miter;stroke-opacity:1" id="path2249"/></g><path d="m 74.474759,372.84615 c -11.93024,-4.25487 -18.00953,-9.71092 -25.98633,-23.3223 -5.30628,-9.05449 -6.11133,-13.02005 -5.20026,-25.61552 2.48116,-34.30172 36.51435,-58.74381 53.80518,-38.64203 5.237121,6.08852 5.967751,8.87257 4.719151,17.98211 -1.58691,11.57773 -0.27529,12.85279 7.31545,7.11143 7.67216,-5.80293 20.40072,-4.73387 27.43915,2.30458 9.37598,9.37597 8.46547,24.18529 -2.48687,40.44858 -14.0442,20.85446 -36.041761,28.13701 -59.605471,19.73315 z" style="fill:#ea2117" id="path1343"/><use id="use1352" width="744.094" height="1052.362" x="0" y="0" transform="translate(464.0344,45)" xlink:href="#path1343"/><use id="use1356" width="744.094" height="1052.362" x="0" y="0" transform="translate(556,-172)" xlink:href="#path1343"/><use id="use1358" width="744.094" height="1052.362" x="0" y="0" transform="translate(124.0344,86.73535)" xlink:href="#path1343"/><use id="use1360" width="744.094" height="1052.362" x="0" y="0" transform="translate(94.53191,-212)" xlink:href="#path1343"/><use id="use1362" width="744.094" height="1052.362" x="0" y="0" transform="translate(280,-85)" xlink:href="#path1343"/><use id="use1366" width="744.094" height="1052.362" x="0" y="0" transform="translate(439,-254)" xlink:href="#path1343"/></svg>