<svg xmlns="http://www.w3.org/2000/svg" xmlns:svg="http://www.w3.org/2000/svg" xmlns:xlink="http://www.w3.org/1999/xlink" id="svg2263" width="900" height="600" version="1.0"><metadata id="metadata2268"/><g id="layer1"><rect style="fill:#0038a8;fill-opacity:1;stroke:none" id="rect2319" width="900" height="200" x="0" y="400"/><rect id="rect2321" width="900" height="200" x="0" y="200" style="fill:#fff;fill-opacity:1;stroke:none"/><rect id="rect2325" width="900" height="200" x="0" y="0" style="fill:#ce1126;fill-opacity:1;stroke:none"/><path style="fill:none;fill-opacity:1;stroke:#000;stroke-width:16;stroke-miterlimit:4;stroke-dasharray:none;stroke-opacity:1" id="path2327" d="M 670.89339 338.90491 A 197.98271 197.98271 0 1 1 274.92796,338.90491 A 197.98271 197.98271 0 1 1 670.89339 338.90491 z" transform="translate(-22.910675,-38.904907)"/><path style="fill:none;fill-opacity:1;stroke:#000;stroke-width:16;stroke-miterlimit:4;stroke-dasharray:none;stroke-opacity:1" id="path3298" d="M 575.79251 349.27954 A 62.247837 62.247837 0 1 1 451.29684,349.27954 A 62.247837 62.247837 0 1 1 575.79251 349.27954 z" transform="translate(-63.544678,-49.279541)"/><path style="fill:#000;fill-opacity:1;stroke:#000;stroke-width:10;stroke-miterlimit:4;stroke-dasharray:none;stroke-opacity:1" id="path3300" d="M 509.2219 357.06052 A 26.801153 26.801153 0 1 1 455.61959,357.06052 A 26.801153 26.801153 0 1 1 509.2219 357.06052 z" transform="translate(-32.420746,-57.060516)"/><g id="g3306" transform="translate(-28.377002,-28.530267)"><rect id="rect3302" width="67.435" height="15.562" x="341.499" y="320.749" style="fill:#000;fill-opacity:1;stroke:#000;stroke-width:10;stroke-miterlimit:4;stroke-dasharray:none;stroke-opacity:1"/><path style="fill:#000;fill-opacity:1;stroke:#000;stroke-width:10;stroke-miterlimit:4;stroke-dasharray:none;stroke-opacity:1" id="path3304" d="M 509.2219 357.06052 A 26.801153 26.801153 0 1 1 455.61959,357.06052 A 26.801153 26.801153 0 1 1 509.2219 357.06052 z" transform="translate(-144.43226,-28.530249)"/></g><use id="use3310" width="900" height="600" x="0" y="0" transform="matrix(-1,0,0,1,900,-3.5742187e-7)" xlink:href="#g3306"/><use id="use3314" width="900" height="600" x="0" y="0" transform="matrix(0,-1,1,0,150,751.46745)" xlink:href="#g3306"/><use id="use3316" width="900" height="600" x="0" y="0" transform="matrix(0,1,-1,0,750,-151.46744)" xlink:href="#g3306"/><use id="use3318" width="900" height="600" x="0" y="0" transform="matrix(0.7071068,0.7071068,-0.7071068,0.7071068,344.92997,-228.94631)" xlink:href="#g3306"/><use id="use3320" width="900" height="600" x="0" y="0" transform="matrix(-0.7071068,0.7071068,-0.7071068,-0.7071068,982.83679,196.61589)" xlink:href="#g3306"/><use id="use3322" width="900" height="600" x="0" y="0" transform="matrix(-0.7071068,-0.7071068,0.7071068,-0.7071068,559.02107,831.94875)" xlink:href="#g3306"/><use id="use3324" width="900" height="600" x="0" y="0" transform="matrix(0.7071068,-0.7071068,0.7071068,0.7071068,-78.514025,406.72868)" xlink:href="#g3306"/></g></svg>