<svg xmlns="http://www.w3.org/2000/svg" xmlns:svg="http://www.w3.org/2000/svg" xmlns:xlink="http://www.w3.org/1999/xlink" id="svg2" width="375" height="250" version="1.1"><metadata id="metadata7"/><g id="layer1"><rect style="fill:#ff0;fill-opacity:1;fill-rule:nonzero;stroke:none;stroke-width:.1;stroke-linejoin:miter;stroke-miterlimit:4;stroke-dasharray:none;stroke-opacity:1" id="rect1347" width="375" height="250" x="0" y="0" ry="0"/></g><g id="layer2"><g id="g2054" transform="translate(0,-8)"><circle id="path1314" cx="188" cy="250" transform="matrix(1.01317,0,0,1.013148,-2.48208,-47.76691)" style="fill:none;fill-opacity:1;fill-rule:nonzero;stroke:#000;stroke-width:12;stroke-linejoin:miter;stroke-miterlimit:4;stroke-dasharray:none;stroke-opacity:1" r="37"/><g id="g2048"><circle id="path2044" cx="188" cy="250" transform="matrix(0.557123,0,0,0.557051,83.02248,66.08594)" style="fill:none;fill-opacity:1;fill-rule:nonzero;stroke:#000;stroke-width:18;stroke-linejoin:miter;stroke-miterlimit:4;stroke-dasharray:none;stroke-opacity:1" r="37"/><circle style="fill:none;fill-opacity:1;fill-rule:nonzero;stroke:#000;stroke-width:30;stroke-linejoin:miter;stroke-miterlimit:4;stroke-dasharray:none;stroke-opacity:1" id="path2046" cx="188" cy="250" r="37" transform="matrix(0.203297,0,0,0.203268,149.3651,154.3545)"/></g></g><use id="use2052" width="375" height="250" x="0" y="0" transform="translate(0,-87)" xlink:href="#g2048"/><use id="use2060" width="375" height="250" x="0" y="0" transform="translate(47.5,-145)" xlink:href="#g2054"/><use id="use2062" width="375" height="250" x="0" y="0" transform="translate(-77.5,-55)" xlink:href="#g2054"/><use id="use2064" width="375" height="250" x="0" y="0" transform="translate(77.5,-55)" xlink:href="#g2054"/><use id="use2066" width="375" height="250" x="0" y="0" transform="translate(-47.5,-145)" xlink:href="#g2054"/></g></svg>