<svg xmlns="http://www.w3.org/2000/svg" xmlns:svg="http://www.w3.org/2000/svg" width="450" height="300" version="1.1"><rect id="rect4" width="450" height="300" x="0" y="0" style="fill:#00a200"/><polygon id="polygon6" points="0 260 360 0 0 0" style="fill:#f00000" transform="scale(1.125,1)"/><polygon id="polygon8" points="40 300 400 300 400 40" style="fill:#fff" transform="scale(1.125,1)"/><path id="path10" d="m 349.27575,166.666 c -1.938,0.775 -5.586,1.465 -8.104,1.53 l -4.58,0.119 0.119,-4.58 c 0.066,-2.519 0.754,-6.166 1.529,-8.104 3.041,-7.595 0.813,-12.631 -5.584,-12.631 -6.397,0 -8.623,5.036 -5.584,12.631 0.777,1.938 1.465,5.586 1.531,8.104 l 0.119,4.58 -4.58,-0.119 c -2.52,-0.065 -6.166,-0.755 -8.105,-1.53 -7.596,-3.04 -12.631,-0.813 -12.631,5.584 0,6.397 5.035,8.624 12.631,5.584 1.939,-0.775 5.586,-1.464 8.105,-1.53 l 4.58,-0.119 -0.119,4.58 c -0.066,2.519 -0.754,6.166 -1.531,8.104 -3.039,7.596 -0.813,12.631 5.584,12.631 6.397,0 8.625,-5.035 5.584,-12.631 -0.775,-1.938 -1.463,-5.586 -1.529,-8.104 l -0.119,-4.58 4.58,0.119 c 2.518,0.066 6.166,0.755 8.104,1.53 7.596,3.04 12.631,0.813 12.631,-5.584 0,-6.397 -5.036,-8.624 -12.631,-5.584 z" style="fill:#f00000"/><path id="path12" d="m 396.46275,241.666 c -1.938,0.775 -5.586,1.465 -8.104,1.53 l -4.58,0.119 0.119,-4.58 c 0.066,-2.519 0.755,-6.166 1.53,-8.104 3.04,-7.596 0.813,-12.631 -5.584,-12.631 -6.397,0 -8.623,5.035 -5.584,12.631 0.776,1.938 1.465,5.586 1.53,8.104 l 0.119,4.58 -4.58,-0.119 c -2.519,-0.065 -6.166,-0.755 -8.104,-1.53 -7.596,-3.04 -12.631,-0.813 -12.631,5.584 0,6.397 5.035,8.624 12.631,5.584 1.938,-0.775 5.586,-1.464 8.104,-1.53 l 4.58,-0.119 -0.119,4.58 c -0.065,2.519 -0.754,6.166 -1.53,8.104 -3.039,7.596 -0.813,12.631 5.584,12.631 6.396,0 8.624,-5.035 5.584,-12.631 -0.775,-1.938 -1.464,-5.586 -1.53,-8.104 l -0.119,-4.58 4.58,0.119 c 2.519,0.066 6.166,0.755 8.104,1.53 7.596,3.04 12.631,0.813 12.631,-5.584 0,-6.397 -5.035,-8.624 -12.631,-5.584 z" style="fill:#f00000"/><path id="path14" d="m 302.08775,241.666 c -1.938,0.775 -5.586,1.465 -8.104,1.53 l -4.58,0.119 0.119,-4.58 c 0.066,-2.519 0.755,-6.166 1.53,-8.104 3.04,-7.596 0.812,-12.631 -5.584,-12.631 -6.397,0 -8.623,5.035 -5.584,12.631 0.776,1.938 1.465,5.586 1.53,8.104 l 0.119,4.58 -4.58,-0.119 c -2.519,-0.065 -6.166,-0.755 -8.104,-1.53 -7.596,-3.04 -12.631,-0.813 -12.631,5.584 0,6.397 5.035,8.624 12.631,5.584 1.938,-0.775 5.586,-1.464 8.104,-1.53 l 4.58,-0.119 -0.119,4.58 c -0.065,2.519 -0.754,6.166 -1.53,8.104 -3.039,7.596 -0.813,12.631 5.584,12.631 6.396,0 8.624,-5.035 5.584,-12.631 -0.775,-1.938 -1.464,-5.586 -1.53,-8.104 l -0.119,-4.58 4.58,0.119 c 2.519,0.066 6.166,0.755 8.104,1.53 7.596,3.04 12.631,0.813 12.631,-5.584 0,-6.397 -5.035,-8.624 -12.631,-5.584 z" style="fill:#f00000"/></svg>