<svg xmlns="http://www.w3.org/2000/svg" xmlns:svg="http://www.w3.org/2000/svg" id="svg2" width="1000" height="750" version="1.1"><metadata id="metadata7"/><g id="layer1"><rect style="opacity:1;fill:#fff;fill-opacity:1;fill-rule:nonzero;stroke:none;stroke-width:7.31125;stroke-miterlimit:4;stroke-dasharray:none;stroke-opacity:1" id="rect3808" width="1000" height="750" x="0" y="0"/><circle style="fill:#008b54;fill-opacity:1;fill-rule:nonzero;stroke:none;stroke-width:7.31125;stroke-miterlimit:4;stroke-dasharray:none;stroke-opacity:1" id="path1312" cx="550" cy="422.857" r="290" transform="matrix(1.157635,0,0,1.157635,-137.5567,-108.6836)"/><circle style="fill:#ea874e;fill-opacity:1;fill-rule:nonzero;stroke:none;stroke-width:7.31125;stroke-miterlimit:4;stroke-dasharray:none;stroke-opacity:1" id="path2044" cx="495.714" cy="394.286" r="241.429" transform="matrix(1.199055,0,0,1.199055,-95.24613,-91.93956)"/><circle style="fill:#f2de00;fill-opacity:1;fill-rule:nonzero;stroke:none;stroke-width:7.31125;stroke-miterlimit:4;stroke-dasharray:none;stroke-opacity:1" id="path1314" cx="448.571" cy="352.857" r="197.143" transform="matrix(1.222852,0,0,1.222852,-49.39392,-50.66138)"/><circle style="fill:#8ac4da;fill-opacity:1;fill-rule:nonzero;stroke:none;stroke-width:7.31125;stroke-miterlimit:4;stroke-dasharray:none;stroke-opacity:1" id="path2046" cx="500" cy="398.571" r="165.714" transform="matrix(1.157635,0,0,1.157635,-79.67494,-80.56957)"/><path style="fill:#f2de00;fill-opacity:1;fill-rule:nonzero;stroke:none;stroke-width:7.31125;stroke-miterlimit:4;stroke-dasharray:none;stroke-opacity:1" id="path2626" d="M 599.99997,284.28571 414.83772,285.22282 448.57835,467.28739 332.39891,323.10599 211.09203,463.00088 251.38089,282.2725 66.373065,274.65401 232.79189,193.47081 123.39778,44.075806 290.6298,123.57039 339.2254,-55.103633 381.3415,125.20769 551.33333,51.79983 436.61922,197.14979 Z" transform="matrix(0.480411,0,0,0.480411,343.7532,280.7712)"/><path style="fill:#000;fill-opacity:1;fill-rule:nonzero;stroke:none;stroke-width:7.31125;stroke-miterlimit:4;stroke-dasharray:none;stroke-opacity:1" id="path2646" d="M 599.99997,284.28571 414.83772,285.22282 448.57835,467.28739 332.39891,323.10599 211.09203,463.00088 251.38089,282.2725 66.373065,274.65401 232.79189,193.47081 123.39778,44.075806 290.6298,123.57039 339.2254,-55.103633 381.3415,125.20769 551.33333,51.79983 436.61922,197.14979 Z" transform="matrix(0.196004,0,0,0.196004,771.1488,633.2931)"/><path style="fill:#000;fill-opacity:1;fill-rule:nonzero;stroke:none;stroke-width:7.31125;stroke-miterlimit:4;stroke-dasharray:none;stroke-opacity:1" id="path2648" d="M 599.99997,284.28571 414.83772,285.22282 448.57835,467.28739 332.39891,323.10599 211.09203,463.00088 251.38089,282.2725 66.373065,274.65401 232.79189,193.47081 123.39778,44.075806 290.6298,123.57039 339.2254,-55.103633 381.3415,125.20769 551.33333,51.79983 436.61922,197.14979 Z" transform="matrix(0.196004,0,0,0.196004,774.1227,39.00756)"/><path style="fill:#000;fill-opacity:1;fill-rule:nonzero;stroke:none;stroke-width:7.31125;stroke-miterlimit:4;stroke-dasharray:none;stroke-opacity:1" id="path2654" d="M 599.99997,284.28571 414.83772,285.22282 448.57835,467.28739 332.39891,323.10599 211.09203,463.00088 251.38089,282.2725 66.373065,274.65401 232.79189,193.47081 123.39778,44.075806 290.6298,123.57039 339.2254,-55.103633 381.3415,125.20769 551.33333,51.79983 436.61922,197.14979 Z" transform="matrix(0.196004,0,0,0.196004,95.26552,35.91719)"/><path style="fill:#000;fill-opacity:1;fill-rule:nonzero;stroke:none;stroke-width:7.31125;stroke-miterlimit:4;stroke-dasharray:none;stroke-opacity:1" id="path2660" d="M 599.99997,284.28571 414.83772,285.22282 448.57835,467.28739 332.39891,323.10599 211.09203,463.00088 251.38089,282.2725 66.373065,274.65401 232.79189,193.47081 123.39778,44.075806 290.6298,123.57039 339.2254,-55.103633 381.3415,125.20769 551.33333,51.79983 436.61922,197.14979 Z" transform="matrix(0.196004,0,0,0.196004,95.26551,627.8121)"/></g></svg>