<svg xmlns="http://www.w3.org/2000/svg" xmlns:svg="http://www.w3.org/2000/svg" id="svg2" width="1350" height="900" version="1.0" viewBox="0 0 700 700" xml:space="preserve" style="shape-rendering:geometricPrecision;text-rendering:geometricPrecision;image-rendering:optimizeQuality;fill-rule:evenodd"><metadata id="metadata16"/><defs id="defs4"><style id="style6" type="text/css">.fil2{fill:#302061}.fil1{fill:#e54221}.fil0{fill:#f7d619}</style></defs><rect style="opacity:1;fill:#fff;fill-opacity:1;stroke:none;stroke-width:4;stroke-miterlimit:4;stroke-dasharray:none;stroke-opacity:1" id="rect1880" width="1050" height="700" x="-175" y="0"/><g id="Layer 1" transform="matrix(0.708315,0,0,0.708315,102.8011,102.1217)"><path id="path9" d="M 150,70 C -12,214 175,452 349,350 C 349,148 648,105 691,317 C 675,143 528,6 349,6 C 275,6 206,30 150,70 z" class="fil0" style="fill:#f7d619"/><path id="path11" d="M 691,317 C 648,105 349,148 349,350 C 525,450 412,731 206,663 C 366,736 558,676 647,522 C 684,458 698,386 691,317 z" class="fil1" style="fill:#e54221"/><path id="path13" d="M 206,663 C 412,731 525,450 349,350 C 175,452 -12,214 150,70 C 7,171 -38,367 51,522 C 89,586 143,634 206,663 z" class="fil2" style="fill:#302061"/></g></svg>