<svg xmlns="http://www.w3.org/2000/svg" xmlns:svg="http://www.w3.org/2000/svg" id="svg20" width="165" height="110" version="1.1"><rect id="rect2" width="165" height="110" fill="#fff"/><rect id="rect4" width="165" height="10" fill="#bd3d44"/><rect id="rect6" width="165" height="10" y="20" fill="#bd3d44"/><rect id="rect8" width="165" height="10" y="40" fill="#bd3d44"/><rect id="rect10" width="165" height="10" y="60" fill="#bd3d44"/><rect id="rect12" width="165" height="10" y="80" fill="#bd3d44"/><rect id="rect14" width="165" height="10" y="100" fill="#bd3d44"/><rect id="rect16" width="50" height="50" fill="#192f5d"/><polygon id="polygon18" fill="#fff" d="M 1.3084868e-6,-4.0040002 0.89895399,-1.237304 3.8080309,-1.2373029 1.4545381,0.47260808 2.3534912,3.239305 0,1.5293919 -2.3534933,3.2393034 -1.4545381,0.47260809 -3.8080301,-1.2373053 -0.898954,-1.237304 1.3084868e-6,-4.0040002 z" points="0 -4.004 .899 -1.237 3.808 -1.237 1.455 .473 2.353 3.239 0 1.529 -2.353 3.239 -1.455 .473 -3.808 -1.237 -.899 -1.237 0 -4.004" transform="matrix(4.1417556,0,0,4.1417556,24.99993,26.583591)"/></svg>