<svg xmlns="http://www.w3.org/2000/svg" xmlns:svg="http://www.w3.org/2000/svg" id="svg3165" width="450" height="300" version="1.1" viewBox="75 0 450 300" xml:space="preserve" style="shape-rendering:geometricPrecision;text-rendering:geometricPrecision;image-rendering:optimizeQuality;fill-rule:evenodd"><metadata id="metadata3210"/><defs id="defs3167"><style id="style3169" type="text/css">.fil0{fill:#1b1083}.fil1{fill:#e0c03d}</style></defs><path id="path3171" d="M 75,0 525,0 525,300 75,300 75,0 z" class="fil0" style="fill:#0078f0;fill-opacity:1"/><g id="Layer 1"><circle id="circle3174" cx="300" cy="152" r="26" class="fil1"/><path id="path3176" d="M338 159c-4,1 -7,-3 -7,-7 0,-4 3,-8 7,-7l105 7 -105 7z" class="fil1"/><path id="path3178" d="M307 112c1,4 -3,8 -7,8 -4,0 -8,-4 -7,-8l7 -105 7 105z" class="fil1"/><path id="path3180" d="M261 145c4,-1 8,3 8,7 0,4 -4,8 -8,7l-105 -7 105 -7z" class="fil1"/><path id="path3182" d="M293 190c-1,-4 3,-8 7,-8 4,0 8,4 7,8l-7 105 -7 -105z" class="fil1"/><path id="path3184" d="M333 129c-3,3 -8,3 -11,0 -3,-3 -3,-8 0,-10l80 -70 -69 80z" class="fil1"/><path id="path3186" d="M278 119c3,3 3,8 0,11 -3,3 -8,3 -10,0l-70 -80 80 69z" class="fil1"/><path id="path3188" d="M268 174c2,-3 7,-3 10,0 3,3 3,7 0,10l-80 69 70 -79z" class="fil1"/><path id="path3190" d="M322 184c-3,-3 -3,-7 0,-10 3,-3 8,-3 11,0l69 79 -80 -69z" class="fil1"/><path id="path3192" d="M324 113c-1,4 -5,5 -9,3 -4,-1 -6,-5 -5,-8l41 -79 -27 84z" class="fil1"/><path id="path3194" d="M290 108c1,3 -1,7 -5,8 -4,2 -8,1 -9,-3l-27 -84 41 79z" class="fil1"/><path id="path3196" d="M260 128c4,1 5,5 3,9 -1,4 -5,6 -8,4l-79 -40 84 27z" class="fil1"/><path id="path3198" d="M255 162c3,-2 7,1 8,5 2,3 1,8 -2,9l-85 27 79 -41z" class="fil1"/><path id="path3200" d="M276 191c1,-4 5,-5 9,-3 4,1 6,5 4,8l-40 79 27 -84z" class="fil1"/><path id="path3202" d="M310 196c-1,-3 1,-7 5,-9 4,-1 8,0 9,3l27 85 -41 -79z" class="fil1"/><path id="path3204" d="M338 176c-3,-1 -4,-6 -3,-10 2,-3 6,-6 9,-4l79 41 -85 -27z" class="fil1"/><path id="path3206" d="M345 141c-3,2 -7,-1 -9,-5 -1,-3 0,-8 3,-9l85 -27 -79 41z" class="fil1"/></g></svg>