<svg xmlns="http://www.w3.org/2000/svg" xmlns:svg="http://www.w3.org/2000/svg" xmlns:xlink="http://www.w3.org/1999/xlink" id="svg2391" width="750" height="500" version="1.0"><g id="g2494" transform="matrix(19.736842,0,0,19.736842,375,250)"><rect style="fill:#75b2dd" id="rect4" width="38" height="25.333" x="-19" y="-12.667"/><g id="g2403" transform="scale(1.1875,1.1875)"><g id="star" transform="matrix(2,0,0,2,0,-6)" style="fill:#fff"><g id="cone"><polygon id="triangle" points="0 0 0 1 .5 1 0 0" transform="matrix(0.9510565,0.309017,-0.309017,0.9510565,0,-1)"/><use id="use9" width="38" height="20" x="0" y="0" transform="scale(-1,1)" xlink:href="#triangle"/></g><use id="use11" width="38" height="20" x="0" y="0" transform="matrix(0.309017,0.9510565,-0.9510565,0.309017,0,0)" xlink:href="#cone"/><use id="use13" width="38" height="20" x="0" y="0" transform="matrix(0.309017,-0.9510565,0.9510565,0.309017,0,0)" xlink:href="#cone"/><use id="use15" width="38" height="20" x="0" y="0" transform="matrix(-0.809017,0.5877853,-0.5877853,-0.809017,0,0)" xlink:href="#cone"/><use id="use17" width="38" height="20" x="0" y="0" transform="matrix(-0.809017,-0.5877853,0.5877853,-0.809017,0,0)" xlink:href="#cone"/></g><use id="use19" width="38" height="20" x="0" y="0" transform="matrix(0,1,-1,0,0,0)" xlink:href="#star"/><use id="use21" width="38" height="20" x="0" y="0" transform="matrix(0,-1,1,0,0,0)" xlink:href="#star"/><use id="use23" width="38" height="20" x="0" y="0" transform="scale(-1,-1)" xlink:href="#star"/></g></g></svg>