<svg xmlns="http://www.w3.org/2000/svg" xmlns:svg="http://www.w3.org/2000/svg" width="450" height="300"><g id="layer1"><rect style="fill:#fff" id="rect10951" width="450" height="300"/><path style="fill:#ce1126;fill-opacity:1;stroke:#ce1126;stroke-width:.90254134;stroke-opacity:1" id="21607424" d="M 167.33601,50.099021 L 139.40552,99.746783 L 111.47501,50.099021 L 139.40552,0.45125905 L 167.33601,50.099021 z" class="fil3 str0"/><path style="fill:#ce1126;fill-opacity:1;stroke:#ce1126;stroke-width:.90254134;stroke-opacity:1" id="21607336" d="M 223.19701,50.099021 L 195.26652,99.746783 L 167.33601,50.099021 L 195.26652,0.45125905 L 223.19701,50.099021 z" class="fil3 str0"/><path style="fill:#ce1126;fill-opacity:1;stroke:#ce1126;stroke-width:.90254134;stroke-opacity:1" id="21607160" d="M 55.614012,50.099021 L 83.544513,99.746783 L 111.47501,50.099021 L 83.544513,0.45125905 L 55.614012,50.099021 z" class="fil3 str0"/><path style="fill:#ce1126;fill-opacity:1;stroke:#ce1126;stroke-width:.90254134;stroke-opacity:1" id="21607072" d="M 0.45127296,50.099021 L 28.381773,99.746783 L 56.312276,50.099021 L 28.381773,0.45125905 L 0.45127296,50.099021 z" class="fil3 str0"/><path style="fill:#ce1126;fill-opacity:1;stroke:#ce1126;stroke-width:.90254134;stroke-opacity:1" id="21606984" d="M 167.33601,150.00001 L 139.40552,199.64777 L 111.47501,150.00001 L 139.40552,99.746783 L 167.33601,150.00001 z" class="fil3 str0"/><path style="fill:#ce1126;fill-opacity:1;stroke:#ce1126;stroke-width:.90254134;stroke-opacity:1" id="21606896" d="M 223.19701,150.00001 L 195.26652,199.64777 L 167.33601,150.00001 L 195.26652,99.746783 L 223.19701,150.00001 z" class="fil3 str0"/><path style="fill:#ce1126;fill-opacity:1;stroke:#ce1126;stroke-width:.90254134;stroke-opacity:1" id="21606720" d="M 55.614012,150.00001 L 83.544513,199.64777 L 111.47501,150.00001 L 83.544513,99.746783 L 55.614012,150.00001 z" class="fil3 str0"/><path style="fill:#ce1126;fill-opacity:1;stroke:#ce1126;stroke-width:.90254134;stroke-opacity:1" id="21606632" d="M 0.45127296,150.00001 L 28.381773,199.64777 L 56.312276,150.00001 L 28.381773,99.746783 L 0.45127296,150.00001 z" class="fil3 str0"/><path style="fill:#ce1126;fill-opacity:1;stroke:#ce1126;stroke-width:.90254134;stroke-opacity:1" id="21606544" d="M 167.33601,249.29553 L 139.40552,299.54875 L 111.47501,249.29553 L 139.40552,199.64777 L 167.33601,249.29553 z" class="fil3 str0"/><path style="fill:#ce1126;fill-opacity:1;stroke:#ce1126;stroke-width:.90254134;stroke-opacity:1" id="21606456" d="M 223.19701,249.29553 L 195.26652,299.54875 L 167.33601,249.29553 L 195.26652,199.64777 L 223.19701,249.29553 z" class="fil3 str0"/><path style="fill:#ce1126;fill-opacity:1;stroke:#ce1126;stroke-width:.90254134;stroke-opacity:1" id="21606280" d="M 55.614012,249.29553 L 83.544513,299.54875 L 111.47501,249.29553 L 83.544513,199.64777 L 55.614012,249.29553 z" class="fil3 str0"/><path style="fill:#ce1126;fill-opacity:1;stroke:#ce1126;stroke-width:.90254134;stroke-opacity:1" id="21699936" d="M 0.45127296,249.29553 L 28.381773,299.54875 L 56.312276,249.29553 L 28.381773,199.64777 L 0.45127296,249.29553 z" class="fil3 str0"/><path style="fill:#ce1126;fill-opacity:1;stroke:#ce1126;stroke-width:.90254134;stroke-opacity:1" id="21607248" d="M 279.05801,50.099021 L 251.12752,99.746783 L 223.19701,50.099021 L 251.12752,0.45125905 L 279.05801,50.099021 z" class="fil3 str0"/><path style="fill:#ce1126;fill-opacity:1;stroke:#ce1126;stroke-width:.90254134;stroke-opacity:1" id="21606808" d="M 279.05801,150.00001 L 251.12752,199.64777 L 223.19701,150.00001 L 251.12752,99.746783 L 279.05801,150.00001 z" class="fil3 str0"/><path style="fill:#ce1126;fill-opacity:1;stroke:#ce1126;stroke-width:.90254134;stroke-opacity:1" id="21606368" d="M 279.05801,249.29553 L 251.12752,299.54875 L 223.19701,249.29553 L 251.12752,199.64777 L 279.05801,249.29553 z" class="fil3 str0"/><path id="path3501" d="M 335.88826,50.099021 L 307.95777,99.746783 L 280.02726,50.099021 L 307.95777,0.45125905 L 335.88826,50.099021 z" class="fil3 str0" style="fill:#ce1126;fill-opacity:1;stroke:#ce1126;stroke-width:.90254134;stroke-opacity:1"/><path id="path3503" d="M 335.88826,150.00001 L 307.95777,199.64777 L 280.02726,150.00001 L 307.95777,99.746783 L 335.88826,150.00001 z" class="fil3 str0" style="fill:#ce1126;fill-opacity:1;stroke:#ce1126;stroke-width:.90254134;stroke-opacity:1"/><path id="path3505" d="M 335.88826,249.29553 L 307.95777,299.54875 L 280.02726,249.29553 L 307.95777,199.64777 L 335.88826,249.29553 z" class="fil3 str0" style="fill:#ce1126;fill-opacity:1;stroke:#ce1126;stroke-width:.90254134;stroke-opacity:1"/><path id="path3521" d="M 392.7185,50.098997 L 364.788,99.746759 L 336.85751,50.098997 L 364.788,0.45123502 L 392.7185,50.098997 z" class="fil3 str0" style="fill:#ce1126;fill-opacity:1;stroke:#ce1126;stroke-width:.90254134;stroke-opacity:1"/><path id="path3523" d="M 392.7185,149.99999 L 364.788,199.64775 L 336.85751,149.99999 L 364.788,99.746759 L 392.7185,149.99999 z" class="fil3 str0" style="fill:#ce1126;fill-opacity:1;stroke:#ce1126;stroke-width:.90254134;stroke-opacity:1"/><path id="path3525" d="M 392.7185,249.29551 L 364.788,299.54873 L 336.85751,249.29551 L 364.788,199.64775 L 392.7185,249.29551 z" class="fil3 str0" style="fill:#ce1126;fill-opacity:1;stroke:#ce1126;stroke-width:.90254134;stroke-opacity:1"/><path style="fill:#ce1126;fill-opacity:1;stroke:#ce1126;stroke-width:.90254134;stroke-opacity:1" id="path3529" d="M 449.54873,50.098997 L 421.61824,99.746759 L 393.68773,50.098997 L 421.61824,0.45123502 L 449.54873,50.098997 z" class="fil3 str0"/><path style="fill:#ce1126;fill-opacity:1;stroke:#ce1126;stroke-width:.90254134;stroke-opacity:1" id="path3531" d="M 449.54873,149.99999 L 421.61824,199.64775 L 393.68773,149.99999 L 421.61824,99.746759 L 449.54873,149.99999 z" class="fil3 str0"/><path style="fill:#ce1126;fill-opacity:1;stroke:#ce1126;stroke-width:.90254134;stroke-opacity:1" id="path3533" d="M 449.54873,249.29551 L 421.61824,299.54873 L 393.68773,249.29551 L 421.61824,199.64775 L 449.54873,249.29551 z" class="fil3 str0"/></g></svg>