<svg xmlns="http://www.w3.org/2000/svg" xmlns:svg="http://www.w3.org/2000/svg" id="svg1875" width="600" height="400" version="1.0"><metadata id="metadata1880"/><g id="layer1"><rect style="fill:#003580;fill-opacity:1;stroke:none;stroke-opacity:1" id="blue quarter" width="600" height="400" x="0" y="0"/><g id="g1889" transform="translate(-98.87267,-5.33507e-2)"><polygon style="fill:#fff" id="polygon1441" points="0 -1 .588 .809 -.951 -.309 .951 -.309 -.588 .809 0 -1" transform="matrix(58.42697,0,0,58.42697,398.8727,336.1569)"/><polygon style="fill:#fff" id="polygon1449" points="0 -1 .588 .809 -.951 -.309 .951 -.309 -.588 .809 0 -1" transform="matrix(46.74156,0,0,46.74156,276.6245,163.4442)"/><polygon style="fill:#fff" id="polygon1451" points="0 -1 .588 .809 -.951 -.309 .951 -.309 -.588 .809 0 -1" transform="matrix(43.82022,0,0,43.82022,523.8992,143.853)"/><polygon style="fill:#fff" id="polygon1453" points="0 -1 .588 .809 -.951 -.309 .951 -.309 -.588 .809 0 -1" transform="matrix(46.74156,0,0,46.74156,398.8727,63.42295)"/><polygon style="fill:#fff" id="polygon1455" points="0 -1 .588 .809 -.951 -.309 .951 -.309 -.588 .809 0 -1" transform="matrix(29.21348,0,0,29.21348,459.9968,231.9861)"/></g></g></svg>