<svg xmlns="http://www.w3.org/2000/svg" xmlns:svg="http://www.w3.org/2000/svg" id="svg1234" width="744.094" height="496.063" version="1.1"><metadata id="metadata11"/><rect style="font-size:12px;fill:#00a1de;fill-opacity:1;fill-rule:evenodd;stroke-width:1pt" id="rect1242" width="744.094" height="248.031" x="0" y="0"/><rect style="font-size:12px;fill:#20603d;fill-opacity:1;fill-rule:evenodd;stroke-width:1pt" id="rect1243" width="744.094" height="124.016" x="0" y="372.047"/><rect style="font-size:12px;fill:#fad201;fill-opacity:1;fill-rule:evenodd;stroke-width:1pt" id="rect1244" width="744.094" height="124.016" x="0" y="248.031"/><polygon style="font-size:12px;fill:#fad201;fill-opacity:1;fill-rule:evenodd;stroke-width:1pt" id="polygon1249" d="m 675.62994,172.65202 -36.01357,-19.86386 21.41118,35.11569 -29.64529,-28.50801 11.59299,39.46077 -21.25673,-35.2094 0.98478,41.11667 -11.41957,-39.51131 -9.69056,39.97053 -0.80417,-41.12059 -19.70549,36.10046 9.86602,-39.92758 -28.37754,29.77022 19.86386,-36.01357 -35.11569,21.41117 28.50802,-29.64529 -39.46077,11.593 35.20939,-21.25673 -41.11667,0.98477 39.51131,-11.41956 -39.97053,-9.69056 41.1206,-0.80418 -36.10047,-19.70549 39.92758,9.86602 -29.77021,-28.377532 36.01356,19.863862 -21.41117,-35.115691 29.64529,28.508014 -11.59299,-39.460771 21.25673,35.209392 -0.98478,-41.116666 11.41957,39.511308 9.69056,-39.970528 0.80417,41.120594 19.70549,-36.100464 -9.86602,39.927579 28.37754,-29.770214 -19.86387,36.013567 35.11569,-21.411173 -28.50801,29.645283 39.46077,-11.59299 -35.20939,21.25673 41.11667,-0.98477 -39.51131,11.41956 39.97053,9.69056 -41.1206,0.80417 36.10047,19.7055 -39.92758,-9.86602 z" points="673.456 171.021 637.442 151.158 658.853 186.273 629.208 157.765 640.801 197.226 619.544 162.017 620.529 203.133 609.11 163.622 599.419 203.592 598.615 162.472 578.909 198.572 588.775 158.645 560.398 188.415 580.262 152.401 545.146 173.813 573.654 144.167 534.193 155.76 569.403 134.504 528.286 135.488 567.797 124.069 527.827 114.378 568.947 113.574 532.847 93.869 572.774 103.735 543.004 75.357 579.018 95.221 557.607 60.105 587.252 88.613 575.659 49.153 596.916 84.362 595.931 43.245 607.35 82.757 617.041 42.786 617.845 83.907 637.551 47.806 627.685 87.734 656.062 57.964 636.198 93.977 671.314 72.566 642.806 102.211 682.267 90.618 647.057 111.875 688.174 110.89 648.663 122.31 688.633 132 647.513 132.804 683.613 152.51 643.686 142.644 673.456 171.021"/><ellipse style="fill:#00a1de;fill-opacity:1;fill-rule:evenodd;stroke:none;stroke-width:1.01241pt;stroke-linecap:butt;stroke-linejoin:miter;stroke-opacity:1" id="path1251" cx="610.404" cy="124.82" rx="31.367" ry="31.367"/><ellipse style="fill:#fad201;fill-opacity:1;fill-rule:evenodd;stroke:none;stroke-width:.819829pt;stroke-linecap:butt;stroke-linejoin:miter;stroke-opacity:1" id="path1250" cx="610.404" cy="124.82" rx="25.217" ry="25.585"/></svg>