<svg xmlns="http://www.w3.org/2000/svg" xmlns:svg="http://www.w3.org/2000/svg" id="svg2" width="600" height="400" version="1.1"><g id="g7765"><rect id="rect551" width="600" height="133.343" x="0" y="266.657" style="font-size:12px;fill:#007a3d;fill-opacity:1;fill-rule:evenodd;stroke-width:1pt"/><rect id="rect552" width="600" height="133.343" x="0" y="133.314" style="font-size:12px;fill:#fff;fill-opacity:1;fill-rule:evenodd;stroke-width:1pt"/><rect id="rect553" width="600" height="133.343" x="0" y="0" style="font-size:12px;fill:#000;fill-opacity:1;fill-rule:evenodd;stroke-width:1pt"/></g><path id="path556" d="M 0,7.6440956e-05 L 0,400 L 266.65903,200.00041 L 0,7.6440956e-05 z" style="font-size:12px;fill:#c00;fill-opacity:1;fill-rule:evenodd;stroke-width:1pt"/><g id="g3866" transform="matrix(0.986842, 0, 0, 0.987314, -12.1487, -150.279)"><circle style="fill:#c00" id="circle1456" cx="120" cy="120" r="60" transform="matrix(0.886243, 0, 0, 0.886243, 263.136, 248.43)"/><circle style="fill:#fff" id="circle3256" cx="120" cy="120" r="60" transform="matrix(0.886243, 0, 0, 0.886243, 283.453, 248.43)"/><path style="fill:#c00" id="path3258" d="M 355.16921,387.07328 L 377.91098,370.8163 L 400.47493,387.31909 L 392.04124,360.66671 L 414.70898,344.30673 L 386.7549,344.09165 L 378.20036,317.47784 L 369.35749,343.99727 L 341.40275,343.90903 L 363.89167,360.514 L 355.16921,387.07328 z"/></g></svg>