<svg xmlns="http://www.w3.org/2000/svg" xmlns:svg="http://www.w3.org/2000/svg" id="svg548" width="662.887" height="441.74" version="1.1"><metadata id="metadata2498"/><rect style="font-size:12px;fill:#fff;fill-opacity:1;fill-rule:evenodd;stroke-width:1pt" id="rect555" width="662.598" height="441.74" x=".048" y="0"/><path style="fill:#000072;fill-opacity:.776471;fill-rule:evenodd;stroke:none;stroke-width:1pt;stroke-linecap:butt;stroke-linejoin:miter;stroke-opacity:1" id="path576" d="m 72.6498,0.96308823 c 0.125,0 0.25,0 0.375,0 M 72.1928,0.95244023 328.9188,172.33099 583.7719,1.2958472 Z"/><path style="fill:#000072;fill-opacity:.776471;fill-rule:evenodd;stroke:none;stroke-width:1pt;stroke-linecap:butt;stroke-linejoin:miter;stroke-opacity:1" id="path577" d="m 585.29268,441.72935 c -0.125,0 -0.25,0 -0.375,0 m 0.832,0.0106 L 329.02368,270.3614 74.170579,441.39655 Z"/><path style="fill:#000072;fill-opacity:.776471;fill-rule:evenodd;stroke:none;stroke-width:1pt;stroke-linecap:butt;stroke-linejoin:miter;stroke-opacity:1" id="path578" d="m 660.8974,7.5000602 c 0,0.11092 0,0.221839 0,0.332759 m 1.99,40.5069008 -257.416,171.64387 257.029,171.73705 z"/><path style="fill:#000072;fill-opacity:.776471;fill-rule:evenodd;stroke:none;stroke-width:1pt;stroke-linecap:butt;stroke-linejoin:miter;stroke-opacity:1" id="path581" d="m 1.99,433.84323 c 0,-0.11091 0,-0.22183 0,-0.33275 M 0,393.00358 257.416,221.3597 0.387,49.62266 Z"/><g id="g8044" transform="matrix(0.80458543,0,0,0.80458543,352.8295,45.362299)"><circle id="path4241" cx="336.557" cy="217.591" transform="matrix(1.030303,0,0,1.030303,-373.51491,-6.0492)" style="fill:#000;fill-opacity:1;stroke:none" r="169.563"/><circle id="path4243" cx="-260.767" cy="116.111" transform="matrix(1.2322233,0,0,1.2322233,294.56401,75.06176)" style="fill:#fff;fill-opacity:1;stroke:none" r="129.741"/><circle id="path4247" cx="-209.385" cy="113.541" transform="matrix(2.2109777,0,0,2.2109777,436.18508,-32.90163)" style="fill:#000;fill-opacity:1;stroke:none" r="68.082"/><circle id="path4249" cx="-387.939" cy="310.08" transform="matrix(2.1178273,0,0,2.1178273,794.8293,-438.56059)" style="fill:#fff;fill-opacity:1;stroke:none" r="64.228"/><g id="g4162" transform="matrix(1.030303,0,0,1.030303,-424.60183,79.14496)"><path id="path3265" d="M 386.483,205.477 V 22.208 c 0,-1.392 1.128,-2.521 2.521,-2.521 1.391,0 2.52,1.128 2.52,2.521 v 183.269 z" style="stroke:#000"/><path id="path3267" d="m 487.618,174.666 c -17.478,8.004 -20.358,27.142 -36.638,48.922 -11.511,15.399 -30.511,23.113 -61.977,23.113 -31.467,0 -50.467,-7.714 -61.977,-23.113 -16.279,-21.78 -19.16,-40.918 -36.639,-48.922 l 52.357,0.002 c 1.547,2.398 3.228,4.844 5.08,7.322 8.627,11.542 23.06,22.149 41.178,22.149 18.117,0 32.55,-10.606 41.177,-22.149 1.854,-2.479 3.533,-4.924 5.081,-7.322 z" style="stroke:#000"/><path id="path3269" d="m 477.013,174.665 c -10.896,9.606 -15.21,25.767 -28.632,43.724 -11.188,14.968 -29.654,23.095 -59.377,23.095 v 0 c -29.722,0 -48.188,-8.127 -59.376,-23.095 -13.424,-17.957 -17.738,-34.118 -28.634,-43.724" style="fill:none;stroke:#fff"/><path id="path3271" d="m 469.541,174.665 c -7.673,9.723 -12.526,23.495 -23.76,38.525 -10.857,14.525 -28.78,23.038 -56.777,23.038 -27.996,0 -45.921,-8.513 -56.777,-23.038 -11.232,-15.03 -16.087,-28.802 -23.76,-38.525" style="fill:none;stroke:#fff"/><path id="path3273" d="m 463.288,174.665 c -5.821,9.161 -10.751,20.806 -20.108,33.325 -10.514,14.068 -27.885,22.94 -54.176,22.94 -26.291,0 -43.661,-8.873 -54.177,-22.94 -9.356,-12.519 -14.287,-24.165 -20.108,-33.325" style="fill:none;stroke:#fff"/><path id="path3275" d="m 457.589,174.666 c -4.647,8.198 -9.343,17.868 -17.009,28.124 -10.163,13.597 -26.97,22.796 -51.576,22.796 -24.607,0 -41.414,-9.199 -51.577,-22.796 -7.666,-10.256 -12.361,-19.926 -17.007,-28.124" style="fill:none;stroke:#fff"/><path id="path3277" d="m 452.11,174.667 c -3.811,6.972 -8.029,14.763 -14.13,22.923 -9.799,13.11 -26.03,22.603 -48.977,22.603 v 0 c -22.946,0 -39.178,-9.492 -48.978,-22.603 -6.101,-8.161 -10.317,-15.951 -14.129,-22.923" style="fill:none;stroke:#fff"/><path id="path3279" d="m 446.651,174.664 c -3.104,5.565 -6.646,11.539 -11.271,17.726 -9.422,12.606 -25.066,22.353 -46.377,22.353 v 0 c -21.311,0 -36.955,-9.747 -46.377,-22.353 -4.625,-6.187 -8.168,-12.161 -11.271,-17.726" style="fill:none;stroke:#fff"/><path id="path3281" d="m 441.07,174.667 c -2.386,4.027 -5.076,8.224 -8.289,12.522 -9.033,12.085 -24.077,22.303 -43.777,22.303 v 0 c -19.7,0 -34.744,-10.218 -43.777,-22.303 -3.213,-4.299 -5.904,-8.495 -8.29,-12.522" style="fill:none;stroke:#fff"/><path id="path3283" d="m 389.004,246.702 c -31.467,0 -50.467,-7.714 -61.977,-23.113" style="fill:none;stroke:#000"/><path id="path3285" d="m 389.004,204.139 c -18.118,0 -32.551,-10.606 -41.178,-22.149" style="fill:none;stroke:#000"/><rect id="rect3287" width="54.79" height="15.165" x="289.004" y="154.732" style="stroke:#000"/><rect id="rect3289" width="54.79" height="15.165" x="434.213" y="154.732" style="stroke:#000"/><path id="path3291" d="m 390.421,221.359 -27.883,27.883 -0.043,0.036 c 0.399,0.971 0.209,2.128 -0.576,2.92 l -7.029,7.097 c -1.047,1.057 -2.751,1.065 -3.808,0.019 v 0 c -1.058,-1.047 -1.066,-2.752 -0.02,-3.809 l 7.028,-7.097 c 0.756,-0.764 1.855,-0.98 2.808,-0.646 l 0.031,-0.031 27.932,-27.932 z" style="stroke:#fff"/><path id="path3293" d="m 421.619,221.359 -27.882,27.883 -0.043,0.036 c 0.399,0.971 0.207,2.128 -0.578,2.92 l -7.027,7.097 c -1.046,1.057 -2.751,1.065 -3.809,0.019 v 0 c -1.058,-1.047 -1.065,-2.752 -0.019,-3.809 l 7.026,-7.097 c 0.758,-0.764 1.857,-0.98 2.81,-0.646 l 0.03,-0.031 27.933,-27.932 z" style="stroke:#fff"/><path id="path3295" d="m 359.223,221.359 -27.884,27.883 -0.041,0.036 c 0.397,0.971 0.207,2.128 -0.578,2.92 l -7.028,7.097 c -1.046,1.057 -2.751,1.065 -3.808,0.019 v 0 c -1.058,-1.047 -1.067,-2.752 -0.021,-3.809 l 7.028,-7.097 c 0.756,-0.764 1.856,-0.98 2.808,-0.646 l 0.03,-0.031 27.933,-27.932 z" style="stroke:#fff"/><circle id="circle3297" cx="389.003" cy="222.84" r="6.693" style="stroke:#fff"/><circle id="circle3299" cx="359.002" cy="216.662" r="5.647" style="stroke:#fff"/><circle id="circle3301" cx="340.772" cy="202.686" r="4.528" style="stroke:#fff"/><circle id="circle3303" cx="322.771" cy="162.213" r="3.95" style="stroke:#fff"/><circle id="circle3305" cx="335.822" cy="162.213" r="3.95" style="stroke:#fff"/><circle id="circle3307" cx="296.625" cy="162.213" r="3.95" style="stroke:#fff"/><circle id="circle3309" cx="309.673" cy="162.213" r="3.95" style="stroke:#fff"/><circle id="circle3311" cx="419.006" cy="216.662" r="5.646" style="stroke:#fff"/><circle id="circle3313" cx="437.235" cy="202.686" r="4.528" style="stroke:#fff"/><circle id="circle3315" cx="455.236" cy="162.213" r="3.949" style="stroke:#fff"/><circle id="circle3317" cx="442.187" cy="162.213" r="3.95" style="stroke:#fff"/><circle id="circle3319" cx="481.383" cy="162.213" r="3.95" style="stroke:#fff"/><circle id="circle3321" cx="468.334" cy="162.213" r="3.95" style="stroke:#fff"/><path id="path3323" d="m 395.972,74.367 -65.899,31.711 c -1.42,0.682 -3.06,0.219 -3.664,-1.035 -0.602,-1.254 0.059,-2.824 1.478,-3.507 l 65.901,-31.712 2.854,-1.373 62.31,-29.983 c 1.448,-0.696 3.11,-0.245 3.715,1.01 0.604,1.254 -0.081,2.835 -1.528,3.533 L 398.55,73.126 Z" style="stroke:#000"/><path id="path3325" d="m 332.337,104.987 c 3.269,6.862 15.732,19.562 27.899,12.804 10.694,-5.941 13.936,-15.881 4.544,-34.009 -0.93,-1.426 -4.467,0.574 -3.788,2.157 6.591,13.368 4.431,17.699 -0.973,20.4 -5.4,2.701 -12.424,0 -15.797,-7.072 z" style="stroke:#000"/><path id="path3327" d="m 367.009,88.303 c 4.751,9.976 22.646,28.017 40.562,18.615 14.539,-7.63 18.782,-24.995 7.638,-47.402 -1.35,-2.073 -6.72,0.457 -5.734,2.759 9.581,19.436 5.636,24.067 -2.217,27.994 -7.854,3.927 -18.062,0 -22.966,-10.282 z" style="stroke:#000"/><path id="path3329" d="m 417.359,64.075 c 3.752,7.879 18.067,22.464 32.038,14.703 12.281,-6.823 15.65,-18.589 5.776,-38.493 -1.064,-1.637 -5.512,0.46 -4.731,2.278 5.376,10.774 3.999,19.053 -1.293,23.065 -5.527,4.19 -14.268,0 -18.141,-8.121 z" style="stroke:#000"/><path id="path3331" d="M 305.975,154.732 V 101.87 c 0,-0.741 -0.6,-1.342 -1.341,-1.342 -0.741,0 -1.342,0.601 -1.342,1.342 v 52.863 h 2.683 z" style="stroke:#000"/><path id="path3333" d="M 472.032,154.732 V 101.87 c 0,-0.741 0.6,-1.342 1.342,-1.342 0.741,0 1.342,0.601 1.342,1.342 v 52.863 h -2.684 z" style="stroke:#000"/><path id="path3335" d="m 303.292,112.486 c -8.286,-2.382 -10.718,0.48 -17.978,-1.305 -7.258,-1.784 -5.75,-4.854 -15.174,-5.946 10.28,-2.339 9.627,1.635 17.104,1.635 7.473,0 7.986,-3.705 16.048,-3.705 z" style="fill:#bf1012;stroke:#000"/><path id="path3337" d="m 472.032,112.486 c -8.287,-2.382 -10.719,0.48 -17.978,-1.305 -7.26,-1.784 -5.752,-4.854 -15.174,-5.946 10.281,-2.339 9.628,1.635 17.102,1.635 7.476,0 7.987,-3.705 16.05,-3.705 z" style="fill:#bf1012;stroke:#000"/><path id="path3339" d="m 386.483,37.319 c -11.964,-3.439 -15.474,0.692 -25.954,-1.883 -10.478,-2.577 -8.303,-7.009 -21.905,-8.584 14.842,-3.377 13.898,2.36 24.688,2.36 10.793,0 11.531,-5.349 23.171,-5.349 z" style="fill:#bf1012;stroke:#000"/><line id="line3341" x1="289.716" x2="303.292" y1="154.732" y2="114.398" style="fill:none;stroke:#000"/><line id="line3343" x1="296.348" x2="303.292" y1="154.732" y2="117.198" style="fill:none;stroke:#000"/><line id="line3345" x1="343.257" x2="305.975" y1="154.732" y2="114.398" style="fill:none;stroke:#000"/><line id="line3347" x1="336.624" x2="305.975" y1="154.732" y2="116.301" style="fill:none;stroke:#000"/><line id="line3349" x1="488.292" x2="474.716" y1="154.732" y2="114.398" style="fill:none;stroke:#000"/><line id="line3351" x1="481.659" x2="474.716" y1="154.732" y2="117.198" style="fill:none;stroke:#000"/><line id="line3353" x1="434.751" x2="472.032" y1="154.732" y2="114.398" style="fill:none;stroke:#000"/><line id="line3355" x1="441.383" x2="472.032" y1="154.732" y2="116.301" style="fill:none;stroke:#000"/><path id="path3357" d="m 330.072,106.078 c 10.637,25.924 30.021,71.501 66.593,97.414" style="fill:none;stroke:#000"/><path id="path3359" d="m 330.072,106.078 c 10.637,25.924 45.512,74.263 76.492,94.583" style="fill:none;stroke:#000"/><path id="path3361" d="m 330.072,106.078 c 10.637,25.924 54.565,69.449 85.546,89.771" style="fill:none;stroke:#000"/><path id="path3363" d="M 447.266,79.792 C 432.43,122.001 409.013,183.555 381.347,203.491" style="fill:none;stroke:#000"/><path id="path3365" d="m 460.2,43.461 c -0.53,1.293 -1.109,2.788 -1.736,4.462" style="fill:none;stroke:#000"/><path id="path3367" d="m 445,80.516 c -17.502,41.095 -45.471,99.706 -73.554,120.145" style="fill:none;stroke:#000"/><path id="path3369" d="m 460.2,43.461 c -0.523,1.274 -1.114,2.735 -1.772,4.363" style="fill:none;stroke:#000"/><path id="path3371" d="m 442.74,80.903 c -19.776,39.216 -51.369,93.649 -80.347,114.945" style="fill:none;stroke:#000"/><path id="path3373" d="m 460.2,43.461 c -0.52,1.263 -1.121,2.693 -1.805,4.274" style="fill:none;stroke:#000"/><line id="line3375" x1="386.483" x2="332.011" y1="42.263" y2="99.551" style="fill:none;stroke:#000"/><line id="line3377" x1="386.483" x2="350.71" y1="42.263" y2="90.553" style="fill:none;stroke:#000"/><line id="line3379" x1="386.483" x2="364.78" y1="42.263" y2="83.782" style="fill:none;stroke:#000"/><line id="line3381" x1="391.524" x2="456.532" y1="42.263" y2="39.632" style="fill:none;stroke:#000"/><line id="line3383" x1="391.524" x2="442.899" y1="42.263" y2="46.191" style="fill:none;stroke:#000"/><line id="line3385" x1="391.524" x2="430.747" y1="42.263" y2="52.04" style="fill:none;stroke:#000"/><path id="path3387" d="m 347.113,181.027 c 13.965,-18.209 26.192,-50.557 34.044,-76.93" style="fill:none;stroke:#000"/><path id="path3389" d="m 352.287,187.295 c 14.055,-18.327 23.791,-54.081 30.117,-82.386" style="fill:none;stroke:#000"/><path id="path3391" d="m 358.178,192.751 c 14.114,-18.404 20.932,-57.104 25.529,-87.063" style="fill:none;stroke:#000"/><path id="path3393" d="M 430.896,181.027 C 417.875,164.047 406.36,134.77 398.5,109.509" style="fill:none;stroke:#000"/><path id="path3395" d="m 425.723,187.295 c -13.298,-17.34 -22.73,-50.279 -29.065,-77.75" style="fill:none;stroke:#000"/><path id="path3397" d="m 419.831,192.751 c -13.53,-17.646 -20.357,-53.946 -24.95,-83.313" style="fill:none;stroke:#000"/><path id="path3399" d="m 341.133,100.754 c 3.655,7.206 11.976,13.474 19.373,9.42 7.231,-3.962 5.007,-12.475 1.762,-19" style="fill:none;stroke:#fff"/><path id="path3401" d="m 336.908,102.788 c 3.343,6.252 10.788,13.757 17.926,12.951 8.154,-0.921 10.472,-8.284 10.472,-14.407" style="fill:none;stroke:#fff"/><path id="path3403" d="m 379.798,82.149 c 5.312,10.476 17.411,19.589 28.166,13.696 10.512,-5.76 7.648,-18.57 2.929,-28.057" style="fill:none;stroke:#fff"/><path id="path3405" d="m 373.653,85.105 c 4.86,9.09 15.688,20.001 26.063,18.828 11.854,-1.339 15.42,-12.237 15.42,-21.14" style="fill:none;stroke:#fff"/><path id="path3407" d="m 427.462,59.214 c 4.194,8.275 13.751,15.473 22.245,10.818 8.305,-4.55 5.782,-14.481 2.056,-21.974" style="fill:none;stroke:#fff"/><path id="path3409" d="m 422.607,61.55 c 3.84,7.18 12.391,15.797 20.587,14.871 9.363,-1.059 12.027,-9.918 12.027,-16.95" style="fill:none;stroke:#fff"/><path id="path3411" d="m 347.012,172.282 c 0,1.317 -1.093,2.384 -2.441,2.384 H 288.28 c -1.349,0 -2.441,-1.067 -2.441,-2.384 v 0 c 0,-1.316 1.093,-2.384 2.441,-2.384 h 56.291 c 1.348,-0.001 2.441,1.067 2.441,2.384 z" style="stroke:#fff"/><path id="path3413" d="m 430.996,172.282 c 0,1.317 1.093,2.384 2.44,2.384 h 56.291 c 1.349,0 2.441,-1.067 2.441,-2.384 v 0 c 0,-1.316 -1.093,-2.384 -2.441,-2.384 h -56.291 c -1.347,-0.001 -2.44,1.067 -2.44,2.384 z" style="stroke:#fff"/></g></g></svg>