<svg xmlns="http://www.w3.org/2000/svg" xmlns:svg="http://www.w3.org/2000/svg" id="svg548" width="662.887" height="441.74" version="1.1"><metadata id="metadata2498"/><rect style="font-size:12px;fill:#fff;fill-opacity:1;fill-rule:evenodd;stroke-width:1pt" id="rect555" width="662.598" height="441.74" x=".048" y="0"/><path style="fill:#000072;fill-opacity:.776471;fill-rule:evenodd;stroke:none;stroke-width:1pt;stroke-linecap:butt;stroke-linejoin:miter;stroke-opacity:1" id="path576" d="m 72.6498,0.96308823 c 0.125,0 0.25,0 0.375,0 M 72.1928,0.95244023 328.9188,172.33099 583.7719,1.2958472 Z"/><path style="fill:#000072;fill-opacity:.776471;fill-rule:evenodd;stroke:none;stroke-width:1pt;stroke-linecap:butt;stroke-linejoin:miter;stroke-opacity:1" id="path577" d="m 585.29268,441.72935 c -0.125,0 -0.25,0 -0.375,0 m 0.832,0.0106 L 329.02368,270.3614 74.170579,441.39655 Z"/><path style="fill:#000072;fill-opacity:.776471;fill-rule:evenodd;stroke:none;stroke-width:1pt;stroke-linecap:butt;stroke-linejoin:miter;stroke-opacity:1" id="path578" d="m 660.8974,7.5000602 c 0,0.11092 0,0.221839 0,0.332759 m 1.99,40.5069008 -257.416,171.64387 257.029,171.73705 z"/><path style="fill:#000072;fill-opacity:.776471;fill-rule:evenodd;stroke:none;stroke-width:1pt;stroke-linecap:butt;stroke-linejoin:miter;stroke-opacity:1" id="path581" d="m 1.99,433.84323 c 0,-0.11091 0,-0.22183 0,-0.33275 M 0,393.00358 257.416,221.3597 0.387,49.62266 Z"/></svg>