<svg xmlns="http://www.w3.org/2000/svg" xmlns:svg="http://www.w3.org/2000/svg" xmlns:xlink="http://www.w3.org/1999/xlink" id="svg2" width="900" height="600" version="1.1" viewBox="-35 -30 150 100"><metadata id="metadata38"/><clipPath id="rect"><rect id="rect5" width="200" height="100" x="-35" y="-30"/></clipPath><rect id="rect7" width="150" height="100" x="-35" y="-30" style="fill:#215b33"/><path id="path9" d="m -35,69.999998 0,-100.000008 150.00001,0" style="fill:#0051ba"/><path id="path11" d="M 165,-30 -35,70" clip-path="url(#rect)" style="stroke:#fcd116;stroke-width:9" transform="matrix(0.74999994,0,0,1.0000001,-8.750002,-7e-6)"/><g id="star" transform="matrix(10,0,0,10,-4.296875,-1.171875)" style="fill:#fff"><g id="cone"><polygon id="triangle" points="0 1 .5 1 0 0" transform="matrix(0.95105652,0.30901699,-0.30901699,0.95105652,0,-1)"/><use id="use16" width="200" height="100" x="0" y="0" transform="scale(-1,1)" xlink:href="#triangle"/></g><use id="use18" width="200" height="100" x="0" y="0" transform="matrix(0.30901699,0.95105652,-0.95105652,0.30901699,0,0)" xlink:href="#cone"/><use id="use20" width="200" height="100" x="0" y="0" transform="matrix(0.30901699,-0.95105652,0.95105652,0.30901699,0,0)" xlink:href="#cone"/><use id="use22" width="200" height="100" x="0" y="0" transform="matrix(-0.80901699,0.58778525,-0.58778525,-0.80901699,0,0)" xlink:href="#cone"/><use id="use24" width="200" height="100" x="0" y="0" transform="matrix(-0.80901699,-0.58778525,0.58778525,-0.80901699,0,0)" xlink:href="#cone"/></g><use id="use26" width="200" height="100" x="0" y="0" transform="translate(19.741054,-16.92013)" xlink:href="#star"/><use id="use28" width="200" height="100" x="0" y="0" transform="translate(19.741054,16.92013)" xlink:href="#star"/><use id="use30" width="200" height="100" x="0" y="0" transform="translate(-19.741054,16.92013)" xlink:href="#star"/><use id="use32" width="200" height="100" x="0" y="0" transform="translate(-19.741054,-16.92013)" xlink:href="#star"/></svg>