<svg xmlns="http://www.w3.org/2000/svg" xmlns:svg="http://www.w3.org/2000/svg" id="svg548" width="662.598" height="441.73" version="1.1"><metadata id="metadata2545"/><rect style="font-size:12px;fill:#c00;fill-opacity:1;fill-rule:evenodd;stroke-width:1pt" id="rect555" width="662.6" height="441.73" x="0" y="0"/><path style="fill:#fff;fill-opacity:1;fill-rule:evenodd;stroke:none;stroke-width:1pt;stroke-linecap:butt;stroke-linejoin:miter;stroke-opacity:1" id="path576" d="M 72.618300,0.010681986 C 72.743246,0.010681986 72.868192,0.010681986 72.993138,0.010681986 M 72.161498,1.0986328e-05 L 328.77620,171.74499 L 583.51880,0.34415199 L 72.161498,1.0986328e-05 z"/><path style="fill:#fff;fill-opacity:1;fill-rule:evenodd;stroke:none;stroke-width:1pt;stroke-linecap:butt;stroke-linejoin:miter;stroke-opacity:1" id="path577" d="M 585.03892,441.71934 C 584.91398,441.71934 584.78903,441.71934 584.66409,441.71934 M 585.49572,441.73001 L 328.88103,269.98503 L 74.138420,441.38587 L 585.49572,441.73001 z"/><path style="fill:#fff;fill-opacity:1;fill-rule:evenodd;stroke:none;stroke-width:1pt;stroke-linecap:butt;stroke-linejoin:miter;stroke-opacity:1" id="path578" d="M 660.61086,6.5616310 C 660.61086,6.6727870 660.61086,6.7839440 660.61086,6.8951010 M 662.60000,47.488611 L 405.29561,219.49947 L 662.21317,391.60371 L 662.60000,47.488611 z"/><path style="fill:#fff;fill-opacity:1;fill-rule:evenodd;stroke:none;stroke-width:1pt;stroke-linecap:butt;stroke-linejoin:miter;stroke-opacity:1" id="path581" d="M 1.9891372,433.81637 C 1.9891372,433.70521 1.9891372,433.59406 1.9891372,433.48290 M 0.0000000,392.88939 L 257.30440,220.87853 L 0.38683221,48.774241 L 0.0000000,392.88939 z"/></svg>