<svg xmlns="http://www.w3.org/2000/svg" xmlns:svg="http://www.w3.org/2000/svg" id="svg2991" width="450" height="300" version="1.1"><g id="g17" transform="translate(0,-752.36218)"><rect id="rect2" width="450" height="300" y="752.362" fill="maroon"/><rect id="rect4" width="450" height="150" y="752.362" fill="#fc0"/><g id="g10" transform="translate(25,0)"><path id="path6" fill="#fff" d="m 136,88 c 0,27.61424 -21.04262,50 -47,50 -25.957383,0 -47,-22.38576 -47,-50 0,-27.614237 21.042617,-50 47,-50 25.95738,0 47,22.385763 47,50 z" transform="matrix(1.0638298,0,0,1,5.319148,889.36218)"/><path id="path8" fill="maroon" d="m 136,88 c 0,27.61424 -21.04262,50 -47,50 -25.957383,0 -47,-22.38576 -47,-50 0,-27.614237 21.042617,-50 47,-50 25.95738,0 47,22.385763 47,50 z" transform="matrix(0.85106383,0,0,0.8,44.255319,906.96218)"/></g><g id="g3060" transform="translate(-10.000002,-12)"><path id="path12" fill="#fff" d="m 136,88 c 0,27.61424 -21.04262,50 -47,50 -25.957383,0 -47,-22.38576 -47,-50 0,-27.614237 21.042617,-50 47,-50 25.95738,0 47,22.385763 47,50 z" transform="matrix(1.0638298,0,0,1,40.31915,751.36218)"/><path id="path14" fill="#fc0" d="m 136,88 c 0,27.61424 -21.04262,50 -47,50 -25.957383,0 -47,-22.38576 -47,-50 0,-27.614237 21.042617,-50 47,-50 25.95738,0 47,22.385763 47,50 z" transform="matrix(0.85106383,0,0,0.8,79.25532,768.96218)"/></g></g></svg>