<svg xmlns="http://www.w3.org/2000/svg" xmlns:svg="http://www.w3.org/2000/svg" id="svg378" width="1062.99" height="708.661" x="0" y="0" version="1"><metadata id="metadata5459"/><rect id="rect171" width="1062.99" height="708.661" fill="#fff"/><rect id="rect256" width="1062.99" height="236.22" y="475.559" fill="#000"/><rect id="rect255" width="1062.99" height="236.22" fill="#ce1126"/><path d="M 266.186 534.45 L 255.778 527.018 L 245.421 534.523 L 249.273 522.327 L 238.935 514.796 L 251.725 514.691 L 255.692 502.532 L 259.744 514.663 L 272.534 514.679 L 262.249 522.281 L 266.186 534.45 z" transform="matrix(4.106327,0.000000,0.000000,4.163411,-765.3043,-1811.356)" style="font-size:12;fill:#007a3d;fill-rule:evenodd;stroke-width:.112872;fill-opacity:1" id="path205"/><path d="M 266.186 534.45 L 255.778 527.018 L 245.421 534.523 L 249.273 522.327 L 238.935 514.796 L 251.725 514.691 L 255.692 502.532 L 259.744 514.663 L 272.534 514.679 L 262.249 522.281 L 266.186 534.45 z" transform="matrix(4.106327,0.000000,0.000000,4.163411,-254.4345,-1811.357)" style="font-size:12;fill:#007a3d;fill-rule:evenodd;stroke-width:.112872;fill-opacity:1" id="path583"/></svg>