<svg xmlns="http://www.w3.org/2000/svg" xmlns:svg="http://www.w3.org/2000/svg" id="svg17181" width="450" height="300" version="1.0"><rect width="360" height="240" x="125" y="437.362" transform="matrix(1.25, 0, 0, 1.25, -156.25, -546.703)" style="fill:#1eb53a;fill-opacity:1;fill-rule:evenodd;stroke:none;stroke-width:1pt;stroke-linecap:butt;stroke-linejoin:miter;stroke-opacity:1" id="rect17190"/><path d="M 125,677.36218 L 485,437.36218 L 485,677.36218 L 125,677.36218 z" transform="matrix(1.25, 0, 0, 1.25, -156.25, -546.703)" style="fill:#00a3dd;fill-opacity:1;fill-rule:evenodd;stroke:none;stroke-width:1pt;stroke-linecap:butt;stroke-linejoin:miter;stroke-opacity:1" id="path17812"/><path d="M 485,437.36218 L 399.36875,437.36218 L 125,620.27468 L 125,677.36218 L 210.63125,677.36218 L 485,494.44968 L 485,437.36218 z" transform="matrix(1.25, 0, 0, 1.25, -156.25, -546.703)" style="fill:#fcd116;fill-opacity:1;fill-rule:evenodd;stroke:none;stroke-width:1pt;stroke-linecap:butt;stroke-linejoin:miter;stroke-opacity:1" id="path22164"/><path d="M 485,437.36218 L 426.41,437.36218 L 125,638.30218 L 125,677.36218 L 183.59,677.36218 L 485,476.42218 L 485,437.36218 z" transform="matrix(1.25, 0, 0, 1.25, -156.25, -546.703)" style="fill:#000;fill-opacity:1;fill-rule:evenodd;stroke:none;stroke-width:1pt;stroke-linecap:butt;stroke-linejoin:miter;stroke-opacity:1" id="path19056"/></svg>