<svg xmlns="http://www.w3.org/2000/svg" xmlns:svg="http://www.w3.org/2000/svg" id="svg1" width="1000" height="666.662" version="1.1"><metadata id="metadata12"/><g id="g578" transform="scale(16.66667,22.22208)"><rect style="font-size:12px;fill:#006;stroke-width:1pt" id="rect124" width="60" height="30" x="0" y="0"/><g id="g584" style="font-size:12px"><path style="font-size:12px;fill:#fff;stroke-width:1pt" id="path146" d="M 0,0 V 3.3541 L 53.2918,30 H 60 V 26.6459 L 6.7082,0 Z M 60,0 V 3.35405 L 6.7082,30 H 0 V 26.6458 L 53.2918,0 Z"/><path style="font-size:12px;fill:#fff;stroke-width:1pt" id="path136" d="M 25,0 V 30 H 35 V 0 Z M 0,10 V 20 H 60 V 10 Z"/><path style="font-size:12px;fill:#c00;stroke-width:1pt" id="path141" d="m 0,12 v 6 H 60 V 12 Z M 27,0 v 30 h 6 V 0 Z"/><path style="font-size:12px;fill:#c00;stroke-width:1pt" id="path150" d="M 0,30 20,20 h 4.4721 L 4.47214,30 Z M 0,0 20,10 H 15.5279 L 0,2.23607 Z m 35.5279,10 20,-10 H 60 L 40,10 Z M 60,30 40,20 h 4.4721 L 60,27.7639 Z"/></g></g></svg>