<svg xmlns="http://www.w3.org/2000/svg" xmlns:svg="http://www.w3.org/2000/svg" xmlns:xlink="http://www.w3.org/1999/xlink" id="svg2482" width="1062.992" height="708.661" version="1.0" viewBox="0 0 500 250"><metadata id="metadata2527"/><rect id="blue_stripe" width="500" height="106.897" x="0" y="-41.667" style="fill:#0099b5"/><rect id="upper_red_stripe" width="500" height="6.681" x="0" y="65.23" style="fill:#ce1126"/><rect id="lower_red_stripe" width="500" height="6.681" x="0" y="178.808" style="fill:#ce1126"/><rect id="green_stripe" width="500" height="106.897" x="0" y="185.489" style="fill:#1eb53a"/><defs id="defs2489"><g id="star" style="fill:#fff"><g id="cone"><polygon id="triangle" points="0 0 0 1 .5 1 0 0" transform="matrix(0.9510565,0.309017,-0.309017,0.9510565,0,-1)"/><use id="use2494" width="500" height="250" x="0" y="0" transform="scale(-1,1)" xlink:href="#triangle"/></g><use id="use2496" width="500" height="250" x="0" y="0" transform="matrix(0.309017,0.9510565,-0.9510565,0.309017,0,0)" xlink:href="#cone"/><use id="use2498" width="500" height="250" x="0" y="0" transform="matrix(0.309017,-0.9510565,0.9510565,0.309017,0,0)" xlink:href="#cone"/><use id="use2500" width="500" height="250" x="0" y="0" transform="matrix(-0.809017,0.5877853,-0.5877853,-0.809017,0,0)" xlink:href="#cone"/><use id="use2502" width="500" height="250" x="0" y="0" transform="matrix(-0.809017,-0.5877853,0.5877853,-0.809017,0,0)" xlink:href="#cone"/></g></defs><path style="fill:#fff" id="circle2504" d="M 178.4375 41.84375 C 135.65116 41.84375 100.90625 76.588662 100.90625 119.375 C 100.90625 162.16134 135.65116 196.875 178.4375 196.875 C 194.65996 196.875 209.70478 191.87427 222.15625 183.34375 C 219.26474 183.74019 216.31234 183.96875 213.3125 183.96875 C 177.65722 183.96875 148.71875 155.03028 148.71875 119.375 C 148.71875 83.719719 177.65722 54.78125 213.3125 54.78125 C 216.31234 54.78125 219.26474 54.978556 222.15625 55.375 C 209.70478 46.84448 194.65996 41.84375 178.4375 41.84375 z" transform="matrix(0.4703704,0,0,0.4703704,0,-41.666667)"/><g id="stars" transform="matrix(1.2153036,0,0,1.2153036,11.009186,-34.134498)"><g id="upper_row_of_three_stars"><use id="use2510" width="500" height="250" x="0" y="0" transform="matrix(6,0,0,6,136,16)" xlink:href="#star"/><use id="use2512" width="500" height="250" x="0" y="0" transform="matrix(6,0,0,6,160,16)" xlink:href="#star"/><use id="use2514" width="500" height="250" x="0" y="0" transform="matrix(6,0,0,6,184,16)" xlink:href="#star"/></g><g id="middle_row_of_four_stars"><use id="use2517" width="500" height="250" x="0" y="0" transform="matrix(6,0,0,6,112,40)" xlink:href="#star"/><use id="use2519" width="500" height="250" x="0" y="0" transform="translate(0,24)" xlink:href="#upper_row_of_three_stars"/></g><g id="lower_row_of_five_stars"><use id="use2522" width="500" height="250" x="0" y="0" transform="matrix(6,0,0,6,88,64)" xlink:href="#star"/><use id="use2524" width="500" height="250" x="0" y="0" transform="translate(0,24)" xlink:href="#middle_row_of_four_stars"/></g></g><rect style="fill:#fff;fill-opacity:1" id="rect2996" width="500" height="106.897" x="0" y="72.163"/></svg>