<svg xmlns="http://www.w3.org/2000/svg" xmlns:svg="http://www.w3.org/2000/svg" xmlns:xlink="http://www.w3.org/1999/xlink" id="svg2384" width="666" height="444" version="1.0"><metadata id="metadata44"/><g id="layer1" transform="scale(1.0341615,1)"><rect id="rect2394" width="644" height="444" x="0" y="0" style="fill:#e70013;stroke:none"/><g id="g2472"><rect id="rect2396" width="288" height="272" x="178" y="86" style="fill:#fff;stroke:none"/><rect id="rect2398" width="36" height="34" x="178" y="86" style="fill:#000;stroke:none"/><use id="use2400" width="644" height="444" x="0" y="0" transform="translate(72,0)" xlink:href="#rect2398"/><use id="use2402" width="644" height="444" x="0" y="0" transform="translate(144,0)" xlink:href="#rect2398"/><use id="use2404" width="644" height="444" x="0" y="0" transform="translate(216,0)" xlink:href="#rect2398"/><use id="use2406" width="644" height="444" x="0" y="0" transform="translate(36,34)" xlink:href="#rect2398"/><use id="use2408" width="644" height="444" x="0" y="0" transform="translate(108,34)" xlink:href="#rect2398"/><use id="use2410" width="644" height="444" x="0" y="0" transform="translate(180,34)" xlink:href="#rect2398"/><use id="use2412" width="644" height="444" x="0" y="0" transform="translate(252,34)" xlink:href="#rect2398"/><use id="use2416" width="644" height="444" x="0" y="0" transform="translate(72,0)" xlink:href="#rect2398"/><use id="use2418" width="644" height="444" x="0" y="0" transform="translate(144,0)" xlink:href="#rect2398"/><use id="use2420" width="644" height="444" x="0" y="0" transform="translate(216,0)" xlink:href="#rect2398"/><use id="use2422" width="644" height="444" x="0" y="0" transform="translate(0,68)" xlink:href="#rect2398"/><use id="use2426" width="644" height="444" x="0" y="0" transform="translate(72,68)" xlink:href="#rect2398"/><use id="use2428" width="644" height="444" x="0" y="0" transform="translate(144,68)" xlink:href="#rect2398"/><use id="use2430" width="644" height="444" x="0" y="0" transform="translate(216,68)" xlink:href="#rect2398"/><use id="use2432" width="644" height="444" x="0" y="0" transform="translate(36,102)" xlink:href="#rect2398"/><use id="use2434" width="644" height="444" x="0" y="0" transform="translate(108,102)" xlink:href="#rect2398"/><use id="use2436" width="644" height="444" x="0" y="0" transform="translate(180,102)" xlink:href="#rect2398"/><use id="use2438" width="644" height="444" x="0" y="0" transform="translate(252,102)" xlink:href="#rect2398"/><use id="use2440" width="644" height="444" x="0" y="0" transform="translate(0,136)" xlink:href="#rect2398"/><use id="use2442" width="644" height="444" x="0" y="0" transform="translate(72,136)" xlink:href="#rect2398"/><use id="use2444" width="644" height="444" x="0" y="0" transform="translate(144,136)" xlink:href="#rect2398"/><use id="use2446" width="644" height="444" x="0" y="0" transform="translate(216,136)" xlink:href="#rect2398"/><use id="use2448" width="644" height="444" x="0" y="0" transform="translate(36,170)" xlink:href="#rect2398"/><use id="use2450" width="644" height="444" x="0" y="0" transform="translate(108,170)" xlink:href="#rect2398"/><use id="use2452" width="644" height="444" x="0" y="0" transform="translate(180,170)" xlink:href="#rect2398"/><use id="use2454" width="644" height="444" x="0" y="0" transform="translate(252,170)" xlink:href="#rect2398"/><use id="use2456" width="644" height="444" x="0" y="0" transform="translate(0,204)" xlink:href="#rect2398"/><use id="use2458" width="644" height="444" x="0" y="0" transform="translate(72,204)" xlink:href="#rect2398"/><use id="use2460" width="644" height="444" x="0" y="0" transform="translate(144,204)" xlink:href="#rect2398"/><use id="use2462" width="644" height="444" x="0" y="0" transform="translate(216,204)" xlink:href="#rect2398"/><use id="use2464" width="644" height="444" x="0" y="0" transform="translate(36,238)" xlink:href="#rect2398"/><use id="use2466" width="644" height="444" x="0" y="0" transform="translate(108,238)" xlink:href="#rect2398"/><use id="use2468" width="644" height="444" x="0" y="0" transform="translate(180,238)" xlink:href="#rect2398"/><use id="use2470" width="644" height="444" x="0" y="0" transform="translate(252,238)" xlink:href="#rect2398"/></g></g></svg>