<svg xmlns="http://www.w3.org/2000/svg" id="Berber_flag" width="900" height="600"><g><rect width="900" height="200" fill="#09C"/><rect width="900" height="200" y="200" fill="#9C3"/><rect width="900" height="200" y="400" fill="#FFE513"/><polygon fill="#C03" points="429.675 477.64 458.13 507.721 466.26 97.969 450 80.897"/><path fill="#C03" d="M657.315 515.851l54.4711 -23.5769c-104.877,-104.064 -165.039,-142.275 -264.225,-144.714 -126.015,8.94308 -208.128,59.3489 -243.087,159.348l24.3898 -4.87785c99.9991,-123.576 156.909,-109.755 220.323,-117.072 67.4791,2.43908 136.584,46.3409 208.128,130.893l0 -0.000307692z"/><path fill="#C03" d="M289.839 93.0917l-52.032 13.8209c50.4058,89.4298 122.763,143.901 215.445,147.966 122.763,0.812923 193.494,-82.1129 242.274,-156.909l-41.4631 12.1951c-78.8609,111.381 -164.226,115.446 -202.437,109.755 -64.2271,-4.87785 -117.072,-57.7231 -161.787,-126.828z"/></g></svg>