<svg xmlns="http://www.w3.org/2000/svg" xmlns:svg="http://www.w3.org/2000/svg" id="svg2" width="300" height="200" version="1.1"><metadata id="metadata7"/><g id="layer2" style="display:inline"><rect style="fill:#000;fill-opacity:1;stroke:none;display:inline" id="rect3789" width="300" height="200" x="0" y="0"/><g id="g3792"><path id="path3009" d="m 63,69 c 8.626921,0.386328 15.755114,2.770959 23,5 7.547994,2.986288 14.73666,6.075239 19,10 1.30519,1.492964 1.83588,3.212463 2,5 0.1554,1.692554 -0.3871,3.414678 -1,5 -0.70087,1.812885 -1.63818,3.613196 -3,5 -2.20331,2.24373 -4.779966,4.27754 -8,5 -19.901325,4.46512 -29,-8 -29,-8 -3.730528,-4.933981 -4.355033,-10.353967 -5,-16 0.315906,-3.666667 0.121555,-7.333333 2,-11 z" style="fill:#fff;fill-opacity:1;stroke:none"/><path id="path3779" d="m 84,96 c -5,-5 -8.711562,-9.638607 -9,-17 0,-7 4,-12 9,-17 5,5 8,10 8,17 0,7 -3,12 -8,17 z" style="fill:#000;fill-opacity:1;stroke:none"/></g><g id="g3796" transform="matrix(-1,0,0,1,300,0)"><path style="fill:#fff;fill-opacity:1;stroke:none" id="path3798" d="m 63,69 c 8.626921,0.386328 15.755114,2.770959 23,5 7.547994,2.986288 14.73666,6.075239 19,10 1.30519,1.492964 1.83588,3.212463 2,5 0.1554,1.692554 -0.3871,3.414678 -1,5 -0.70087,1.812885 -1.63818,3.613196 -3,5 -2.20331,2.24373 -4.779966,4.27754 -8,5 -19.901325,4.46512 -29,-8 -29,-8 -3.730528,-4.933981 -4.355033,-10.353967 -5,-16 0.315906,-3.666667 0.121555,-7.333333 2,-11 z"/><path style="fill:#000;fill-opacity:1;stroke:none" id="path3800" d="m 84,96 c -5,-5 -8.711562,-9.638607 -9,-17 0,-7 4,-12 9,-17 5,5 8,10 8,17 0,7 -3,12 -8,17 z"/></g></g></svg>