<svg xmlns="http://www.w3.org/2000/svg" xmlns:svg="http://www.w3.org/2000/svg" id="svg548" width="750" height="500" version="1.1"><metadata id="metadata3"/><rect id="rect5" width="750" height="500" fill="#fff"/><rect id="rect7" width="750" height="212" fill="#000"/><rect id="rect9" width="500" height="111.156" x="138.842" y="198.472" fill="#0061ff"/><path id="path11" d="m 750,-3e-5 0,500 -375,0 375,-500 z" style="fill:#e20000"/><path id="path13" d="m 0,1e-5 0,500 375,0 L 0,1e-5 z" style="fill:#e20000"/><path id="path15" fill="#ffd600" d="M 550.62766,198.5747 475.6439,179.66591 539.4361,131.83783 461.0952,142.96047 501.38524,75.112502 431.99672,115.15442 444.30732,36.18307 397.303,98.47014 378.27702,26.172592 357.01296,100.69467 310.00755,37.295333 323.4372,118.49196 254.04976,76.224766 l 40.29004,67.847854 -76.10281,-12.23479 62.67316,46.71593 -78.34199,20.02094 348.0595,0 z"/></svg>