<svg xmlns="http://www.w3.org/2000/svg" xmlns:svg="http://www.w3.org/2000/svg" id="svg1" width="1000" height="666.662" x="0" y="0" version="1"><metadata id="metadata3668"/><rect id="rect124" style="font-size:12px;fill:#006;stroke-width:1pt" width="1000" height="666.662" x="0" y="0"/><g style="font-size:12px" id="g584" transform="matrix(8.333333,0,0,11.11104,0,3.6621094e-5)"><path id="path146" style="fill:#fff;stroke-width:1pt" d="M 0,0 V 3.3541 L 53.2918,30 H 60 V 26.6459 L 6.7082,0 Z M 60,0 V 3.35405 L 6.7082,30 H 0 V 26.6458 L 53.2918,0 Z"/><path id="path136" style="fill:#fff;stroke-width:1pt" d="M 25,0 V 30 H 35 V 0 Z M 0,10 V 20 H 60 V 10 Z"/><path id="path141" style="fill:#c00;stroke-width:1pt" d="m 0,12 v 6 H 60 V 12 Z M 27,0 v 30 h 6 V 0 Z"/><path id="path150" style="fill:#c00;stroke-width:1pt" d="M 0,30 20,20 h 4.4721 L 4.47214,30 Z M 0,0 20,10 H 15.5279 L 0,2.23607 Z m 35.5279,10 20,-10 H 60 L 40,10 Z M 60,30 40,20 h 4.4721 L 60,27.7639 Z"/></g><polygon id="polygon589" style="font-size:12px;fill:#fff;fill-rule:evenodd;stroke-width:1pt" points="37.036 39.389 33.9 44.11 38.774 47.003 33.127 47.494 33.905 53.109 30 49 26.095 53.109 26.873 47.494 21.226 47.003 26.1 44.11 22.963 39.389 28.265 41.396 30 36 31.735 41.396" transform="matrix(9.829732,0,0,9.829732,-41.76197,44.618209)"/><g style="font-size:12px" id="g596" transform="matrix(8.960134,0,0,8.960134,-54.39111,66.808009)"><polygon id="polygon590" style="fill:#fff;fill-rule:evenodd;stroke-width:1pt" points="93.351 47.328 91.857 49.576 94.178 50.954 91.489 51.188 91.859 53.861 90 51.905 88.141 53.861 88.511 51.188 85.822 50.954 88.143 49.576 86.649 47.328 89.174 48.284 90 45.714 90.826 48.284"/><polygon id="polygon592" style="fill:#fff;fill-rule:evenodd;stroke-width:1pt" points="93.351 7.328 91.857 9.576 94.178 10.954 91.489 11.188 91.859 13.861 90 11.905 88.141 13.861 88.511 11.188 85.822 10.954 88.143 9.576 86.649 7.328 89.174 8.284 90 5.714 90.826 8.284"/><polygon id="polygon593" style="fill:#fff;fill-rule:evenodd;stroke-width:1pt" points="78.351 23.578 76.857 25.826 79.178 27.204 76.489 27.438 76.859 30.111 75 28.155 73.141 30.111 73.511 27.438 70.822 27.204 73.143 25.826 71.649 23.578 74.174 24.534 75 21.964 75.826 24.534"/><polygon id="polygon594" style="fill:#fff;fill-rule:evenodd;stroke-width:1pt" points="106.684 19.578 105.19 21.826 107.512 23.204 104.823 23.438 105.193 26.111 103.333 24.155 101.474 26.111 101.844 23.438 99.155 23.204 101.476 21.826 99.983 19.578 102.507 20.534 103.333 17.964 104.16 20.534"/><polygon id="polygon595" style="fill:#fff;fill-rule:evenodd;stroke-width:1pt" points="98.378 31.727 97.057 32.843 97.469 34.523 96 33.611 94.531 34.523 94.943 32.843 93.622 31.727 95.347 31.601 96 30 96.653 31.601"/></g></svg>