<svg xmlns="http://www.w3.org/2000/svg" xmlns:svg="http://www.w3.org/2000/svg" id="svg12" width="450" height="300" version="1.1"><metadata id="metadata18"/><rect id="rect2" width="450" height="300" x="0" y="0" fill="#4a0"/><path id="path4" fill="#000" d="m 19,239.54545 12.727272,-9.09091 56.363636,-9.09091 56.363632,-32.72727 1.81819,-5.45455 -5.45455,-7.27272 -7.27273,-5.45455 -27.27272,-20 -7.272731,-10.90909 -14.545454,-3.63636 -16.363637,1.81818 -36.363636,-1.81818 -7.272727,-5.45455 -1.818182,-3.63636 v -5.45455 l 7.272728,-3.63636 18.181818,-3.63636 L 62.636363,105 l 9.090909,-1.81818 1.818182,-9.090913 7.272727,1.818182 7.272727,7.272731 L 119,105 l 34.54545,14.54545 h 30.90909 L 180.81818,105 h -5.45455 v 5.45454 h -7.27272 L 162.63636,105 l -1.81818,-5.454548 3.63636,-3.636363 10.90909,-7.272728 20,-9.090909 L 199,64.999998 211.72727,61.363634 H 219 l 3.63636,1.818182 v 12.727273 l 21.81818,-20 12.72728,5.454545 5.45454,9.090909 1.81818,18.181818 18.18182,1.818182 -18.18182,1.818182 -1.81818,18.181815 -5.45454,9.09091 -12.72728,5.45455 -21.81818,-20 1.81818,20 12.72728,1.81818 34.54545,-1.81818 25.45455,1.81818 9.0909,5.45454 H 319 l 18.18181,-5.45454 29.09091,9.09091 32.72728,-1.81818 -5.45455,3.63636 -21.81818,5.45455 -9.09091,5.45454 -34.54545,1.81818 L 319,143.18182 h -7.27273 l 1.81818,7.27272 v 20 l 12.72727,7.27273 L 339,190.45454 357.18181,194.09091 379,208.63636 431.72727,217.72727 439,226.81818 h -34.54546 l -16.36363,-3.63637 -12.72728,-1.81818 -7.27272,-5.45454 -45.45455,-3.63637 -40,-10.90909 -10.90909,-7.27272 -25.45455,3.63636 h -29.0909 l -21.81819,-5.45455 h -21.81818 l -3.63636,5.45455 -34.54545,16.36364 -20,1.81818 -23.636368,10.90909 -27.272727,9.09091 -27.272727,1.81818 L 26.272727,245 19,243.18181 Z"/><g id="g10" fill="#4a0" transform="matrix(1.8181818,0,0,-1.8181818,-73.727272,501.36363)"><path id="path6" fill="#4a0" d="m 163,220 v 5 h 21 l -1,-9 -3,-5 -5,-2 z"/><path id="path8" fill="#4a0" d="m 163,227 v 5 l 12,11 5,-2 3,-5 1,-9 z"/></g></svg>