<svg xmlns="http://www.w3.org/2000/svg" xmlns:svg="http://www.w3.org/2000/svg" id="svg609" width="750" height="500" x="0" y="0" version="1.0"><metadata id="metadata3073"/><rect width="750" height="500" x="0" y="0" style="font-size:12px;fill:#009;fill-rule:evenodd;stroke-width:1pt" id="rect614"/><path d="m 167.44612,0 500,500 V 0 Z" style="font-size:12px;fill:#fc0;fill-rule:evenodd;stroke-width:1pt" id="path615"/><polygon points="381.84 62.857 326 22.287 270.16 62.857 291.489 -2.787 235.65 -43.357 304.671 -43.357 326 -109 326 -109 347.329 -43.357 416.35 -43.357 360.511 -2.787" transform="matrix(0.5,0,0,0.5,-27.325,63.880768)" style="font-size:12px;fill:#fff;fill-rule:evenodd;stroke-width:1pt" id="polygon622"/><polygon points="381.84 62.857 326 22.287 270.16 62.857 291.489 -2.787 235.65 -43.357 304.671 -43.357 326 -109 326 -109 347.329 -43.357 416.35 -43.357 360.511 -2.787" transform="matrix(0.5,0,0,0.5,35.175,126.38077)" style="font-size:12px;fill:#fff;fill-rule:evenodd;stroke-width:1pt" id="polygon616"/><polygon points="381.84 62.857 326 22.287 270.16 62.857 291.489 -2.787 235.65 -43.357 304.671 -43.357 326 -109 326 -109 347.329 -43.357 416.35 -43.357 360.511 -2.787" transform="matrix(0.5,0,0,0.5,97.675,188.88077)" style="font-size:12px;fill:#fff;fill-rule:evenodd;stroke-width:1pt" id="polygon623"/><polygon points="381.84 62.857 326 22.287 270.16 62.857 291.489 -2.787 235.65 -43.357 304.671 -43.357 326 -109 326 -109 347.329 -43.357 416.35 -43.357 360.511 -2.787" transform="matrix(0.5,0,0,0.5,160.175,251.38077)" style="font-size:12px;fill:#fff;fill-rule:evenodd;stroke-width:1pt" id="polygon624"/><polygon points="381.84 62.857 326 22.287 270.16 62.857 291.489 -2.787 235.65 -43.357 304.671 -43.357 326 -109 326 -109 347.329 -43.357 416.35 -43.357 360.511 -2.787" transform="matrix(0.5,0,0,0.5,222.675,313.88077)" style="font-size:12px;fill:#fff;fill-rule:evenodd;stroke-width:1pt" id="polygon625"/><polygon points="381.84 62.857 326 22.287 270.16 62.857 291.489 -2.787 235.65 -43.357 304.671 -43.357 326 -109 326 -109 347.329 -43.357 416.35 -43.357 360.511 -2.787" transform="matrix(0.5,0,0,0.5,285.175,376.38077)" style="font-size:12px;fill:#fff;fill-rule:evenodd;stroke-width:1pt" id="polygon626"/><polygon points="381.84 62.857 326 22.287 270.16 62.857 291.489 -2.787 235.65 -43.357 304.671 -43.357 326 -109 326 -109 347.329 -43.357 416.35 -43.357 360.511 -2.787" transform="matrix(0.5,0,0,0.5,347.675,438.88077)" style="font-size:12px;fill:#fff;fill-rule:evenodd;stroke-width:1pt" id="polygon627"/></svg>