<svg xmlns="http://www.w3.org/2000/svg" xmlns:svg="http://www.w3.org/2000/svg" id="svg2" width="600" height="400" version="1.0"><metadata id="metadata55"/><path style="fill:#0ff;stroke:none" id="path4" d="M 0,4.5297099e-14 L 0,400 L 600,400 L 600,4.5297099e-14 L 0,4.5297099e-14 z"/><g id="g2393" transform="matrix(0.837209, 0, 0, 0.837209, -253.458, 346.111)"><path id="path6" d="M 381.79755,-365.63234 L 381.79755,-342.63234 L 692.79755,-342.63234 C 691.97155,-351.63874 683.31355,-351.79764 675.79755,-353.42244 C 658.13055,-357.24174 639.80455,-364.16144 621.79755,-365.63234 L 621.79755,-352.63234 L 605.79755,-352.63234 L 605.79755,-365.63234 L 541.79755,-365.63234 L 541.79755,-352.63234 L 525.79755,-352.63234 L 525.79755,-365.63234 L 457.79755,-365.63234 L 457.79755,-352.63234 L 441.79755,-352.63234 L 441.79755,-365.63234 L 381.79755,-365.63234 z" style="fill:silver;stroke:none"/><path id="path8" d="M 441.79755,-365.63234 L 441.79755,-352.63234 L 457.79755,-352.63234 L 457.79755,-365.63234 L 441.79755,-365.63234 M 525.79755,-365.63234 L 525.79755,-352.63234 L 541.79755,-352.63234 L 541.79755,-365.63234 L 525.79755,-365.63234 M 605.79755,-365.63234 L 605.79755,-352.63234 L 621.79755,-352.63234 L 621.79755,-365.63234 L 605.79755,-365.63234 M 376.79755,-342.63234 L 376.79755,-329.63234 L 694.79755,-329.63234 L 692.05555,-341.60434 L 672.79755,-342.63234 L 619.79755,-342.63234 L 376.79755,-342.63234 z" style="fill:gray;stroke:none"/><path id="path10" d="M 376.79755,-329.63234 L 376.79755,-257.63234 L 672.79755,-257.63234 C 672.79755,-272.58734 678.75455,-302.68534 665.79755,-312.63234 L 665.79755,-263.63234 L 648.79755,-263.63234 L 648.79755,-322.63234 L 657.79755,-322.63234 C 652.84255,-331.10334 645.55255,-329.63234 636.79755,-329.63234 L 588.79755,-329.63234 L 376.79755,-329.63234 z" style="fill:silver;stroke:none"/><path id="path12" d="M 402.79755,-322.63234 L 402.79755,-263.63234 L 419.79755,-263.63234 L 419.79755,-322.63234 L 402.79755,-322.63234 M 484.79755,-322.63234 L 484.79755,-263.63234 L 501.79755,-263.63234 L 501.79755,-322.63234 L 484.79755,-322.63234 M 566.79755,-322.63234 L 566.79755,-263.63234 L 583.79755,-263.63234 L 583.79755,-322.63234 L 566.79755,-322.63234 M 648.79755,-322.63234 L 648.79755,-263.63234 L 665.79755,-263.63234 C 665.79755,-281.63134 674.41655,-322.62934 648.79755,-322.63234 M 386.79755,-257.63234 L 386.79755,-215.63234 L 686.79755,-215.63234 L 686.79755,-257.63234 L 386.79755,-257.63234 z" style="fill:gray;stroke:none"/><path id="path14" d="M 383.79755,-215.63234 L 394.58455,-196.0245 L 393.81225,-163.08332 L 391.83695,-101.12254 L 386.79755,64.367665 L 455.79755,64.367665 L 450.75855,-101.12254 L 448.78285,-163.08332 L 448.01055,-196.0245 L 458.79755,-215.63234 L 383.79755,-215.63234 M 628.79755,-215.63234 L 639.58455,-196.0245 L 638.81255,-163.08332 L 636.83655,-101.12254 L 631.79755,64.367665 L 700.79755,64.367665 L 695.75855,-101.12254 L 693.78255,-163.08332 L 693.01055,-196.0245 L 703.79755,-215.63234 L 628.79755,-215.63234 z" style="fill:silver;stroke:none"/><path id="path32" d="M 880.79755,-54.063705 L 876.79755,64.367665 L 945.79755,64.367665 L 941.79755,-54.848025 L 880.79755,-54.063705 z" style="fill:silver;stroke:none"/></g></svg>