<svg xmlns="http://www.w3.org/2000/svg" xmlns:svg="http://www.w3.org/2000/svg" id="svg1350" width="324" height="216" version="1.0"><rect id="rect1139" height="216" style="font-size:12px;fill:#009;fill-rule:evenodd" width="324" x="-324" y="-.074" transform="scale(-1,1)"/><path id="path1121" d="M 277.04445,8.5487173e-015 L 324,0.09871048 L 323.89065,29.419654 L 277.04445,8.5487173e-015 L 277.04445,8.5487173e-015 L 277.04445,8.5487173e-015 L 277.04445,8.5487173e-015 L 277.04445,8.5487173e-015 L 277.04445,8.5487173e-015 L 277.04445,8.5487173e-015 z" style="font-size:12px;fill:gold;fill-rule:evenodd;stroke-width:1;stroke-opacity:.54779998"/><path id="path1122" d="M 225.69121,0.03810342 L 323.89913,58.397316 L 323.99154,87.700041 L 181.28215,0.03143457 L 225.69121,0.03810342 L 225.69121,0.03810342 L 225.69121,0.03810342 L 225.69121,0.03810342 L 225.69121,0.03810342 L 225.69121,0.03810342 L 225.69121,0.03810342 L 225.69121,0.03810342 L 225.69121,0.03810342 z" style="font-size:12px;fill:gold;fill-rule:evenodd;stroke-width:1;stroke-opacity:.54779998"/><path id="path1142" d="M 0.02096041,158.23364 L 93.126628,216 L 49.287819,215.90129 L 0,185.34831 L 0.02096041,158.23364 L 0.02096041,158.23364 L 0.02096041,158.23364 L 0.02096041,158.23364 L 0.02096041,158.23364 L 0.02096041,158.23364 L 0.02096041,158.23364 z" style="font-size:12px;fill:gold;fill-rule:evenodd;stroke-width:1;stroke-opacity:.54779998"/><path id="path2321" d="M 0.020961,99.34286 L 190.03534,217 L 146.19652,216.90129 L 0,126.45753 L 0.020961,99.34286 L 0.020961,99.34286 L 0.020961,99.34286 L 0.020961,99.34286 L 0.020961,99.34286 L 0.020961,99.34286 L 0.020961,99.34286 z" style="font-size:12px;fill:gold;fill-rule:evenodd;stroke-width:1;stroke-opacity:.54779998"/><path id="path2331" d="M 0.02096,40.359739 L 284.23541,217.30575 L 240.3966,217.20704 L 0,67.474412 L 0.02096,40.359739 L 0.02096,40.359739 L 0.02096,40.359739 L 0.02096,40.359739 L 0.02096,40.359739 L 0.02096,40.359739 L 0.02096,40.359739 z" style="font-size:12px;fill:gold;fill-rule:evenodd;stroke-width:1;stroke-opacity:.54779998"/><path id="path2325" d="M 38.723892,2.3598751 314.86832,177.7236 316.96266,202.2927 0,6.082666 38.723892,2.3598751 z" style="font-size:12px;fill:gold;fill-rule:evenodd;stroke-width:1;stroke-opacity:.54779998"/><path id="path2329" d="M 127.55252,-0.27668933 L 323.87298,118.27427 L 323.96539,147.577 L 83.14346,-0.28335833 L 127.55252,-0.27668933 L 127.55252,-0.27668933 L 127.55252,-0.27668933 L 127.55252,-0.27668933 L 127.55252,-0.27668933 L 127.55252,-0.27668933 L 127.55252,-0.27668933 L 127.55252,-0.27668933 L 127.55252,-0.27668933 z" style="font-size:12px;fill:gold;fill-rule:evenodd;stroke-width:1;stroke-opacity:.54779998"/><path id="path2327" d="M 225.66494,59.914766 L 323.87259,118.27398 L 323.965,147.57671 L 181.256,59.908097 L 225.66494,59.914766 L 225.66494,59.914766 L 225.66494,59.914766 L 225.66494,59.914766 L 225.66494,59.914766 L 225.66494,59.914766 L 225.66494,59.914766 L 225.66494,59.914766 L 225.66494,59.914766 z" style="font-size:12px;fill:gold;fill-rule:evenodd;stroke-width:1;stroke-opacity:.54779998"/><path style="font-size:12px;fill:red;fill-opacity:1;fill-rule:evenodd;stroke:none" id="rect2721" d="M 0 0 L 0 216 L 324 216 L 324 0 L 0 0 z M 32.5 32.5 L 291.5 32.5 L 291.5 183.5 L 32.5 183.5 L 32.5 32.5 z"/></svg>