<svg xmlns="http://www.w3.org/2000/svg" xmlns:svg="http://www.w3.org/2000/svg" id="svg2" width="324" height="216" version="1.1"><g id="g2417"><g id="g2388" transform="translate(1.5732842,-1.3110701)"><rect style="opacity:1;fill:#a00;fill-opacity:1;fill-rule:nonzero;stroke:none;stroke-width:50;stroke-miterlimit:4;stroke-dasharray:none;stroke-opacity:1" id="rect2438" width="326" height="216" x="-1.573" y="1.311"/><rect style="opacity:1;fill:green;fill-opacity:1;fill-rule:nonzero;stroke:none;stroke-width:50;stroke-miterlimit:4;stroke-dasharray:none;stroke-opacity:1" id="rect2440" width="326" height="108" x="-1.573" y="109.311"/><g id="g2430" transform="matrix(0.7110137,-0.7031781,0.7031781,0.7110137,-34.601833,130.19684)"><g id="g2405" transform="matrix(-1,0,0,1,339.79999,-10.056508)"><g id="g2411" transform="matrix(0,-1,1,0,54.072972,259.53877)"><path style="fill:#000;stroke:none" id="path2407" d="M 121.5139,40.631308 L 121.5139,161.63131 L 116.5139,161.63131 L 116.5139,171.63131 L 119.5139,171.63131 C 120.1329,176.70831 121.82028,185.06755 121.07228,190.31255 C 120.47028,194.53855 116.9149,194.81531 119.1169,199.31331 C 120.9729,203.10331 135.0559,203.10331 136.9109,199.31331 C 138.8459,195.35931 135.93609,194.30655 135.49409,190.35155 C 134.90109,185.05355 135.4008,177.50636 137.5139,171.63131 L 140.5139,171.63131 L 140.5139,161.63131 L 130.5139,161.63131 L 136.5139,40.631308 L 121.5139,40.631308 z"/><path style="fill:#fff;stroke:none" id="path2409" d="M 123.5139,42.631308 L 123.5139,161.63131 L 128.5139,161.63131 L 134.5139,42.631308 L 123.5139,42.631308 M 118.5139,163.63131 L 118.5139,169.63131 C 124.9959,166.88531 132.0319,166.88531 138.5139,169.63131 L 138.5139,163.63131 L 118.5139,163.63131 M 121.5139,169.63131 L 121.5139,174.63131 C 127.3989,172.33531 129.6289,172.33531 135.5139,174.63131 L 135.5139,169.63131 L 121.5139,169.63131 M 123.5139,190.63131 L 133.5139,190.63131 C 133.5139,186.58231 135.0809,174.26731 128.5139,174.26731 C 121.9469,174.26731 123.5139,186.58231 123.5139,190.63131 M 122.1219,193.65831 C 118.17823,199.70079 131.23343,202.09567 133.9059,198.60431 C 139.78409,190.92493 124.35642,190.45488 122.1219,193.65831 z"/></g></g><path id="path6" d="M 148,31 L 148,152 L 143,152 L 143,162 L 146,162 C 146.619,167.077 148.30638,175.43624 147.55838,180.68124 C 146.95638,184.90724 143.401,185.184 145.603,189.682 C 147.459,193.472 161.542,193.472 163.397,189.682 C 165.332,185.728 162.42219,184.67524 161.98019,180.72024 C 161.38719,175.42224 161.8869,167.87505 164,162 L 167,162 L 167,152 L 157,152 L 163,31 L 148,31 z" style="fill:#000;stroke:none"/><path id="path8" d="M 150,33 L 150,152 L 155,152 L 161,33 L 150,33 M 145,154 L 145,160 C 151.482,157.254 158.518,157.254 165,160 L 165,154 L 145,154 M 148,160 L 148,165 C 153.885,162.704 156.115,162.704 162,165 L 162,160 L 148,160 M 150,181 L 160,181 C 160,176.951 161.567,164.636 155,164.636 C 148.433,164.636 150,176.951 150,181 M 148.608,184.027 C 144.66433,190.06948 157.71953,192.46436 160.392,188.973 C 166.27019,181.29362 150.84252,180.82357 148.608,184.027 z" style="fill:#fff;stroke:none"/></g></g></g></svg>