<svg xmlns="http://www.w3.org/2000/svg" xmlns:svg="http://www.w3.org/2000/svg" id="svg2" width="270" height="180" version="1.0" viewBox="-10 -10 290 290"><metadata id="metadata18"/><rect style="opacity:1;fill:#fff;fill-opacity:1" id="rect2382" width="435" height="290" x="-82.5" y="-10"/><g id="g6"><path id="path8" fill="#939393" d="M269.291,188.191c-24.384-9.216-65.552-23.604-109.82-28.814c5.226,44.238,19.621,85.383,28.837,109.752 H80.984c9.215-24.369,23.619-65.514,28.837-109.752C65.548,164.588,24.384,178.976,0,188.191V80.941 c24.384,9.208,65.548,23.596,109.821,28.81C104.603,65.502,90.199,24.368,80.984,0h107.324 c-9.216,24.368-23.611,65.502-28.837,109.751c44.269-5.214,85.437-19.602,109.82-28.81V188.191" style="fill:red"/></g></svg>