<svg xmlns="http://www.w3.org/2000/svg" xmlns:svg="http://www.w3.org/2000/svg" id="svg52" width="648" height="432" version="1.0"><metadata id="metadata2"/><rect id="rect4" width="648" height="432" fill="#fff"/><circle id="circle6" cx="324" cy="216" r="54" fill="#820b5c"/><path id="path8" fill="#ff1600" d="M234.139 156.092a108 108 0 0 1 179.723 119.815z"/><path id="path10" fill="#0500b8" d="M234.139 156.092a108 108 0 0 0 179.723 119.815z"/><circle id="circle12" cx="279.069" cy="186.046" r="54" fill="#ff1600"/><circle id="circle14" cx="368.931" cy="245.954" r="54" fill="#0500b8"/><path id="path16" d="M461.288 129.883L476.265 119.898L503.723 161.085L488.746 171.069z"/><path id="path18" d="M428.838 81.2079L443.815 71.2232L471.273 112.41L456.296 122.394z"/><path id="path20" d="M451.304 66.2309L466.281 56.2463L526.188 146.108L511.211 156.092z"/><path id="path22" d="M506.219 99.929L521.196 89.9444L548.654 131.131L533.677 141.115z"/><path id="path24" d="M473.769 51.254L488.746 41.2694L516.204 82.4559L501.227 92.4405z"/><path id="path26" d="M219.162 81.2079L204.185 71.2232L144.277 161.085L159.254 171.069z"/><path id="path28" d="M196.696 66.2309L181.719 56.2463L121.812 146.108L136.789 156.092z"/><path id="path30" d="M174.231 51.254L159.254 41.2694L99.3464 131.131L114.323 141.115z"/><path id="path32" d="M219.162 350.792L204.185 360.777L144.277 270.915L159.254 260.931z"/><path id="path34" d="M164.246 317.094L149.269 327.079L121.812 285.892L136.789 275.908z"/><path id="path36" d="M196.696 365.769L181.719 375.754L154.262 334.567L169.239 324.583z"/><path id="path38" d="M174.231 380.746L159.254 390.731L99.3464 300.869L114.323 290.885z"/><path id="path40" d="M461.288 302.117L476.265 312.102L503.723 270.915L488.746 260.931z"/><path id="path42" d="M428.838 350.792L443.815 360.777L471.273 319.59L456.296 309.606z"/><path id="path44" d="M483.754 317.094L498.731 327.079L526.188 285.892L511.211 275.908z"/><path id="path46" d="M451.304 365.769L466.281 375.754L493.738 334.567L478.761 324.583z"/><path id="path48" d="M506.219 332.071L521.196 342.056L548.654 300.869L533.677 290.885z"/><path id="path50" d="M473.769 380.746L488.746 390.731L516.204 349.544L501.227 339.559z"/></svg>