<svg xmlns="http://www.w3.org/2000/svg" xmlns:svg="http://www.w3.org/2000/svg" id="svg2" width="300" height="200" version="1.1"><metadata id="metadata11"/><path style="fill:#db0000;stroke:none" id="path4" d="M0 0L0 200L300 200L300 0L0 0z"/><path style="fill:#fff;stroke:none" id="path6" d="M 147.059,15.401866 C 138.83,19.85354 146.135,31.585727 153.941,27.362796 C 162.17,22.911123 154.865,11.178936 147.059,15.401866 M 113,21.382331 L 137.139,63.445385 L 152,86.479915 L 189,21.382331 L 175,21.382331 C 173.455,51.523714 129.608,51.107891 127,21.382331 L 113,21.382331 M 199,27.391339 L 162,93.490424 L 238,93.490424 L 232,81.472408 C 225.673,82.545417 219.485,84.682821 213,82.837154 C 189.486,76.144121 193.584,52.855811 207,39.409354 L 207,38.407853 L 199,27.391339 M 101,28.39284 C 99.631,31.292187 96.199,35.079764 96.305,38.368394 C 96.425,42.077254 101.552,45.374897 103.387,48.426772 C 107.898,55.931522 107.643,65.071022 103.005,72.454991 C 98.437,79.729095 90.378,83.637955 82,83.459988 C 78.8113,83.392186 74.181,81.352529 71.213,82.686428 C 67.6714,84.278114 65.704,90.247062 64,93.490424 L 140,93.490424 L 103,28.39284 L 101,28.39284 M 79.0586,54.460417 C 70.8301,58.91209 78.1354,70.644277 85.9414,66.421346 C 94.1699,61.969673 86.8646,50.237486 79.0586,54.460417 M 216.059,54.460417 C 207.83,58.91209 215.135,70.644277 222.941,66.421346 C 231.17,61.969673 223.865,50.237486 216.059,54.460417 M 148.059,94.520468 C 139.956,98.905539 147.198,110.67118 154.941,106.4809 C 163.17,102.02922 155.864,90.296336 148.059,94.520468 M 65,106.50994 L 70,117.52646 C 77.9198,116.3547 83.0691,113.64364 91,116.99065 C 110.492,125.21398 110.587,147.59453 95,159.58951 L 102,171.60752 L 103,171.60752 L 139,106.50994 L 65,106.50994 M 162,106.50994 L 199,171.60752 L 201,171.60752 L 207,158.58801 C 188.905,145.78582 193.739,119.90702 216,115.05575 C 221.1,113.94409 226.203,115.99015 231,117.52646 L 237,106.50994 L 162,106.50994 M 150,112.51895 L 113,177.61653 L 128,177.61653 C 126.501,147.79383 173.657,148.25752 175,177.61653 L 189,177.61653 L 163.192,132.54897 L 150,112.51895 M 79.0586,133.57952 C 70.9564,137.96409 78.1979,149.72973 85.9414,145.53945 C 94.1697,141.08777 86.864,129.35519 79.0586,133.57952 M 217.059,133.57952 C 208.83,138.03019 216.135,149.76278 223.941,145.53945 C 232.17,141.08878 224.865,129.35619 217.059,133.57952 M 148.059,172.63807 C 139.83,177.08874 147.135,188.82133 154.941,184.598 C 163.17,180.14733 155.865,168.41474 148.059,172.63807 z"/></svg>