<svg xmlns="http://www.w3.org/2000/svg" xmlns:svg="http://www.w3.org/2000/svg" id="svg2313" width="375" height="250" version="1.1"><metadata id="metadata2318"/><g id="layer1"><rect style="fill:#000;fill-opacity:1;stroke-width:0;stroke-miterlimit:4;stroke-dasharray:none" id="rect2548" width="375" height="250" x="0" y="0"/><path style="fill:red;fill-opacity:1;stroke:none;stroke-width:.625;stroke-miterlimit:4;stroke-opacity:1" id="rect2767" d="m 0,93.571426 h 110.5 l 1.25,50.000004 H 375 V 250 H 0 Z"/><path id="path2544" style="fill:#fff;fill-opacity:1;fill-rule:evenodd;stroke:#000;stroke-width:0;stroke-linecap:butt;stroke-linejoin:miter;stroke-miterlimit:4;stroke-opacity:1" d="M 374.99986,160.00923 375,136.14438 H 111.88731 c 0,0 7.97745,-6.2819 9.68353,-8.9083 1.70609,-2.6264 3.27839,-5.65211 4.15663,-8.8199 0.87824,-3.16776 2.06774,-5.35313 -0.0169,-11.98361 -2.42408,-7.709988 -6.96795,-10.586418 -8.94432,-12.327568 -1.97636,-1.74115 -4.80191,-3.14627 -9.09688,-4.23532 -4.29495,-1.08905 -10.044749,-2.31157 -17.913276,-2.33888 C 57.630248,87.417052 0,87.788782 0,87.788782 c 0,0 1.4694e-4,22.281038 1.4694e-4,22.281038 0,0 76.76745106,0.66291 98.41803606,0.3867 l 1.759197,0.0552 c 4.64884,0.14599 7.64628,5.74525 8.42198,11.93244 0.77571,6.18719 -5.31913,12.81631 -5.31913,12.81631 0,0 -0.33246,-6.85888 -3.546105,-12.71461 -3.213654,-5.85572 -8.711008,-7.37486 -16.192552,-8.3969 -5.876635,-0.80279 -19.726951,4.47299 -19.711688,20.1259 0.01939,19.88395 25.709203,25.29241 25.709203,25.29241 z"/></g></svg>