<svg xmlns="http://www.w3.org/2000/svg" xmlns:svg="http://www.w3.org/2000/svg" id="svg2" width="1410" height="940" version="1.1"><metadata id="metadata7"/><g id="layer1" transform="translate(0,-112.36218)"><rect style="fill:#fff;fill-opacity:1;stroke:none" id="rect2995-1" width="1410" height="940" x="0" y="112.362"/><rect style="fill:#ff9600;fill-opacity:1;stroke:none" id="rect2995" width="1410" height="470" x="0" y="112.362"/><g id="g3815"><g id="g3800"><path style="fill:none;stroke:#c92013;stroke-width:19.50310516;stroke-miterlimit:4;stroke-opacity:1;stroke-dasharray:none" id="path3778" d="m 313.00001,378.99999 -130.05382,-0.0223 -91.946181,-91.9777 0.02228,-130.05382 91.977696,-91.946181 130.05382,0.02228 91.94618,91.977696 -0.0223,130.05382 z" transform="matrix(0.97450366,0,0,0.97450366,-2.1769079,118.52237)"/><path style="fill:none;stroke:#c92013;stroke-width:10.26163387;stroke-miterlimit:4;stroke-opacity:1;stroke-dasharray:none" id="path3778-1" d="m 313.00001,378.99999 -130.05382,-0.0223 -91.946181,-91.9777 0.02228,-130.05382 91.977696,-91.946181 130.05382,0.02228 91.94618,91.977696 -0.0223,130.05382 z" transform="matrix(0.8172664,0,0,0.8172664,36.686993,154.29811)"/></g><g id="g3810"><path style="fill:none;stroke:#c92013;stroke-width:14.11682701;stroke-linecap:square;stroke-linejoin:miter;stroke-miterlimit:4;stroke-opacity:1;stroke-dasharray:none" id="path3798" d="m 167.5,275.86218 144.88818,0"/><path style="fill:none;stroke:#c92013;stroke-width:13.92150116;stroke-linecap:square;stroke-linejoin:miter;stroke-miterlimit:4;stroke-opacity:1;stroke-dasharray:none" id="path3804" d="m 295,276.86218 0,126.0742"/><path style="fill:none;stroke:#c92013;stroke-width:14;stroke-linecap:square;stroke-linejoin:miter;stroke-miterlimit:4;stroke-opacity:1;stroke-dasharray:none" id="path3808" d="m 215,165 c 0,0 0,76.25 0,94.25 0,17.5 -4.49811,25.75 -21,25.75 -15.5,0 -20.5,-13 -20.5,-22 0,-12 6.75,-20 26.75,-20 16.75,0 90.75,0 90.75,0" transform="translate(0,112.36218)"/></g></g></g></svg>