<svg xmlns="http://www.w3.org/2000/svg" xmlns:svg="http://www.w3.org/2000/svg" xmlns:xlink="http://www.w3.org/1999/xlink" id="svg2" width="450" height="300" version="1.1" viewBox="0 0 450 300" xml:space="preserve"><metadata id="metadata49"/><defs id="defs4"><g id="horns" fill="#0000C0" stroke="#0000C0" stroke-width=".5"><rect id="rect7" width="10" height="30" x="20" y="0"/><rect id="rect9" width="10" height="10" x="30" y="10"/><rect id="rect11" width="30" height="10" x="30" y="30"/><rect id="rect13" width="10" height="10" x="40" y="20"/><rect id="rect15" width="10" height="10" x="0" y="20"/><rect id="rect17" width="10" height="10" x="30" y="50"/><path id="path19" d="M 0,30 L 30,30 L 30,60 Z"/><rect id="rect21" width="10" height="10" x="50" y="50"/><path id="path23" d="M 30,60 L 50,60 L 50,80 Z"/></g></defs><rect id="rect25" width="450" height="300" x="0" y="0" fill="#fff"/><use id="use29" width="450" height="300" x="0" y="0" transform="matrix(0.73685077,-0.74041077,0.73685077,0.74041077,-14.475871,192.29412)" xlink:href="#horns"/><use id="use31" width="450" height="300" x="50" y="50" transform="matrix(0.73685077,-0.74041077,0.73685077,0.74041077,-14.475871,192.29412)" xlink:href="#horns"/><use id="use33" width="450" height="300" x="100" y="100" transform="matrix(0.73685077,-0.74041077,0.73685077,0.74041077,-14.475871,192.29412)" xlink:href="#horns"/><use id="use35" width="450" height="300" x="150" y="150" transform="matrix(0.73685077,-0.74041077,0.73685077,0.74041077,-14.475871,192.29412)" xlink:href="#horns"/><use id="use37" width="450" height="300" x="200" y="200" transform="matrix(0.73685077,-0.74041077,0.73685077,0.74041077,-14.475871,192.29412)" xlink:href="#horns"/><use id="use39" width="450" height="300" x="250" y="250" transform="matrix(0.73685077,-0.74041077,0.73685077,0.74041077,-14.475871,192.29412)" xlink:href="#horns"/><rect id="rect43" width="450" height="91.78" x="0" y="208.22" style="fill:#0000c0"/><rect id="rect45" width="450" height="30" x="0" y="270" fill="green"/></svg>