<svg xmlns="http://www.w3.org/2000/svg" xmlns:svg="http://www.w3.org/2000/svg" width="900" height="600" version="1"><rect width="900" height="600" fill="#fff"/><rect width="200" height="600" x="350" fill="#ae1c28"/><rect width="900" height="200" y="200" fill="#21468b"/><path style="fill:#fff;fill-opacity:1;stroke:none" id="path3611" d="M 574.28574,202.85714 408.66722,264.40817 418.08786,446.41651 308.37041,307.92426 138.18133,373.12748 235.99073,225.98353 121.38747,84.273 l 170.16698,47.55229 99.36036,-152.785147 7.35958,176.532877 176.01135,47.28412 z" transform="matrix(0.10311963,-0.02916735,0.02780555,0.10817002,360.13931,351.16918)"/><path style="fill:#fff;fill-opacity:1;stroke:none" id="path3611-2" d="M 574.28574,202.85714 408.66722,264.40817 418.08786,446.41651 308.37041,307.92426 138.18133,373.12748 235.99073,225.98353 121.38747,84.273 l 170.16698,47.55229 99.36036,-152.785147 7.35958,176.532877 176.01135,47.28412 z" transform="matrix(0.10311963,-0.02916735,0.02780555,0.10817002,460.13931,351.16918)"/><path style="fill:#fff;fill-opacity:1;stroke:none" id="path3611-5" d="M 574.28574,202.85714 408.66722,264.40817 418.08786,446.41651 308.37041,307.92426 138.18133,373.12748 235.99073,225.98353 121.38747,84.273 l 170.16698,47.55229 99.36036,-152.785147 7.35958,176.532877 176.01135,47.28412 z" transform="matrix(0.10311963,-0.02916735,0.02780555,0.10817002,360.13931,226.16918)"/><path style="fill:#fff;fill-opacity:1;stroke:none" id="path3611-2-4" d="M 574.28574,202.85714 408.66722,264.40817 418.08786,446.41651 308.37041,307.92426 138.18133,373.12748 235.99073,225.98353 121.38747,84.273 l 170.16698,47.55229 99.36036,-152.785147 7.35958,176.532877 176.01135,47.28412 z" transform="matrix(0.10311963,-0.02916735,0.02780555,0.10817002,460.13931,226.16918)"/><path style="fill:#fff;fill-opacity:1;stroke:none" id="path3611-2-7" d="M 574.28574,202.85714 408.66722,264.40817 418.08786,446.41651 308.37041,307.92426 138.18133,373.12748 235.99073,225.98353 121.38747,84.273 l 170.16698,47.55229 99.36036,-152.785147 7.35958,176.532877 176.01135,47.28412 z" transform="matrix(0.10311963,-0.02916735,0.02780555,0.10817002,272.63931,288.66918)"/><path style="fill:#fff;fill-opacity:1;stroke:none" id="path3611-2-7-4" d="M 574.28574,202.85714 408.66722,264.40817 418.08786,446.41651 308.37041,307.92426 138.18133,373.12748 235.99073,225.98353 121.38747,84.273 l 170.16698,47.55229 99.36036,-152.785147 7.35958,176.532877 176.01135,47.28412 z" transform="matrix(0.10311963,-0.02916735,0.02780555,0.10817002,547.63931,288.66918)"/></svg>