<svg xmlns="http://www.w3.org/2000/svg" xmlns:svg="http://www.w3.org/2000/svg" id="Flag of North Korea" width="1062.992" height="708.661" version="1.0"><metadata id="metadata2241"/><g id="g2271" transform="scale(0.7388889,0.9875)"><rect id="Upper blue field" width="1440" height="120" x="0" y="0" style="fill:#034da2"/><rect id="Lower blue field" width="1440" height="120" x="0" y="600" style="fill:#034da2"/><rect id="Red field" width="1440" height="440" x="0" y="140" style="fill:#ed1d25"/><rect id="Upper white field" width="1440" height="20" x="0" y="120" style="fill:#fff"/><rect id="Lower white field" width="1440" height="20" x="0" y="580" style="fill:#fff"/></g><g id="g2265" transform="matrix(0.9875,0,0,0.9875,-136,0)"><circle id="White Circle" cx="480" cy="360" r="160" style="fill:#fff"/><polygon id="Red star" points="0 -1 .225 -.309 .951 -.309 .363 .118 .588 .809 0 .382 -.588 .809 -.363 .118 -.951 -.309 -.225 -.309 0 -1" transform="matrix(155,0,0,155,480,360)" style="fill:#ed1d25"/></g></svg>