<svg xmlns="http://www.w3.org/2000/svg" xmlns:svg="http://www.w3.org/2000/svg" id="svg3165" width="450" height="300" version="1.1" viewBox="75 0 450 300" xml:space="preserve" style="shape-rendering:geometricPrecision;text-rendering:geometricPrecision;image-rendering:optimizeQuality;fill-rule:evenodd"><metadata id="metadata3210"/><defs id="defs3167"><style id="style3169" type="text/css">.fil0{fill:#1b1083}.fil1{fill:#e0c03d}</style></defs><path id="path3171" d="M 75,0 525,0 525,300 75,300 75,0 z" class="fil0" style="fill:#00bbf0;fill-opacity:1"/><circle d="m 326,152 c 0,14.3594 -11.6406,26 -26,26 -14.3594,0 -26,-11.6406 -26,-26 0,-14.3594 11.6406,-26 26,-26 14.3594,0 26,11.6406 26,26 z" transform="matrix(5.1923077,0,0,5.1923077,-1257.6923,-639.23077)" style="fill:#d40000;fill-opacity:1;fill-rule:evenodd" id="circle3174-4-7" cx="300" cy="152" r="26" class="fil1"/><circle d="m 326,152 c 0,14.3594 -11.6406,26 -26,26 -14.3594,0 -26,-11.6406 -26,-26 0,-14.3594 11.6406,-26 26,-26 14.3594,0 26,11.6406 26,26 z" transform="matrix(4.5692304,0,0,4.5692304,-1070.7691,-544.52303)" style="fill:#00bbf0;fill-opacity:1;fill-rule:evenodd" id="circle3174-4-7-4" cx="300" cy="152" r="26" class="fil1"/><circle d="m 326,152 c 0,14.3594 -11.6406,26 -26,26 -14.3594,0 -26,-11.6406 -26,-26 0,-14.3594 11.6406,-26 26,-26 14.3594,0 26,11.6406 26,26 z" style="fill:#d40000" id="circle3174" cx="300" cy="152" r="26" class="fil1" transform="matrix(0.82787451,0,0,0.82499995,52.051573,25.425022)"/><path style="fill:#d40000" id="path3176" d="m 331.87316,156.60002 c -3.31151,0.82499 -5.79513,-2.47501 -5.79513,-5.77502 0,-3.29998 2.48362,-6.59998 5.79513,-5.77498 l 86.92681,5.77498 -86.92681,5.77502 z" class="fil1"/><path style="fill:#d40000" id="path3178" d="m 306.20904,117.82501 c 0.82787,3.30001 -2.48362,6.60001 -5.79512,6.60001 -3.31149,0 -6.62299,-3.3 -5.79512,-6.60001 l 5.79512,-86.624989 5.79512,86.624989 z" class="fil1"/><path style="fill:#d40000" id="path3180" d="m 268.12682,145.05002 c 3.3115,-0.825 6.62299,2.475 6.62299,5.77498 0,3.30001 -3.31149,6.60001 -6.62299,5.77502 l -86.92683,-5.77502 86.92683,-5.77498 z" class="fil1"/><path style="fill:#d40000" id="path3182" d="m 294.6188,182.17501 c -0.82787,-3.29999 2.48363,-6.59999 5.79512,-6.59999 3.3115,0 6.62299,3.3 5.79512,6.59999 l -5.79512,86.625 -5.79512,-86.625 z" class="fil1"/><path style="fill:#d40000" id="path3184" d="m 327.73378,131.85001 c -2.48362,2.47501 -6.623,2.47501 -9.10662,0 -2.48362,-2.47499 -2.48362,-6.59999 0,-8.24999 l 66.22997,-57.749997 -57.12335,65.999987 z" class="fil1"/><path style="fill:#d40000" id="path3186" d="m 282.20068,123.60002 c 2.48362,2.475 2.48362,6.59999 0,9.075 -2.48362,2.47499 -6.62299,2.47499 -8.27874,0 l -57.95121,-66.000003 66.22995,56.925003 z" class="fil1"/><path style="fill:#d40000" id="path3188" d="m 273.92194,168.97502 c 1.65575,-2.475 5.79512,-2.475 8.27874,0 2.48362,2.47499 2.48362,5.77499 0,8.25 L 215.97073,234.15 273.92194,168.97502 z" class="fil1"/><path style="fill:#d40000" id="path3190" d="m 318.62716,177.22502 c -2.48362,-2.47501 -2.48362,-5.77501 0,-8.25 2.48362,-2.475 6.623,-2.475 9.10662,0 L 384.85713,234.15 318.62716,177.22502 z" class="fil1"/><path style="fill:#d40000" id="path3192" d="m 320.28291,118.65001 c -0.82787,3.30001 -4.13937,4.12501 -7.45087,2.47501 -3.31149,-0.82501 -4.96723,-4.125 -4.13938,-6.6 l 33.94286,-65.174997 -22.35261,69.299987 z" class="fil1"/><path style="fill:#d40000" id="path3194" d="m 292.13518,114.52502 c 0.82788,2.475 -0.82787,5.77499 -4.13937,6.6 -3.31151,1.65 -6.623,0.825 -7.45088,-2.47501 l -22.35262,-69.299987 33.94287,65.174997 z" class="fil1"/><path style="fill:#d40000" id="path3196" d="m 267.29895,131.02502 c 3.31149,0.82499 4.13937,4.12499 2.48362,7.42499 -0.82787,3.30001 -4.13937,4.95 -6.62299,3.30001 l -65.4021,-33 69.54147,22.275 z" class="fil1"/><path style="fill:#d40000" id="path3198" d="m 263.15958,159.07502 c 2.48362,-1.65001 5.79512,0.82499 6.62299,4.12499 1.65575,2.475 0.82787,6.60001 -1.65575,7.425 l -70.36934,22.275 65.4021,-33.82499 z" class="fil1"/><path style="fill:#d40000" id="path3200" d="m 280.54493,183.00002 c 0.82788,-3.30001 4.13937,-4.125 7.45088,-2.47502 3.3115,0.82502 4.96725,4.12502 3.3115,6.60001 l -33.115,65.175 22.35262,-69.29999 z" class="fil1"/><path style="fill:#d40000" id="path3202" d="m 308.69266,187.12501 c -0.82785,-2.47499 0.82789,-5.77499 4.13938,-7.425 3.3115,-0.82499 6.623,0 7.45087,2.475 l 22.35261,70.125 -33.94286,-65.175 z" class="fil1"/><path style="fill:#d40000" id="path3204" d="m 331.87316,170.62501 c -2.48363,-0.82499 -3.31151,-4.95 -2.48363,-8.24999 1.65575,-2.47501 4.96725,-4.95001 7.45088,-3.3 l 65.40208,33.82499 -70.36933,-22.275 z" class="fil1"/><path style="fill:#d40000" id="path3206" d="m 337.66828,141.75002 c -2.48362,1.64999 -5.79512,-0.82501 -7.45088,-4.125 -0.82787,-2.47501 0,-6.6 2.48364,-7.42501 l 70.36933,-22.275 -65.40209,33.82501 z" class="fil1"/><circle d="m 326,152 c 0,14.3594 -11.6406,26 -26,26 -14.3594,0 -26,-11.6406 -26,-26 0,-14.3594 11.6406,-26 26,-26 14.3594,0 26,11.6406 26,26 z" transform="matrix(0.63682656,0,0,0.63461534,109.36596,54.363478)" style="fill:#00bbf0;fill-opacity:1;fill-rule:evenodd" id="circle3174-4" cx="300" cy="152" r="26" class="fil1"/></svg>