<svg xmlns="http://www.w3.org/2000/svg" xmlns:svg="http://www.w3.org/2000/svg" xmlns:xlink="http://www.w3.org/1999/xlink" id="svg11" width="300" height="200" version="1.0"><rect id="rect2" width="300" height="200" fill="#ce1126"/><rect id="rect4" width="150" height="100" fill="#002b7f"/><polygon id="polygon1441" points="-.951 -.309 .951 -.309 -.588 .809 0 -1 0 -1 .588 .809" transform="matrix(14.603642,0,0,14.603642,74.999661,84.018742)" style="fill:#fff"/><polygon id="polygon1449" points="-.951 -.309 .951 -.309 -.588 .809 0 -1 0 -1 .588 .809" transform="matrix(11.682911,0,0,11.516383,44.444109,40.683056)" style="fill:#fff"/><polygon id="polygon1451" points="-.951 -.309 .951 -.309 -.588 .809 0 -1 0 -1 .588 .809" transform="matrix(10.95273,0,0,10.748625,106.24966,35.748625)" style="fill:#fff"/><use id="use2402" width="288" height="144" x="0" y="0" transform="translate(30.555556,-25)" xlink:href="#polygon1449"/><polygon id="polygon1455" points="-.951 -.309 .951 -.309 -.588 .809 0 -1 0 -1 .588 .809" transform="matrix(7.3018188,0,0,7.3018188,90.277441,57.981568)" style="fill:#fff"/></svg>