<svg xmlns="http://www.w3.org/2000/svg" xmlns:svg="http://www.w3.org/2000/svg" id="svg4" width="300" height="200" version="1.1"><path style="fill:#fda803;stroke:none" id="path4" d="M0 0L0 200L300 200L300 0L0 0z"/><path style="fill:#000;stroke:none" id="path6" d="M 20,40.454907 L 20,41.461447 C 31.7436,38.139764 46.391,34.915513 58,40.349321 C 79.1412,50.244719 92.4148,73.554481 118,74.677277 C 116.503,88.048862 93.7212,81.254715 89,93.801542 C 93.5276,96.354329 98.8037,97.854578 104,96.303902 C 107.367,95.299173 111.949,90.053287 115.4,93.371246 C 118.792,96.631732 117.868,104.59164 119.182,108.89963 C 122.94,121.2227 128.942,132.29767 131.388,145.13508 C 132.471,150.81599 131.518,160.44154 135.514,164.86931 C 140.101,169.95133 155.005,169.77619 160.981,167.38566 C 168.648,164.32075 167.292,152.93879 168.435,146.14162 C 170.598,133.28508 176.582,122.14167 180.49,109.90617 C 181.965,105.28716 181.329,98.076318 184.024,94.10129 C 187.194,89.425105 192.465,95.249047 196,96.303902 C 201.196,97.854578 206.472,96.354229 211,93.801542 C 206.283,81.264881 183.483,87.926568 182,74.677277 C 207.69,73.549951 220.796,50.274211 242,40.349321 C 253.609,34.915513 268.256,38.139764 280,41.461447 C 268.638,31.134143 246.852,27.920763 233,34.316219 C 219.673,40.469703 210.891,52.797507 197,58.101974 C 184.427,62.903171 177.04,58.235844 165,56.745963 C 156.712,55.720399 146.443,56.575455 138,56.589043 C 130.603,56.601021 124.363,62.037647 117,60.95773 C 94.095,57.598502 82.9684,38.64394 62,32.446067 C 47.3869,28.126701 32.9514,34.27787 20,40.454907 z"/></svg>