<svg xmlns="http://www.w3.org/2000/svg" xmlns:svg="http://www.w3.org/2000/svg" id="svg2" width="324" height="216" version="1.1"><metadata id="metadata7"/><g id="layer3" style="display:inline"><rect style="fill:red;fill-opacity:1;fill-rule:evenodd;stroke:none;stroke-width:1px;stroke-linecap:butt;stroke-linejoin:miter;stroke-opacity:1" id="rect1352" width="327.289" height="219.203" x="-1.645" y="-1.602"/><rect style="fill:#fff;fill-opacity:1;stroke:none" id="rect2082" width="271.731" height="163.645" x="26.134" y="26.178"/></g><g id="layer4" style="display:inline"><path style="fill:#fc0;fill-opacity:1;stroke:#000;stroke-opacity:1" id="path2811" d="M 167.68533 43.011375 A 4.2931485 4.2931485 0 1 1 159.09903,43.011375 A 4.2931485 4.2931485 0 1 1 167.68533 43.011375 z" transform="translate(-1.515229,-2.424524)"/><path id="path3539" d="M 167.68533 43.011375 A 4.2931485 4.2931485 0 1 1 159.09903,43.011375 A 4.2931485 4.2931485 0 1 1 167.68533 43.011375 z" transform="translate(-43.86903,23.18548)" style="fill:#fc0;fill-opacity:1;stroke:#000;stroke-opacity:1"/><path id="path3541" d="M 167.68533 43.011375 A 4.2931485 4.2931485 0 1 1 159.09903,43.011375 A 4.2931485 4.2931485 0 1 1 167.68533 43.011375 z" transform="translate(2.999820,5.505476)" style="fill:#fc0;fill-opacity:1;stroke:#000;stroke-opacity:1"/><path style="fill:#fc0;fill-opacity:1;stroke:#000;stroke-opacity:1" id="path3543" d="M 167.68533 43.011375 A 4.2931485 4.2931485 0 1 1 159.09903,43.011375 A 4.2931485 4.2931485 0 1 1 167.68533 43.011375 z" transform="translate(-5.559033,5.465476)"/><path style="fill:#fc0;fill-opacity:1;stroke:#000;stroke-opacity:1" id="path3545" d="M 167.68533 43.011375 A 4.2931485 4.2931485 0 1 1 159.09903,43.011375 A 4.2931485 4.2931485 0 1 1 167.68533 43.011375 z" transform="translate(41.57125,23.17313)"/><path id="path3547" d="M 167.68533 43.011375 A 4.2931485 4.2931485 0 1 1 159.09903,43.011375 A 4.2931485 4.2931485 0 1 1 167.68533 43.011375 z" transform="translate(58.23097,61.20884)" style="fill:#fc0;fill-opacity:1;stroke:#000;stroke-opacity:1"/><path style="fill:#fc0;fill-opacity:1;stroke:#000;stroke-opacity:1" id="path3549" d="M 167.68533 43.011375 A 4.2931485 4.2931485 0 1 1 159.09903,43.011375 A 4.2931485 4.2931485 0 1 1 167.68533 43.011375 z" transform="translate(58.16097,69.67548)"/><path id="path3551" d="M 167.68533 43.011375 A 4.2931485 4.2931485 0 1 1 159.09903,43.011375 A 4.2931485 4.2931485 0 1 1 167.68533 43.011375 z" transform="translate(65.85697,66.03027)" style="fill:#fc0;fill-opacity:1;stroke:#000;stroke-opacity:1"/><path style="fill:#fc0;fill-opacity:1;stroke:#000;stroke-opacity:1" id="path3553" d="M 167.68533 43.011375 A 4.2931485 4.2931485 0 1 1 159.09903,43.011375 A 4.2931485 4.2931485 0 1 1 167.68533 43.011375 z" transform="translate(40.85697,107.6374)"/><path id="path3555" d="M 167.68533 43.011375 A 4.2931485 4.2931485 0 1 1 159.09903,43.011375 A 4.2931485 4.2931485 0 1 1 167.68533 43.011375 z" transform="translate(-5.571602,124.2445)" style="fill:#fc0;fill-opacity:1;stroke:#000;stroke-opacity:1"/><path style="fill:#fc0;fill-opacity:1;stroke:#000;stroke-opacity:1" id="path3557" d="M 167.68533 43.011375 A 4.2931485 4.2931485 0 1 1 159.09903,43.011375 A 4.2931485 4.2931485 0 1 1 167.68533 43.011375 z" transform="translate(3.356969,124.7802)"/><path id="path3559" d="M 167.68533 43.011375 A 4.2931485 4.2931485 0 1 1 159.09903,43.011375 A 4.2931485 4.2931485 0 1 1 167.68533 43.011375 z" transform="translate(-1.285888,132.1016)" style="fill:#fc0;fill-opacity:1;stroke:#000;stroke-opacity:1"/><path style="fill:#fc0;fill-opacity:1;stroke:#000;stroke-opacity:1" id="path3561" d="M 167.68533 43.011375 A 4.2931485 4.2931485 0 1 1 159.09903,43.011375 A 4.2931485 4.2931485 0 1 1 167.68533 43.011375 z" transform="translate(-43.60732,107.1016)"/><path id="path3563" d="M 167.68533 43.011375 A 4.2931485 4.2931485 0 1 1 159.09903,43.011375 A 4.2931485 4.2931485 0 1 1 167.68533 43.011375 z" transform="translate(-60.39303,70.31589)" style="fill:#fc0;fill-opacity:1;stroke:#000;stroke-opacity:1"/><path style="fill:#fc0;fill-opacity:1;stroke:#000;stroke-opacity:1" id="path3565" d="M 167.68533 43.011375 A 4.2931485 4.2931485 0 1 1 159.09903,43.011375 A 4.2931485 4.2931485 0 1 1 167.68533 43.011375 z" transform="translate(-60.21446,61.20875)"/><path id="path3567" d="M 167.68533 43.011375 A 4.2931485 4.2931485 0 1 1 159.09903,43.011375 A 4.2931485 4.2931485 0 1 1 167.68533 43.011375 z" transform="translate(-67.89303,65.67304)" style="fill:#fc0;fill-opacity:1;stroke:#000;stroke-opacity:1"/></g><g id="layer5" style="display:inline"><path style="fill:#fc0;fill-opacity:1;stroke:#000;stroke-opacity:1" id="path3572" d="M 217.14286 107.42857 A 55.357143 55.357143 0 1 1 106.42858,107.42857 A 55.357143 55.357143 0 1 1 217.14286 107.42857 z" transform="translate(0.214279,0.571426)"/><path id="path3578" d="M 217.14286 107.42857 A 55.357143 55.357143 0 1 1 106.42858,107.42857 A 55.357143 55.357143 0 1 1 217.14286 107.42857 z" transform="matrix(0.772596,-1.592618e-2,1.592618e-2,0.772596,35.29407,27.57774)" style="fill:#fff;fill-opacity:1;stroke:#000;stroke-opacity:1"/><path id="path3574" d="M 217.14286 107.42857 A 55.357143 55.357143 0 1 1 106.42858,107.42857 A 55.357143 55.357143 0 1 1 217.14286 107.42857 z" transform="matrix(0.456427,-9.408729e-3,9.408729e-3,0.456427,87.14586,60.48890)" style="fill:#fc0;fill-opacity:1;stroke:#000;stroke-opacity:1"/><path style="fill:#fc0;fill-opacity:1;stroke:#000;stroke-opacity:1" id="path3576" d="M 217.14286 107.42857 A 55.357143 55.357143 0 1 1 106.42858,107.42857 A 55.357143 55.357143 0 1 1 217.14286 107.42857 z" transform="matrix(0.379717,-7.827444e-3,7.827444e-3,0.379717,99.72632,68.47391)"/><path style="fill:#fff;fill-opacity:1;stroke:#000;stroke-width:.5;stroke-miterlimit:4;stroke-dasharray:none;stroke-opacity:1;display:inline" id="path4311" d="M 181.07144 107.78571 A 19.285715 19.285715 0 1 1 142.50001,107.78571 A 19.285715 19.285715 0 1 1 181.07144 107.78571 z" transform="translate(0.214279,0.214287)"/><path style="opacity:1;fill:#fff;fill-opacity:0;stroke:#000;stroke-width:.5669505;stroke-miterlimit:4;stroke-dasharray:none;stroke-opacity:1;display:inline" id="path4314" d="M 220.71429 109.39286 A 41.607143 41.607143 0 1 1 137.50000,109.39286 A 41.607143 41.607143 0 1 1 220.71429 109.39286 z" transform="matrix(1.102389,0.000000,0.000000,1.102389,-35.44575,-12.59349)"/></g><g id="layer6" style="display:inline"><g id="g6831" transform="translate(0.000000,0.301250)"><path id="rect6808" d="M 159.15250,64.968750 L 159.15250,71.812500 L 156.65250,74.312500 L 159.15250,76.812500 L 159.15250,82.406250 L 165.21500,82.406250 L 165.21500,77.343750 L 168.24625,74.312500 L 165.21500,71.312500 L 165.21500,64.968750 L 159.15250,64.968750 z" style="opacity:1;fill:#fc0;fill-opacity:1;stroke:#000;stroke-width:.625;stroke-miterlimit:4;stroke-dasharray:none;stroke-opacity:1"/><path id="path6827" d="M 162.07250,64.730942 C 162.07250,66.836978 162.07250,68.943013 162.07250,71.049049 C 162.07250,73.407808 162.07250,75.766568 162.07250,78.125328 C 162.07250,79.388950 162.07250,80.652571 162.07250,81.916192" style="fill:none;fill-opacity:.75;fill-rule:evenodd;stroke:#000;stroke-width:.62523025;stroke-linecap:butt;stroke-linejoin:miter;stroke-miterlimit:4;stroke-dasharray:none;stroke-opacity:1"/><rect style="opacity:1;fill:#fc0;fill-opacity:1;stroke:#000;stroke-width:.51053286;stroke-miterlimit:4;stroke-dasharray:none;stroke-opacity:1" id="rect6812" width="2.825" height="2.825" x="60.496" y="165.966" transform="matrix(0.707107,-0.707107,0.707107,0.707107,0.000000,0.000000)"/></g><g id="g6836" transform="matrix(0.695404,0.718619,-0.718619,0.695404,126.4059,-83.77477)"><path style="opacity:1;fill:#fc0;fill-opacity:1;stroke:#000;stroke-width:.625;stroke-miterlimit:4;stroke-dasharray:none;stroke-opacity:1" id="path6838" d="M 159.15250,64.968750 L 159.15250,71.812500 L 156.65250,74.312500 L 159.15250,76.812500 L 159.15250,82.406250 L 165.21500,82.406250 L 165.21500,77.343750 L 168.24625,74.312500 L 165.21500,71.312500 L 165.21500,64.968750 L 159.15250,64.968750 z"/><path style="fill:none;fill-opacity:.75;fill-rule:evenodd;stroke:#000;stroke-width:.62169188;stroke-linecap:butt;stroke-linejoin:miter;stroke-miterlimit:4;stroke-dasharray:none;stroke-opacity:1" id="path6840" d="M 162.07600,64.735450 C 162.09502,66.915545 162.11405,69.095638 162.13307,71.275733 C 162.15438,73.717438 162.17569,76.159143 162.19700,78.600849 C 162.20842,79.908905 162.21983,81.216961 162.23125,82.525018"/><rect id="rect6842" width="2.825" height="2.825" x="60.496" y="165.966" transform="matrix(0.707107,-0.707107,0.707107,0.707107,0.000000,0.000000)" style="opacity:1;fill:#fc0;fill-opacity:1;stroke:#000;stroke-width:.51053286;stroke-miterlimit:4;stroke-dasharray:none;stroke-opacity:1"/></g><g id="g6844" transform="matrix(-1.641548e-2,0.999865,-0.999865,-1.641548e-2,272.3797,-52.73616)"><path id="path6846" d="M 159.15250,64.968750 L 159.15250,71.812500 L 156.65250,74.312500 L 159.15250,76.812500 L 159.15250,82.406250 L 165.21500,82.406250 L 165.21500,77.343750 L 168.24625,74.312500 L 165.21500,71.312500 L 165.21500,64.968750 L 159.15250,64.968750 z" style="opacity:1;fill:#fc0;fill-opacity:1;stroke:#000;stroke-width:.625;stroke-miterlimit:4;stroke-dasharray:none;stroke-opacity:1"/><path id="path6848" d="M 162.07215,64.735162 C 162.06972,66.870821 162.06729,69.006480 162.06486,71.142140 C 162.06214,73.534077 162.05942,75.926016 162.05670,78.317954 C 162.05524,79.599349 162.05378,80.880745 162.05233,82.162140" style="fill:none;fill-opacity:.75;fill-rule:evenodd;stroke:#000;stroke-width:.62960631;stroke-linecap:butt;stroke-linejoin:miter;stroke-miterlimit:4;stroke-dasharray:none;stroke-opacity:1"/><rect style="opacity:1;fill:#fc0;fill-opacity:1;stroke:#000;stroke-width:.51053286;stroke-miterlimit:4;stroke-dasharray:none;stroke-opacity:1" id="rect6850" width="2.825" height="2.825" x="60.496" y="165.966" transform="matrix(0.707107,-0.707107,0.707107,0.707107,0.000000,0.000000)"/></g><g id="g6852" transform="matrix(-1.641548e-2,0.999865,-0.999865,-1.641548e-2,204.4456,-52.74031)"><path style="opacity:1;fill:#fc0;fill-opacity:1;stroke:#000;stroke-width:.625;stroke-miterlimit:4;stroke-dasharray:none;stroke-opacity:1" id="path6854" d="M 159.15250,64.968750 L 159.15250,71.812500 L 156.65250,74.312500 L 159.15250,76.812500 L 159.15250,82.406250 L 165.21500,82.406250 L 165.21500,77.343750 L 168.24625,74.312500 L 165.21500,71.312500 L 165.21500,64.968750 L 159.15250,64.968750 z"/><path style="fill:none;fill-opacity:.75;fill-rule:evenodd;stroke:#000;stroke-width:.63503814;stroke-linecap:butt;stroke-linejoin:miter;stroke-miterlimit:4;stroke-dasharray:none;stroke-opacity:1" id="path6856" d="M 162.07224,64.740437 C 162.07042,66.913095 162.06860,69.085752 162.06677,71.258410 C 162.06473,73.691786 162.06269,76.125163 162.06065,78.558540 C 162.05956,79.862134 162.05846,81.165729 162.05737,82.469323"/><rect id="rect6858" width="2.825" height="2.825" x="60.496" y="165.966" transform="matrix(0.707107,-0.707107,0.707107,0.707107,0.000000,0.000000)" style="opacity:1;fill:#fc0;fill-opacity:1;stroke:#000;stroke-width:.51053286;stroke-miterlimit:4;stroke-dasharray:none;stroke-opacity:1"/></g><g id="g6860" transform="translate(0.505076,68.23360)"><path style="opacity:1;fill:#fc0;fill-opacity:1;stroke:#000;stroke-width:.625;stroke-miterlimit:4;stroke-dasharray:none;stroke-opacity:1" id="path6862" d="M 159.15250,64.968750 L 159.15250,71.812500 L 156.65250,74.312500 L 159.15250,76.812500 L 159.15250,82.406250 L 165.21500,82.406250 L 165.21500,77.343750 L 168.24625,74.312500 L 165.21500,71.312500 L 165.21500,64.968750 L 159.15250,64.968750 z"/><path style="fill:none;fill-opacity:.75;fill-rule:evenodd;stroke:#000;stroke-width:.63504022;stroke-linecap:butt;stroke-linejoin:miter;stroke-miterlimit:4;stroke-dasharray:none;stroke-opacity:1" id="path6864" d="M 162.07250,64.740437 C 162.07250,66.913079 162.07250,69.085721 162.07250,71.258364 C 162.07250,73.691723 162.07250,76.125082 162.07250,78.558442 C 162.07250,79.862027 162.07250,81.165612 162.07250,82.469197"/><rect id="rect6866" width="2.825" height="2.825" x="60.496" y="165.966" transform="matrix(0.707107,-0.707107,0.707107,0.707107,0.000000,0.000000)" style="opacity:1;fill:#fc0;fill-opacity:1;stroke:#000;stroke-width:.51053286;stroke-miterlimit:4;stroke-dasharray:none;stroke-opacity:1"/></g><g id="g6868" transform="matrix(0.695404,0.718619,-0.718619,0.695404,78.52591,-35.58782)"><path id="path6870" d="M 159.15250,64.968750 L 159.15250,71.812500 L 156.65250,74.312500 L 159.15250,76.812500 L 159.15250,82.406250 L 165.21500,82.406250 L 165.21500,77.343750 L 168.24625,74.312500 L 165.21500,71.312500 L 165.21500,64.968750 L 159.15250,64.968750 z" style="opacity:1;fill:#fc0;fill-opacity:1;stroke:#000;stroke-width:.625;stroke-miterlimit:4;stroke-dasharray:none;stroke-opacity:1"/><path id="path6872" d="M 162.07704,64.735449 C 162.10122,66.915455 162.12541,69.095460 162.14960,71.275466 C 162.17668,73.717071 162.20377,76.158677 162.23086,78.600284 C 162.24537,79.908287 162.25988,81.216290 162.27439,82.524293" style="fill:none;fill-opacity:.75;fill-rule:evenodd;stroke:#000;stroke-width:.62170035;stroke-linecap:butt;stroke-linejoin:miter;stroke-miterlimit:4;stroke-dasharray:none;stroke-opacity:1"/><rect style="opacity:1;fill:#fc0;fill-opacity:1;stroke:#000;stroke-width:.51053286;stroke-miterlimit:4;stroke-dasharray:none;stroke-opacity:1" id="rect6874" width="2.825" height="2.825" x="60.496" y="165.966" transform="matrix(0.707107,-0.707107,0.707107,0.707107,0.000000,0.000000)"/></g><g id="g6876" transform="matrix(0.718619,-0.695403,0.695403,0.718619,-29.99760,143.7982)"><path style="opacity:1;fill:#fc0;fill-opacity:1;stroke:#000;stroke-width:.625;stroke-miterlimit:4;stroke-dasharray:none;stroke-opacity:1" id="path6878" d="M 159.15250,64.968750 L 159.15250,71.812500 L 156.65250,74.312500 L 159.15250,76.812500 L 159.15250,82.406250 L 165.21500,82.406250 L 165.21500,77.343750 L 168.24625,74.312500 L 165.21500,71.312500 L 165.21500,64.968750 L 159.15250,64.968750 z"/><path style="fill:none;fill-opacity:.75;fill-rule:evenodd;stroke:#000;stroke-width:.62162328;stroke-linecap:butt;stroke-linejoin:miter;stroke-miterlimit:4;stroke-dasharray:none;stroke-opacity:1" id="path6880" d="M 162.07183,64.735453 C 162.07022,66.915902 162.06860,69.096351 162.06699,71.276800 C 162.06518,73.718902 162.06337,76.161005 162.06156,78.603108 C 162.06059,79.911377 162.05963,81.219647 162.05866,82.527916"/><rect id="rect6882" width="2.825" height="2.825" x="60.496" y="165.966" transform="matrix(0.707107,-0.707107,0.707107,0.707107,0.000000,0.000000)" style="opacity:1;fill:#fc0;fill-opacity:1;stroke:#000;stroke-width:.51053286;stroke-miterlimit:4;stroke-dasharray:none;stroke-opacity:1"/></g><g id="g6884" transform="matrix(0.718619,-0.695403,0.695403,0.718619,17.98464,192.0330)"><path id="path6886" d="M 159.15250,64.968750 L 159.15250,71.812500 L 156.65250,74.312500 L 159.15250,76.812500 L 159.15250,82.406250 L 165.21500,82.406250 L 165.21500,77.343750 L 168.24625,74.312500 L 165.21500,71.312500 L 165.21500,64.968750 L 159.15250,64.968750 z" style="opacity:1;fill:#fc0;fill-opacity:1;stroke:#000;stroke-width:.625;stroke-miterlimit:4;stroke-dasharray:none;stroke-opacity:1"/><path id="path6888" d="M 162.06898,64.727652 C 162.05386,66.869622 162.03874,69.011590 162.02362,71.153560 C 162.00668,73.552564 161.98975,75.951569 161.97281,78.350575 C 161.96374,79.635756 161.95467,80.920937 161.94560,82.206119" style="fill:none;fill-opacity:.75;fill-rule:evenodd;stroke:#000;stroke-width:.61051124;stroke-linecap:butt;stroke-linejoin:miter;stroke-miterlimit:4;stroke-dasharray:none;stroke-opacity:1"/><rect style="opacity:1;fill:#fc0;fill-opacity:1;stroke:#000;stroke-width:.51053286;stroke-miterlimit:4;stroke-dasharray:none;stroke-opacity:1" id="rect6890" width="2.825" height="2.825" x="60.496" y="165.966" transform="matrix(0.707107,-0.707107,0.707107,0.707107,0.000000,0.000000)"/></g><path style="fill:#fc0;fill-opacity:1;fill-rule:evenodd;stroke:#000;stroke-width:.625;stroke-linecap:butt;stroke-linejoin:miter;stroke-miterlimit:4;stroke-dasharray:none;stroke-opacity:1" id="path6894" d="M 162.80421,102.59252 C 162.97403,99.309490 165.79472,96.680987 168.88902,95.988734 C 171.50175,95.264296 174.61030,94.902537 176.95698,96.554865 C 178.51333,97.636816 178.58769,97.918908 179.14180,99.738660 C 179.99124,100.84303 180.34057,103.97282 179.57923,102.68961 C 178.51440,101.54870 176.71306,99.861230 175.42860,98.968094 C 173.38022,97.518186 170.62744,97.983908 168.55715,99.130914 C 167.45763,99.645142 166.40178,100.45581 166.11050,101.69756 C 165.76579,102.78293 166.65797,104.06614 167.91396,104.36529 C 169.36772,104.44807 170.39307,107.24593 168.94335,108.09664 C 167.76050,108.99474 165.74805,107.28454 164.76891,106.58549 C 163.73346,105.74556 162.67004,104.61708 162.58878,103.22314 L 162.63176,102.96139 L 162.72724,102.71295"/><path id="path6910" d="M 166.03196,110.49623 C 171.29561,112.33533 170.77080,118.17652 169.69646,120.75931 C 168.87306,122.86568 168.05543,124.92308 166.23351,126.21184 C 164.36129,127.22447 160.16260,127.12299 158.75597,126.57882 C 157.34933,126.03465 157.84411,126.76718 157.36777,126.02179 C 157.06887,124.80431 158.49174,124.51236 159.19910,124.44480 C 161.02513,124.27041 162.95065,125.03764 164.46647,123.94269 C 166.12283,122.70083 167.18350,119.79867 167.47905,117.74352 C 167.54519,116.19071 166.51643,114.34588 164.89344,114.03733 C 163.87161,113.97323 163.14859,115.13786 162.07569,114.69116 C 161.03597,114.16786 161.00273,112.64500 161.67810,111.92976 C 162.47371,110.97419 163.62432,110.24700 164.91183,110.17207 C 165.26589,110.16785 165.62832,110.22872 165.96788,110.37004" style="fill:#fc0;fill-opacity:1;fill-rule:evenodd;stroke:#000;stroke-width:.61537951;stroke-linecap:butt;stroke-linejoin:miter;stroke-miterlimit:4;stroke-dasharray:none;stroke-opacity:1"/><path style="fill:#fc0;fill-opacity:1;fill-rule:evenodd;stroke:#000;stroke-width:.61064261;stroke-linecap:butt;stroke-linejoin:miter;stroke-miterlimit:4;stroke-dasharray:none;stroke-opacity:1" id="path6912" d="M 158.74416,108.88410 C 157.04578,111.69864 153.14483,112.77789 150.15773,111.51281 C 147.78194,110.62933 145.69285,109.02528 144.19269,107.00939 C 143.21613,105.35955 143.72563,103.35970 144.19266,101.62570 C 144.59783,100.21670 145.20368,98.855908 146.04619,97.645746 C 147.00623,96.984871 147.76830,98.347065 147.44539,99.171870 C 147.38011,100.61433 146.30624,101.78212 146.26633,103.22873 C 146.12446,104.59445 146.66330,106.00668 147.75930,106.86160 C 149.01908,107.97375 150.62816,108.71105 152.29851,108.95369 C 153.73788,108.96478 155.43109,108.18934 155.73632,106.67090 C 155.73542,105.83237 155.23678,104.86833 155.95378,104.16057 C 156.51646,103.48619 157.66548,103.38640 158.26978,104.05208 C 159.58276,105.22030 159.88956,107.38357 158.88257,108.84687"/><path style="opacity:1;fill:#fc0;fill-opacity:1;stroke:#000;stroke-width:.625;stroke-miterlimit:4;stroke-dasharray:none;stroke-opacity:1" id="path6892" d="M 166.42264 108.41875 A 3.0304577 3.0304577 0 1 1 160.36172,108.41875 A 3.0304577 3.0304577 0 1 1 166.42264 108.41875 z" transform="translate(-1.085914,0.189404)"/></g></svg>