<svg xmlns="http://www.w3.org/2000/svg" xmlns:svg="http://www.w3.org/2000/svg" id="svg1" width="375" height="250" version="1.1"><rect style="fill:#32cbfe;fill-opacity:1;fill-rule:evenodd;stroke:#000;stroke-width:0;stroke-linecap:butt;stroke-linejoin:miter;stroke-miterlimit:4;stroke-opacity:1" id="rect1554" width="375" height="250" x="0" y="0"/><path style="fill:#a0a0a0;stroke:none" id="path4" d="m 10,2.0000005 1,1 z"/><path style="fill:#a0a0a0;stroke:none" id="path6" d="m 16,2.0000005 1,1 -1,-1 m -7.9999995,1 1,1 -1,-1 m 9.9999995,0 1,1 z"/><path style="fill:#a0a0a0;stroke:none" id="path8" d="m 5.0000005,6.0000005 1,1 -1,-1 m 15.9999995,0 1,1 -1,-1 m -16.9999995,2 1,1 -1,-1 m 17.9999995,0 1,1 z"/><metadata id="metadata12"/><ellipse style="fill:#ee1212;fill-opacity:1;fill-rule:evenodd;stroke:#000;stroke-width:0;stroke-linecap:butt;stroke-linejoin:miter;stroke-miterlimit:4;stroke-opacity:1" id="path2181" cx="187.5" cy="130.982" rx="125" ry="119.018"/><path style="fill:#ffb012;fill-opacity:1;fill-rule:evenodd;stroke:#000;stroke-width:0;stroke-linecap:butt;stroke-linejoin:miter;stroke-miterlimit:4;stroke-opacity:1" id="rect4049" d="m 112.5,90.71875 v 39.8125 h -25 v 39.8125 h -25 v 39.84375 h -25 V 250 h 25 250 25 v -39.8125 h -25 v -39.84375 h -25 v -39.8125 h -25 v -39.8125 z"/></svg>