<svg xmlns="http://www.w3.org/2000/svg" xmlns:svg="http://www.w3.org/2000/svg" id="svg2819" width="1200" height="800" version="1.1"><metadata id="metadata2824"/><g id="layer1" transform="translate(0,-252.36218)"><rect style="fill:#000;fill-opacity:1;stroke:none" id="rect2831" width="1200" height="800" x="0" y="252.362"/><path style="fill:#fff;fill-opacity:1;stroke:none" id="path2897" d="m 1037.567,501.61002 a 352.7728,352.7728 0 1 1 -705.54555,0 352.7728,352.7728 0 1 1 705.54555,0 z" transform="translate(-84.79425,150.75216)"/><path style="fill:#a00;fill-opacity:1;stroke:none" id="path2835" d="m 980.32199,397.8533 a 150.26834,150.26834 0 1 1 -300.53668,0 150.26834,150.26834 0 1 1 300.53668,0 z" transform="matrix(0.87142858,0,0,-0.87142858,-254.25197,1087.1488)"/><path style="fill:#a00;fill-opacity:1;stroke:none" id="path2835-2" d="m 980.32199,397.8533 a 150.26834,150.26834 0 1 1 -300.53668,0 150.26834,150.26834 0 1 1 300.53668,0 z" transform="matrix(0.87142858,0,0,-0.87142858,7.587022,1087.1488)"/><path style="fill:#a00;fill-opacity:1;stroke:none" id="path2835-4" d="m 980.32199,397.8533 a 150.26834,150.26834 0 1 1 -300.53668,0 150.26834,150.26834 0 1 1 300.53668,0 z" transform="matrix(0.87142858,0,0,-0.87142858,-123.33247,858.97702)"/></g></svg>