<svg xmlns="http://www.w3.org/2000/svg" xmlns:svg="http://www.w3.org/2000/svg" xmlns:xlink="http://www.w3.org/1999/xlink" width="750" height="500"><rect id="green_ground" width="750" height="500" style="fill:#006a4e"/><rect id="upper_yellow_stripe" width="750" height="100" y="100" style="fill:#ffce00"/><rect id="lower_yellow_stripe" width="750" height="100" y="300" style="fill:#ffce00"/><rect id="red_square" width="300" height="300" style="fill:#d21034"/><g id="star" transform="matrix(94.998006,0,0,91.65494,149.99685,144.72848)" style="fill:#fff"><g id="cone"><polygon id="triangle" points="0 0 0 1 .5 1 0 0" transform="matrix(0.9510565,0.309017,-0.309017,0.9510565,0,-1)"/><use id="use11" width="16.18" height="10" x="0" y="0" transform="scale(-1,1)" xlink:href="#triangle"/></g><use id="use13" width="16.18" height="10" x="0" y="0" transform="matrix(0.309017,0.9510565,-0.9510565,0.309017,0,0)" xlink:href="#cone"/><use id="use15" width="16.18" height="10" x="0" y="0" transform="matrix(0.309017,-0.9510565,0.9510565,0.309017,0,0)" xlink:href="#cone"/><use id="use17" width="16.18" height="10" x="0" y="0" transform="matrix(-0.809017,0.5877853,-0.5877853,-0.809017,0,0)" xlink:href="#cone"/><use id="use19" width="16.18" height="10" x="0" y="0" transform="matrix(-0.809017,-0.5877853,0.5877853,-0.809017,0,0)" xlink:href="#cone"/></g></svg>