<svg xmlns="http://www.w3.org/2000/svg" xmlns:svg="http://www.w3.org/2000/svg" id="svg59" width="1023" height="682" version="1.1" viewBox="0 0 1023 682" xml:space="preserve" style="shape-rendering:geometricPrecision;image-rendering:optimizeQuality"><g id="Layer 1"><rect id="rect4" width="1023" height="682" x="0" y="0" fill="#FCD116"/><rect id="rect6" width="1023" height="37" x="0" y="0" fill="#DA251D"/><rect id="rect8" width="1023" height="37" x="0" y="37" fill="#FFF"/><rect id="rect10" width="1023" height="37" x="0" y="74" fill="#009700"/><rect id="rect12" width="1023" height="37" x="0" y="645" fill="#DA251D"/><rect id="rect14" width="1023" height="37" x="0" y="607" fill="#FFF"/><rect id="rect16" width="1023" height="37" x="0" y="571" fill="#009700"/><rect id="rect18" width="1023" height="37" x="0" y="215" fill="#DA251D"/><rect id="rect20" width="1023" height="37" x="0" y="252" fill="#009700"/><rect id="rect22" width="1023" height="37" x="0" y="393" fill="#009700"/><rect id="rect24" width="1023" height="37" x="0" y="430" fill="#DA251D"/><circle id="circle26" cx="262" cy="163" r="46" fill="#009700"/><circle id="circle28" cx="272" cy="163" r="41" fill="#FCD116"/><circle id="circle30" cx="512" cy="163" r="46" fill="#009700"/><circle id="circle32" cx="522" cy="163" r="41" fill="#FCD116"/><circle id="circle34" cx="762" cy="163" r="46" fill="#009700"/><circle id="circle36" cx="772" cy="163" r="41" fill="#FCD116"/><circle id="circle38" cx="262" cy="519" r="46" fill="#009700"/><circle id="circle40" cx="272" cy="519" r="41" fill="#FCD116"/><circle id="circle42" cx="512" cy="519" r="46" fill="#009700"/><circle id="circle44" cx="522" cy="519" r="41" fill="#FCD116"/><circle id="circle46" cx="762" cy="519" r="46" fill="#009700"/><circle id="circle48" cx="772" cy="519" r="41" fill="#FCD116"/><circle id="circle50" cx="387" cy="341" r="46" fill="#009700"/><circle id="circle52" cx="397" cy="341" r="41" fill="#FCD116"/><circle id="circle54" cx="637" cy="341" r="46" fill="#009700"/><circle id="circle56" cx="647" cy="341" r="41" fill="#FCD116"/></g></svg>