<svg xmlns="http://www.w3.org/2000/svg" xmlns:cc="http://web.resource.org/cc/" xmlns:svg="http://www.w3.org/2000/svg" xmlns:xlink="http://www.w3.org/1999/xlink" id="svg548" width="1013" height="760" version="1.0"><defs id="defs550"><linearGradient id="linearGradient2061"><stop id="stop2063" offset="0" style="stop-color:teal;stop-opacity:1"/><stop id="stop2065" offset="1" style="stop-color:#51aeae;stop-opacity:1"/></linearGradient><linearGradient id="linearGradient574"><stop style="stop-color:#3800ff;stop-opacity:1" id="stop575" offset="0"/><stop style="stop-color:#17a5ff;stop-opacity:1" id="stop576" offset="1"/></linearGradient><linearGradient id="linearGradient559"><stop style="stop-color:#ffd585;stop-opacity:1" id="stop560" offset="0"/><stop style="stop-color:#ffffb7;stop-opacity:1" id="stop561" offset="1"/></linearGradient><linearGradient id="linearGradient562" x1="101.194" x2="426.358" y1="448.484" y2="448.484" gradientTransform="scale(0.840454,1.189833)" gradientUnits="userSpaceOnUse" spreadMethod="reflect" xlink:href="#linearGradient559"/><linearGradient id="linearGradient563" x1="-559.973" x2="-234.809" y1="448.484" y2="448.484" gradientTransform="scale(0.840454,1.189833)" gradientUnits="userSpaceOnUse" spreadMethod="reflect" xlink:href="#linearGradient559"/><linearGradient id="linearGradient570" x1="692.996" x2="431.594" y1="440.783" y2="445.917" gradientTransform="scale(0.840454,1.189833)" gradientUnits="userSpaceOnUse" spreadMethod="reflect" xlink:href="#linearGradient559"/><linearGradient id="linearGradient571" x1="35.861" x2="-225.54" y1="440.783" y2="445.917" gradientTransform="scale(0.840454,1.189833)" gradientUnits="userSpaceOnUse" spreadMethod="reflect" xlink:href="#linearGradient559"/><linearGradient id="linearGradient573" x1="957.798" x2="1037.034" y1="160.329" y2="228.73" gradientTransform="scale(0.358051,2.7929)" gradientUnits="userSpaceOnUse" spreadMethod="pad" xlink:href="#linearGradient574"/><linearGradient id="linearGradient2038" x1="101.194" x2="426.358" y1="448.484" y2="448.484" gradientTransform="scale(0.840454,1.189833)" gradientUnits="userSpaceOnUse" spreadMethod="reflect" xlink:href="#linearGradient559"/><linearGradient id="linearGradient2040" x1="-559.973" x2="-234.809" y1="448.484" y2="448.484" gradientTransform="scale(0.840454,1.189833)" gradientUnits="userSpaceOnUse" spreadMethod="reflect" xlink:href="#linearGradient559"/><linearGradient id="linearGradient2059" x1="524.58" x2="521.767" y1="-.852" y2="760" gradientTransform="scale(0.937963,1)" gradientUnits="userSpaceOnUse" xlink:href="#linearGradient2061"/></defs><rect style="opacity:1;fill:url(#linearGradient2059);fill-opacity:1;stroke:none;stroke-width:6.12300014;stroke-linecap:butt;stroke-linejoin:round;stroke-miterlimit:4;stroke-dasharray:none;stroke-opacity:1" id="rect2121" width="1013" height="760" x="0" y="0"/><g id="g1958" transform="matrix(0.823296,0,0,0.823296,-22.92742,86.95419)"><rect id="rect556" width="971.307" height="645.195" x="157.405" y="32.737" style="font-size:12px;fill:#934a00;fill-rule:evenodd;stroke:#000;stroke-width:1.66697006pt"/><g id="g567" transform="matrix(1.66697,0,0,1.66697,46.35808,-559.0441)"><path id="path568" d="M 84.3239,743.737 C 84.3239,743.737 122.27,711.694 191.415,709.164 C 260.561,706.634 357.533,727.715 357.533,727.715 L 357.533,370.182 C 357.533,370.182 270.68,352.474 184.669,354.16 C 98.659,355.847 82.6374,379.457 82.6374,379.457 C 82.6374,379.457 84.3239,743.737 84.3239,743.737 z" transform="translate(-3.372955,5.059402)" style="fill:url(#linearGradient2038);fill-opacity:1;fill-rule:evenodd;stroke:#000;stroke-width:1pt;stroke-linecap:butt;stroke-linejoin:miter;stroke-opacity:1"/><path id="path569" d="M 84.3239,743.737 C 84.3239,743.737 122.27,711.694 191.415,709.164 C 260.561,706.634 357.533,727.715 357.533,727.715 L 357.533,370.182 C 357.533,370.182 270.68,352.474 184.669,354.16 C 98.659,355.847 82.6374,379.457 82.6374,379.457 C 82.6374,379.457 84.3239,743.737 84.3239,743.737 z" transform="matrix(-1,0,0,1,718.4393,5.059402)" style="fill:url(#linearGradient2040);fill-opacity:1;fill-rule:evenodd;stroke:#000;stroke-width:1pt;stroke-linecap:butt;stroke-linejoin:miter;stroke-opacity:1"/></g><g id="g564" transform="matrix(1.66697,0,0,1.66697,46.35808,-567.4778)"><path id="path557" d="M 84.3239,743.737 C 84.3239,743.737 122.27,711.694 191.415,709.164 C 260.561,706.634 357.533,727.715 357.533,727.715 L 357.533,370.182 C 357.533,370.182 270.68,352.474 184.669,354.16 C 98.659,355.847 82.6374,379.457 82.6374,379.457 C 82.6374,379.457 84.3239,743.737 84.3239,743.737 z" transform="translate(-3.372955,5.059402)" style="fill:url(#linearGradient562);fill-opacity:1;fill-rule:evenodd;stroke:#000;stroke-width:1pt;stroke-linecap:butt;stroke-linejoin:miter;stroke-opacity:1"/><path id="path558" d="M 84.3239,743.737 C 84.3239,743.737 122.27,711.694 191.415,709.164 C 260.561,706.634 357.533,727.715 357.533,727.715 L 357.533,370.182 C 357.533,370.182 270.68,352.474 184.669,354.16 C 98.659,355.847 82.6374,379.457 82.6374,379.457 C 82.6374,379.457 84.3239,743.737 84.3239,743.737 z" transform="matrix(-1,0,0,1,718.4393,5.059402)" style="fill:url(#linearGradient563);fill-opacity:1;fill-rule:evenodd;stroke:#000;stroke-width:1pt;stroke-linecap:butt;stroke-linejoin:miter;stroke-opacity:1"/></g><path id="path554" d="M 84.3239,743.737 C 84.3239,743.737 122.27,711.694 191.415,709.164 C 260.561,706.634 357.533,727.715 357.533,727.715 L 357.533,370.182 C 357.533,370.182 270.68,352.474 184.669,354.16 C 98.659,355.847 82.6374,379.457 82.6374,379.457 C 82.6374,379.457 84.3239,743.737 84.3239,743.737 z" transform="matrix(1.66697,0,0,1.66697,46.35808,-567.478)" style="fill:url(#linearGradient571);fill-opacity:1;fill-rule:evenodd;stroke:#000;stroke-width:1pt;stroke-linecap:butt;stroke-linejoin:miter;stroke-opacity:1"/><path id="path555" d="M 84.3239,743.737 C 84.3239,743.737 122.27,711.694 191.415,709.164 C 260.561,706.634 357.533,727.715 357.533,727.715 L 357.533,370.182 C 357.533,370.182 270.68,352.474 184.669,354.16 C 98.659,355.847 82.6374,379.457 82.6374,379.457 C 82.6374,379.457 84.3239,743.737 84.3239,743.737 z" transform="matrix(-1.66697,0,0,1.66697,1238.352,-567.478)" style="fill:url(#linearGradient570);fill-opacity:1;fill-rule:evenodd;stroke:#000;stroke-width:1pt;stroke-linecap:butt;stroke-linejoin:miter;stroke-opacity:1"/><path id="path572" d="M 363.794,365.137 C 363.44,367.936 363.055,370.732 362.674,373.527 C 361.616,379.672 359.985,385.489 358.162,391.447 C 356.629,397.67 356.494,402.426 357.606,408.744 C 359.717,415.729 362.523,421.823 366.143,428.156 C 370.346,435.095 374.376,441.883 377.637,449.313 C 379.987,456.763 381.334,463.687 381.689,471.491 C 381.952,479.609 382.633,487.614 382.486,495.785 C 381.96,503.817 381.084,511.596 379.465,519.481 C 377.978,524.98 376.152,530.291 374.223,535.649 C 371.608,543.396 369.356,551.184 367.289,559.095 C 364.426,572.306 361.958,585.466 360.173,598.866 C 359.718,604.47 359.507,609.774 360.032,615.366 C 360.289,621.218 359.769,626.906 359.213,632.734 C 358.599,640.26 358.267,647.648 358.504,655.195 C 358.954,660.045 359.647,664.581 360.994,669.261 C 361.635,671.08 362.333,672.875 363.013,674.68 L 351.336,662.539 L 349.778,677.381 C 349.06,675.448 348.333,673.523 347.666,671.572 C 346.215,666.222 345.557,661.057 345.173,655.528 C 345.079,647.685 345.457,639.944 346.007,632.121 C 346.374,626.736 346.708,621.469 346.368,616.08 C 345.902,609.862 346.512,604.053 347.34,597.873 C 349.664,584.396 352.339,570.998 355.044,557.592 C 356.752,549.244 358.55,541.189 361.172,533.09 C 362.978,527.974 364.762,522.886 366.274,517.675 C 367.961,510.305 368.907,503.044 369.482,495.506 C 369.62,487.389 368.689,479.563 368.302,471.517 C 368.07,464.64 366.981,458.622 364.897,452.062 C 361.847,445.096 358.021,438.718 354.094,432.207 C 350.004,425.093 346.853,418.242 344.476,410.386 C 343.142,402.746 343.222,396.791 345.072,389.262 C 346.774,383.7 348.293,378.313 349.185,372.562 C 349.425,370.121 349.879,367.592 349.586,365.137 L 363.794,365.137 z" transform="matrix(1.66697,0,0,1.66697,46.35808,-567.4778)" style="fill:url(#linearGradient573);fill-opacity:1;fill-rule:nonzero;stroke:#000;stroke-width:1pt;stroke-linecap:butt;stroke-linejoin:miter;stroke-opacity:1"/><g id="g586" transform="matrix(1.66697,0,0,1.66697,46.35808,-552.0157)"><path id="path578" d="M 118.069,386.082 C 115.579,386.033 127.761,383.289 130.433,382.767 C 136.855,382.334 141.676,382.579 147.557,385.25 C 152.114,387.641 156.518,389.61 161.47,391.017 L 159.429,395.851 C 153.842,394.218 148.789,392.056 143.59,389.442 C 139.528,387.545 136.245,387.457 131.77,387.727 C 127.071,388.642 122.657,390.244 118.069,391.384 L 118.069,386.082 z" style="fill:#000;fill-opacity:1;fill-rule:nonzero;stroke:none;stroke-width:1pt;stroke-linecap:butt;stroke-linejoin:miter;stroke-opacity:1"/><path id="path579" d="M 148.589,390.435 C 148.158,392.013 147.962,393.729 147.87,395.577 C 148.165,400.181 149.155,404.381 150.371,408.827 C 151.698,413.533 152.714,417.971 153.071,422.853 C 152.478,428.879 150.92,432.484 146.99,437.089 C 142.292,440.441 138.407,441.951 132.699,442.8 L 132.046,437.673 C 135.877,437.161 138.425,436.161 141.601,433.961 C 144.692,430.426 145.791,427.612 146.258,422.945 C 145.939,418.389 144.94,414.24 143.717,409.845 C 142.417,405.06 141.38,400.504 141.001,395.556 C 141.029,394.404 141.836,388.396 141.485,390.435 L 148.589,390.435 z" style="fill:#000;fill-opacity:1;fill-rule:nonzero;stroke:none;stroke-width:1pt;stroke-linecap:butt;stroke-linejoin:miter;stroke-opacity:1"/><path id="path580" d="M 124.551,391.329 C 125.509,392.724 126.35,393.76 127.709,394.808 C 130.144,395.812 131.979,396.396 134.31,394.983 C 134.805,394.245 136.594,394.956 135.953,396.593 C 135.412,400.118 135.853,402.167 138.078,404.947 C 138.782,405.466 138.417,405.223 139.173,405.674 L 136.981,407.663 C 135.876,406.972 136.408,407.342 135.387,406.556 C 132.569,402.944 131.894,400.433 132.614,395.891 C 134.69,392.545 139.07,391.98 137.001,396.633 C 132.728,398.953 129.907,398.647 125.449,396.776 C 124.167,395.777 122,393.782 121.705,392.913 L 124.551,391.329 z" style="fill:red;fill-opacity:1;fill-rule:nonzero;stroke:none;stroke-width:1pt;stroke-linecap:butt;stroke-linejoin:miter;stroke-opacity:1"/><path id="path581" d="M 128.262,412.359 C 128.325,412.223 130.848,416.514 131.444,417.536 C 133.652,421.993 135.108,425.606 134.88,430.592 C 132.297,435.012 129.563,435.296 124.574,435.534 C 122.042,435.783 121.38,435.403 122.442,437.773 C 122.902,438.528 122.657,438.15 123.178,438.904 L 120.116,440.085 C 119.496,439.192 119.788,439.638 119.237,438.748 C 117.695,434.018 120.061,433.446 124.513,432.954 C 127.764,432.829 129.77,433.05 131.483,430.174 C 131.732,425.749 130.266,422.476 128.294,418.539 C 127.096,416.532 125.536,414.535 124.71,412.359 L 128.262,412.359 z" style="fill:red;fill-opacity:1;fill-rule:nonzero;stroke:none;stroke-width:1pt;stroke-linecap:butt;stroke-linejoin:miter;stroke-opacity:1"/><path id="path582" d="M 154.065,398.918 C 155.323,400.712 156.43,402.621 157.567,404.494 C 159.823,408.61 161.681,412.649 163.184,417.097 C 164.154,421.807 164.018,425.127 162.549,429.706 C 160.916,433.236 159.111,436.516 156.923,439.732 C 154.275,442.85 151.963,444.406 148.112,445.796 L 146.899,443.376 C 150.005,442.278 151.749,441.007 153.886,438.505 C 155.978,435.455 157.701,432.342 159.26,428.989 C 160.601,424.864 160.721,421.907 159.857,417.656 C 158.416,413.367 156.625,409.495 154.431,405.54 C 153.571,404.154 151.605,401.27 151.218,400.503 L 154.065,398.918 z" style="fill:red;fill-opacity:1;fill-rule:nonzero;stroke:none;stroke-width:1pt;stroke-linecap:butt;stroke-linejoin:miter;stroke-opacity:1"/><path id="path583" d="M 162.76,401.743 C 162.378,401.74 164.956,400.465 165.636,400.026 L 168.027,401.887 C 166.315,403.003 164.788,404.041 162.76,404.393 L 162.76,401.743 z" style="fill:red;fill-opacity:1;fill-rule:nonzero;stroke:none;stroke-width:1pt;stroke-linecap:butt;stroke-linejoin:miter;stroke-opacity:1"/><path id="path584" d="M 166.872,414.015 C 167.446,412.631 168.555,411.502 169.458,410.287 L 172.526,411.504 C 172.11,412.075 170.339,415.009 170.424,414.015 L 166.872,414.015 z" style="fill:red;fill-opacity:1;fill-rule:nonzero;stroke:none;stroke-width:1pt;stroke-linecap:butt;stroke-linejoin:miter;stroke-opacity:1"/><rect id="rect585" width="54.811" height="56.497" x="116.367" y="387.046" style="font-size:12px;fill:none;fill-rule:evenodd;stroke:#000;stroke-width:1pt;stroke-opacity:1"/></g><text id="text601" x="466.343" y="71.114" transform="scale(0.722322,1.384425)" style="font-size:10.05513954px;font-style:normal;font-weight:400;writing-mode:lr-tb;text-anchor:start;fill:#000;fill-opacity:1;stroke:none;stroke-width:1pt;stroke-linecap:butt;stroke-linejoin:miter;stroke-opacity:1;font-family:Electroharmonix"><tspan style="font-weight:700;font-family:Garamond" id="tspan858" x="466.343" y="71.114">This is an unofficial translation of the GNU General Public License</tspan> <tspan style="font-weight:700;font-family:Garamond" id="tspan860" x="466.343" y="83.683">into French. It was not published by the Free Software Foundation, and</tspan> <tspan style="font-weight:700;font-family:Garamond" id="tspan862" x="466.343" y="96.252">does not legally state the distribution terms for software that uses</tspan> <tspan style="font-weight:700;font-family:Garamond" id="tspan864" x="466.343" y="108.821">the GNU GPL--only the original English text of the GNU GPL does that.</tspan> <tspan style="font-weight:700;font-family:Garamond" id="tspan866" x="466.343" y="121.39">However, we hope that this translation will help French speakers</tspan> <tspan style="font-weight:700;font-family:Garamond" id="tspan868" x="466.343" y="133.959">understand the GNU GPL better.</tspan></text><text id="text872" x="268.613" y="183.689" transform="scale(0.901681,1.109039)" style="font-size:13.76997185px;font-style:normal;font-weight:400;writing-mode:lr-tb;text-anchor:start;fill:#000;fill-opacity:1;stroke:none;stroke-width:1pt;stroke-linecap:butt;stroke-linejoin:miter;stroke-opacity:1;font-family:Electroharmonix"><tspan style="font-weight:700;font-family:Garamond" id="tspan877" x="268.613" y="183.689">This is an unofficial translation of the GNU General Public License</tspan> <tspan style="font-weight:700;font-family:Garamond" id="tspan879" x="268.613" y="200.901">into French. It was not published by the Free Software Foundation, and</tspan> <tspan style="font-weight:700;font-family:Garamond" id="tspan881" x="268.613" y="218.114">does not legally state the distribution terms for software that uses</tspan> <tspan style="font-weight:700;font-family:Garamond" id="tspan883" x="268.613" y="235.326">the GNU GPL--only the original English text of the GNU GPL does that.</tspan> <tspan style="font-weight:700;font-family:Garamond" id="tspan885" x="268.613" y="252.538">However, we hope that this translation will help French speakers</tspan> <tspan style="font-weight:700;font-family:Garamond" id="tspan887" x="268.613" y="269.751">understand the GNU GPL better.</tspan> <tspan style="font-weight:700;font-family:Garamond" id="tspan891" x="268.613" y="304.176">Voici (http://www.linux-france.org/article/these/gpl.html) une</tspan> <tspan style="font-weight:700;font-family:Garamond" id="tspan893" x="268.613" y="321.388">adaptation non officielle de la Licence Publique Générale du projet</tspan> <tspan style="font-weight:700;font-family:Garamond" id="tspan895" x="268.613" y="338.601">GNU. Elle n&apos;a pas été publiée par la Free Software Foundation et son</tspan> <tspan style="font-weight:700;font-family:Garamond" id="tspan897" x="268.613" y="355.813">contenu n&apos;a aucune portée légale car seule la version anglaise de ce</tspan> <tspan style="font-weight:700;font-family:Garamond" id="tspan899" x="268.613" y="373.026">document détaille le mode de distribution des logiciels sous GNU GPL.</tspan> <tspan style="font-weight:700;font-family:Garamond" id="tspan901" x="268.613" y="390.238">Nous espérons cependant qu&apos;elle permettra aux francophones de mieux</tspan> <tspan style="font-weight:700;font-family:Garamond" id="tspan903" x="268.613" y="407.451">comprendre la GPL.</tspan> <tspan style="font-weight:700;font-family:Garamond" id="tspan907" x="268.613" y="441.876">Licence Publique Générale GNU Version 2, Juin 1991</tspan> <tspan style="font-weight:700;font-family:Garamond" id="tspan911" x="268.613" y="476.301">Copyright © Free Software Foundation, Inc.</tspan> <tspan style="font-weight:700;font-family:Garamond" id="tspan913" x="268.613" y="493.513">59 Temple Place, Suite 330, Boston, MA 02111-1307</tspan> <tspan style="font-weight:700;font-family:Garamond" id="tspan915" x="268.613" y="510.725">États-Unis, 1989, 1991.</tspan> <tspan style="font-weight:700;font-family:Garamond" id="tspan917" x="268.613" y="527.938">La copie et la distribution de copies exactes de ce document sont</tspan> <tspan style="font-weight:700;font-family:Garamond" id="tspan919" x="268.613" y="545.15">autorisées, mais aucune modification n&apos;est permise.</tspan></text><text id="text931" x="843.027" y="83.541" transform="scale(0.833666,1.199521)" style="font-size:15.16170597px;font-style:normal;font-weight:400;writing-mode:lr-tb;text-anchor:start;fill:#000;fill-opacity:1;stroke:none;stroke-width:1pt;stroke-linecap:butt;stroke-linejoin:miter;stroke-opacity:1;font-family:Electroharmonix"><tspan style="font-weight:700;font-family:Garamond" id="tspan936" x="843.027" y="83.541">Nous protégeons vos droits de deux façons : d&apos;abord par le copyright</tspan> <tspan style="font-weight:700;font-family:Garamond" id="tspan938" x="843.027" y="102.493">du logiciel, ensuite par la remise de cette Licence qui vous autorise</tspan> <tspan style="font-weight:700;font-family:Garamond" id="tspan940" x="843.027" y="121.445">légalement à copier, distribuer et/ou modifier le logiciel.</tspan> <tspan style="font-weight:700;font-family:Garamond" id="tspan944" x="843.027" y="159.349">En outre, pour protéger chaque auteur ainsi que la FSF, nous affirmons</tspan> <tspan style="font-weight:700;font-family:Garamond" id="tspan946" x="843.027" y="178.301">solennellement que le programme concerné ne fait l&apos;objet d&apos;aucune</tspan> <tspan style="font-weight:700;font-family:Garamond" id="tspan948" x="843.027" y="197.253">garantie. Si un tiers le modifie puis le redistribue, tous ceux qui en</tspan> <tspan style="font-weight:700;font-family:Garamond" id="tspan950" x="843.027" y="216.206">recevront une copie doivent savoir qu&apos;il ne s&apos;agit pas de l&apos;original</tspan> <tspan style="font-weight:700;font-family:Garamond" id="tspan952" x="843.027" y="235.158">afin qu&apos;une copie défectueuse n&apos;entache pas la réputation de l&apos;auteur</tspan> <tspan style="font-weight:700;font-family:Garamond" id="tspan954" x="843.027" y="254.11">du logiciel.</tspan> <tspan style="font-weight:700;font-family:Garamond" id="tspan958" x="843.027" y="292.014">Enfin, tout programme libre est sans cesse menacé par des dépôts de</tspan> <tspan style="font-weight:700;font-family:Garamond" id="tspan960" x="843.027" y="310.966">brevets. Nous souhaitons à tout prix éviter que des distributeurs</tspan> <tspan style="font-weight:700;font-family:Garamond" id="tspan962" x="843.027" y="329.918">puissent déposer des brevets sur les Logiciels Libres pour leur propre</tspan> <tspan style="font-weight:700;font-family:Garamond" id="tspan964" x="843.027" y="348.87">compte. Pour éviter cela, nous stipulons bien que tout dépôt éventuel</tspan> <tspan style="font-weight:700;font-family:Garamond" id="tspan966" x="843.027" y="367.823">de brevet doit accorder expressément à tout un chacun le libre usage</tspan> <tspan style="font-weight:700;font-family:Garamond" id="tspan968" x="843.027" y="386.775">du produit.</tspan> <tspan style="font-weight:700;font-family:Garamond" id="tspan972" x="843.027" y="424.679">Les dispositions précises et les conditions de copie, de distribution</tspan> <tspan style="font-weight:700;font-family:Garamond" id="tspan974" x="843.027" y="443.631">et de modification de nos logiciels sont les suivantes :</tspan> <tspan style="font-weight:700;font-family:Garamond" id="tspan978" x="843.027" y="481.535">Stipulations et conditions relatives à la copie, la distribution et la</tspan> <tspan style="font-weight:700;font-family:Garamond" id="tspan980" x="843.027" y="500.487">modification</tspan></text></g><metadata id="metadata1056"/></svg>