<svg xmlns="http://www.w3.org/2000/svg" xmlns:cc="http://web.resource.org/cc/" xmlns:svg="http://www.w3.org/2000/svg" xmlns:xlink="http://www.w3.org/1999/xlink" id="svg548" width="944" height="720" version="1.0"><metadata id="metadata26"/><defs id="defs550"><linearGradient id="linearGradient569"><stop style="stop-color:#0f0;stop-opacity:1" id="stop570" offset="0"/><stop style="stop-color:#009d00;stop-opacity:1" id="stop571" offset="1"/></linearGradient><linearGradient id="linearGradient592"><stop style="stop-color:#fff;stop-opacity:1" id="stop593" offset="0"/><stop style="stop-color:#fff;stop-opacity:0" id="stop594" offset="1"/></linearGradient><linearGradient id="linearGradient586"><stop style="stop-color:#ff1f22;stop-opacity:1" id="stop587" offset="0"/><stop style="stop-color:#c27700;stop-opacity:1" id="stop588" offset="1"/></linearGradient><linearGradient id="linearGradient581"><stop style="stop-color:#ff8a17;stop-opacity:1" id="stop582" offset="0"/><stop style="stop-color:#d56500;stop-opacity:1" id="stop583" offset="1"/></linearGradient><linearGradient id="linearGradient584" x1=".291" x2=".646" y1=".648" y2=".297" gradientUnits="objectBoundingBox" spreadMethod="pad" xlink:href="#linearGradient581"/><radialGradient id="radialGradient585" cx=".415" cy=".523" r=".998" fx=".415" fy=".523" gradientUnits="objectBoundingBox" spreadMethod="pad" xlink:href="#linearGradient586"/><linearGradient id="linearGradient590" xlink:href="#linearGradient586"/><radialGradient id="radialGradient591" cx=".5" cy=".5" r=".5" fx=".5" fy=".5" gradientUnits="objectBoundingBox" spreadMethod="pad" xlink:href="#linearGradient592"/><radialGradient id="radialGradient568" cx=".468" cy=".25" r=".737" fx=".468" fy=".25" gradientUnits="objectBoundingBox" spreadMethod="pad" xlink:href="#linearGradient569"/><linearGradient id="linearGradient1905" x1="305.012" x2="321.982" y1="292.563" y2="275.732" gradientTransform="scale(0.800661,1.248968)" gradientUnits="userSpaceOnUse" spreadMethod="pad" xlink:href="#linearGradient581"/><radialGradient id="radialGradient1907" cx="208.178" cy="517.728" r="248.955" fx="208.178" fy="517.728" gradientTransform="scale(1.071906,0.932918)" gradientUnits="userSpaceOnUse" spreadMethod="pad" xlink:href="#linearGradient586"/><radialGradient id="radialGradient1909" cx="155.451" cy="485.462" r="29.682" fx="155.451" fy="485.462" gradientTransform="scale(1.185227,0.843721)" gradientUnits="userSpaceOnUse" spreadMethod="pad" xlink:href="#linearGradient592"/><linearGradient id="linearGradient1894" x1="24.437" x2="605.647" y1="706.782" y2="263.163" gradientUnits="userSpaceOnUse" xlink:href="#linearGradient569"/></defs><rect style="font-size:12px;fill:url(#linearGradient1894);fill-opacity:1;fill-rule:evenodd;stroke-width:3pt" id="rect567" width="944" height="721.82" x="0" y="0"/><g id="g1900" transform="matrix(0.510865,0,0,0.510865,412.2012,-1.889648)"><path id="path580" d="M 254.007,379.781 L 234.926,332.08 L 256.392,328.503 L 269.51,384.551" transform="matrix(2.113457,0,0,2.113457,140.6511,-613.4749)" style="fill:url(#linearGradient1905);fill-opacity:1;fill-rule:evenodd;stroke:#000;stroke-width:3pt;stroke-linecap:butt;stroke-linejoin:miter;stroke-opacity:1"/><path id="path579" d="M 261.162,382.166 C 259.969,382.166 248.044,361.893 209.884,363.086 C 171.723,364.278 102.557,390.514 115.674,472.797 C 128.792,555.081 207.498,592.049 220.616,590.856 C 233.734,589.664 228.964,586.087 240.889,584.894 C 252.814,583.702 252.814,592.049 261.162,592.049 C 269.51,592.049 331.521,587.28 354.178,552.697 C 378.029,513.343 392.339,416.749 354.178,386.936 C 316.017,357.123 263.547,384.551 261.162,382.166 z" transform="matrix(2.113457,0,0,2.113457,140.6511,-613.4749)" style="fill:url(#radialGradient1907);fill-opacity:1;fill-rule:evenodd;stroke:#000;stroke-width:3pt;stroke-linecap:butt;stroke-linejoin:miter;stroke-opacity:1"/><path id="path589" d="M 219.4237 409.59387 A 35.179344 25.042923 0 1 1 149.06501,409.59387 A 35.179344 25.042923 0 1 1 219.4237 409.59387 z" transform="matrix(2.471671,0,0,2.717302,67.09114,-858.2853)" style="fill:url(#radialGradient1909);fill-opacity:1;fill-rule:evenodd;stroke:none;stroke-width:3pt;stroke-linecap:butt;stroke-linejoin:miter;stroke-opacity:1"/></g><image id="image1897" width="708.496" height="825.128" x="-50.099" y="47.004" xlink:href="isaac_newtons_college-raster.png"/></svg>