<svg xmlns="http://www.w3.org/2000/svg" xmlns:cc="http://web.resource.org/cc/" xmlns:svg="http://www.w3.org/2000/svg" xmlns:xlink="http://www.w3.org/1999/xlink" id="svg1" width="932" height="708.661" version="1.0"><metadata id="metadata36"/><defs id="defs564"><linearGradient id="linearGradient641"><stop style="stop-color:#172dff;stop-opacity:1" id="stop642" offset="0"/><stop style="stop-color:#32a2f7;stop-opacity:0" id="stop643" offset="1"/></linearGradient><linearGradient id="linearGradient626"><stop style="stop-color:#fdff00;stop-opacity:1" id="stop627" offset="0"/><stop style="stop-color:#ff0;stop-opacity:0" id="stop628" offset="1"/></linearGradient><linearGradient id="linearGradient618"><stop style="stop-color:#172dff;stop-opacity:1" id="stop619" offset="0"/><stop style="stop-color:#32a2f7;stop-opacity:1" id="stop620" offset="1"/></linearGradient><linearGradient id="linearGradient574"><stop style="stop-color:#912d00;stop-opacity:1" id="stop575" offset="0"/><stop style="stop-color:#ed6700;stop-opacity:1" id="stop576" offset="1"/></linearGradient><linearGradient id="linearGradient569"><stop style="stop-color:#ffa23d;stop-opacity:1" id="stop570" offset="0"/><stop style="stop-color:#fd7;stop-opacity:1" id="stop571" offset="1"/></linearGradient><linearGradient id="linearGradient572" x1="653.319" x2="640.469" y1="93.818" y2="149.125" gradientTransform="scale(1.016043,0.98421)" gradientUnits="userSpaceOnUse" spreadMethod="reflect" xlink:href="#linearGradient569"/><linearGradient id="linearGradient573" x1="381.888" x2="398.654" y1="1108.366" y2="888.421" gradientTransform="scale(1.761651,0.567649)" gradientUnits="userSpaceOnUse" xlink:href="#linearGradient574"/><linearGradient id="linearGradient617" x1=".399" x2=".442" y1=".441" y2=".5" spreadMethod="reflect" xlink:href="#linearGradient618"/><radialGradient id="radialGradient625" cx=".5" cy=".5" r=".5" fx=".5" fy=".5" xlink:href="#linearGradient626"/><linearGradient id="linearGradient644" x1=".486" x2=".455" y1=".441" y2=".5" spreadMethod="reflect" xlink:href="#linearGradient641"/><linearGradient id="linearGradient1900" x1="665.831" x2="641.949" y1="212.263" y2="315.052" gradientTransform="scale(1.016042,0.984211)" gradientUnits="userSpaceOnUse" spreadMethod="reflect" xlink:href="#linearGradient569"/></defs><g id="g677"><rect style="font-size:12px;fill:url(#linearGradient617);fill-rule:evenodd;stroke-width:1pt" id="rect616" width="1275.591" height="265.748" x="0" y="442.913"/><rect style="font-size:12px;fill:#9db1ea;fill-rule:evenodd;stroke-width:1pt" id="rect601" width="1275.591" height="451.844" x="0" y="0"/><rect style="font-size:12px;fill:url(#linearGradient644);fill-rule:evenodd;stroke-width:1pt" id="rect640" width="1275.591" height="265.748" x="0" y="442.913"/></g><g id="g665" transform="translate(-362.7895,-7.518954)"><rect style="font-size:12px;fill:#8b4e00;fill-rule:evenodd;stroke-width:1pt" id="rect578" width="30.394" height="531.942" x="666.183" y="44.275"/><path style="font-size:12px;fill:red;fill-rule:evenodd;stroke-width:1pt" id="path581" d="M 691.28,44.275 L 810.17,95.8053 L 770.54,91.1903 L 810.17,120.929 L 691.28,69.3997 L 691.28,44.275 z"/><path style="font-size:12px;fill:url(#linearGradient573);fill-rule:evenodd;stroke-width:1pt" id="path567" d="M 502.592,673.228 L 953.376,662.633 L 992.126,547.215 C 786.006,559.573 618.639,533.597 528.357,520.82 C 461.622,511.376 433.737,495.469 399.532,482.279 L 502.592,673.228 z"/><g id="g605" transform="matrix(1.715579,0,0,1.418114,-428.005,-56.22136)" style="font-size:12px"><path style="font-size:12px;fill:url(#linearGradient1900);fill-rule:evenodd;stroke-width:1pt" id="path568" d="M 744.094,230.315 L 538.692,201.935 C 538.692,201.935 516.479,228.192 513.78,283.465 C 511.08,338.736 541.669,371.614 541.669,371.614 L 726.378,425.197 C 726.378,425.197 698.066,366.527 708.661,318.898 C 719.256,271.269 744.094,236.269 744.094,230.315 z"/><path style="font-size:12px;fill:url(#linearGradient572);fill-rule:evenodd;stroke-width:1pt" id="path577" d="M 700.164,103.853 L 589.643,88.5826 C 589.643,88.5826 577.691,102.711 576.239,132.451 C 574.786,162.191 591.245,179.882 591.245,179.882 L 690.631,208.713 C 690.631,208.713 675.398,177.144 681.098,151.517 C 686.799,125.889 700.164,107.057 700.164,103.853 z"/></g></g><image id="image1908" width="1060.003" height="1163.059" x="158.923" y="5.603" xlink:href="magellans_expedition-raster.png"/></svg>