<svg xmlns="http://www.w3.org/2000/svg" xmlns:xlink="http://www.w3.org/1999/xlink" id="svg1" width="360mm" height="200mm"><defs id="defs3"><linearGradient id="linearGradient683"><stop style="stop-color:#ff0;stop-opacity:1" id="stop684" offset="0"/><stop style="stop-color:#ffa200;stop-opacity:1" id="stop685" offset="1"/></linearGradient><radialGradient id="radialGradient686" cx=".498" cy=".484" r=".716" fx=".498" fy=".484" xlink:href="#linearGradient683"/></defs><rect style="font-size:12;fill:#ffd100;fill-rule:evenodd;stroke-width:1pt;fill-opacity:1" id="rect682" width="1284.014" height="708.661" x="0" y="0"/><g id="g677" style="fill:#000;fill-opacity:1" transform="translate(269.9599,-20.82402)"><path style="fill:#000;fill-rule:evenodd;stroke:none;stroke-opacity:1;stroke-width:1pt;stroke-linejoin:miter;stroke-linecap:butt;fill-opacity:1" id="path673" d="M 53.1496 354.331 L 248.031 354.331 C 248.986 320.299 266.801 269.504 310.643 248.031 L 212.598 78.0082 C 124.016 131.383 54.2046 230.228 53.1496 354.331 z"/><path style="fill:#000;fill-rule:evenodd;stroke:none;stroke-opacity:1;stroke-width:1pt;stroke-linejoin:miter;stroke-linecap:butt;fill-opacity:1" id="path674" d="M 531.366 78.0826 L 433.926 246.855 C 462.921 264.698 498.003 305.524 494.678 354.229 L 690.945 354.331 C 689.012 250.929 638.315 141.048 531.366 78.0826 z"/><path style="fill:#000;fill-rule:evenodd;stroke:none;stroke-opacity:1;stroke-width:1pt;stroke-linejoin:miter;stroke-linecap:butt;fill-opacity:1" id="path675" d="M 531.625 630.476 L 434.184 461.703 C 404.234 477.893 351.337 487.862 310.82 460.63 L 212.598 630.551 C 303.113 680.578 423.621 691.614 531.625 630.476 z"/><path style="fill-rule:evenodd;stroke:none;fill:#000;fill-opacity:1;stroke-opacity:1;stroke-width:1pt;stroke-linejoin:miter;stroke-linecap:butt" id="path676" d="M 455.485809 354.330658 A 83.438568 83.438568 0 1 0 288.608673,354.330658 A 83.4386 83.4386 0 1 0 455.486 354.331 L 372.047241 354.330658 z" transform="matrix(1.061651,0.000000,0.000000,1.061652,-22.93717,-21.84499)"/></g></svg>