<svg xmlns="http://www.w3.org/2000/svg" xmlns:svg="http://www.w3.org/2000/svg" xmlns:xlink="http://www.w3.org/1999/xlink" id="svg" width="128" height="128" version="1.1" viewBox="0 0 128 128"><desc id="desc2">Rule-edit icon of Freeciv</desc><defs id="defs5"><path id="freecivtext" d="M102 68 l20 -60"/></defs><g id="documents"><rect id="rect1" width="75" height="100" x="10" y="20" fill="#fdf6e3" stroke="#002b36" stroke-width="6" rx="5" ry="5"/><use id="use8" x="10" y="-10" xlink:href="#rect1"/></g><g id="contents" stroke="#073642" stroke-width="4"><rect id="rect11" width="55" height="45" x="30" y="25" fill="#eee8d5" stroke="none"/><rect id="rect13" width="55" height="15" x="30" y="25" fill="#EA6C46" stroke="none"/><line id="line1" x1="30" x2="85" y1="25" y2="25"/><use id="use16" x="0" y="15" xlink:href="#line1"/><use id="use18" x="0" y="30" xlink:href="#line1"/><use id="use20" x="0" y="45" xlink:href="#line1"/><line id="line2" x1="30" x2="30" y1="23" y2="72"/><use id="use23" x="15" y="0" xlink:href="#line2"/><use id="use25" x="35" y="0" xlink:href="#line2"/><use id="use27" x="55" y="0" xlink:href="#line2"/><line id="line3" x1="30" x2="85" y1="82" y2="82"/><use id="use30" x="0" y="12" xlink:href="#line3"/></g><g id="pen2" stroke="#002b36" stroke-width="4"><path id="path33" fill="#4A71D3" d="M95 20 l24 8 l-20 60 l-15 20l-9 -3l0 -27z"/><path id="path35" fill="#95A9DB" d="M92 29 l24 8 l-17 51 l-24 -8z"/></g><text id="text40" fill="#EBF767" font-family="Verdana" font-size="7"><textPath id="textPath38" xlink:href="#freecivtext">FREECIV</textPath></text></svg>