<svg xmlns="http://www.w3.org/2000/svg" xmlns:cc="http://web.resource.org/cc/" xmlns:svg="http://www.w3.org/2000/svg" id="svg3742" width="1000" height="1000" version="1.0"><metadata id="metadata3747"/><g id="layer1"><rect style="opacity:1;fill:#fff;fill-opacity:1;stroke:none;stroke-width:5.26900005;stroke-linecap:round;stroke-linejoin:round;stroke-miterlimit:4;stroke-dasharray:none;stroke-opacity:1" id="rect3750" width="1000" height="1000" x="0" y="0"/><g id="g2792" transform="matrix(4.926985,0,0,4.926985,488.5383,97.7829)"><path id="path1901" d="M 69.893899,8.1167109 L 0.67639257,40.809019 L 71.472149,76.206897 L 75.30504,67.639257 L 21.644562,41.034483 L 74.628647,15.782493 L 69.893899,8.1167109 z" style="fill:#000;fill-opacity:1;fill-rule:evenodd;stroke:none;stroke-width:1px;stroke-linecap:butt;stroke-linejoin:miter;stroke-opacity:1"/><rect id="rect2790" width="8.342" height="68.316" x="36.751" y="7.666" style="opacity:1;fill:#000;fill-opacity:1;stroke:none;stroke-width:5.26900005;stroke-linecap:round;stroke-linejoin:round;stroke-miterlimit:4;stroke-dasharray:none;stroke-opacity:1"/></g><g id="g3731" transform="matrix(4.651817,0,0,4.651817,105.0968,509.2897)"><path id="path2834" d="M 69.893899,3.1564987 L 69.893899,82.970822 L 12.175066,40.583554 L 69.893899,3.1564987 z" style="fill:#000;fill-opacity:1;fill-rule:evenodd;stroke:none;stroke-width:1px;stroke-linecap:butt;stroke-linejoin:miter;stroke-opacity:1"/><path id="path2836" d="M 61.100796,19.38992 L 61.100796,66.061008 L 28.408488,41.259947 L 61.100796,19.38992 z" style="fill:#fff;fill-opacity:1;fill-rule:evenodd;stroke:none;stroke-width:1px;stroke-linecap:butt;stroke-linejoin:miter;stroke-opacity:1"/></g><path style="fill:#000;fill-opacity:1;fill-rule:evenodd;stroke:none;stroke-width:1px;stroke-linecap:butt;stroke-linejoin:miter;stroke-opacity:1" id="path2823" d="M 768.59532,536.84161 L 768.59532,882.54525 L 723.38181,882.54525 L 723.38181,619.93663 L 529.94954,732.12151 L 505.50979,691.79596 L 768.59532,536.84161 z"/><g id="g3738" transform="matrix(4.874931,0,0,4.874931,89.0493,94.2073)"><path id="path2805" d="M 69.668435,8.3421751 L 69.893899,76.432361 L 12.625995,76.432361 L 12.625995,67.864721 L 60.198939,67.864721 L 60.198939,55.238727 L 9.6949602,36.525199 L 69.668435,8.3421751 z" style="fill:#000;fill-opacity:1;fill-rule:evenodd;stroke:none;stroke-width:1px;stroke-linecap:butt;stroke-linejoin:miter;stroke-opacity:1"/><path id="path2807" d="M 61.100796,21.644562 L 31.790451,35.172414 L 60.875332,45.318302 L 61.100796,21.644562 z" style="fill:#fff;fill-opacity:1;fill-rule:evenodd;stroke:none;stroke-width:1px;stroke-linecap:butt;stroke-linejoin:miter;stroke-opacity:1"/></g></g></svg>