<svg xmlns="http://www.w3.org/2000/svg" xmlns:cc="http://web.resource.org/cc/" xmlns:svg="http://www.w3.org/2000/svg" xmlns:xlink="http://www.w3.org/1999/xlink" id="svg8145" width="781.987" height="781.987"><metadata id="metadata3"/><defs id="defs8148"><linearGradient id="linearGradient2861"><stop id="stop2863" offset="0" style="stop-color:#ac9877;stop-opacity:0"/><stop id="stop2865" offset="1" style="stop-color:#ac9877;stop-opacity:1"/></linearGradient><linearGradient id="linearGradient2851"><stop id="stop2853" offset="0" style="stop-color:#ccb986;stop-opacity:0"/><stop id="stop2859" offset=".5" style="stop-color:#c3ad70;stop-opacity:1"/><stop id="stop2855" offset="1" style="stop-color:#ccb986;stop-opacity:0"/></linearGradient><linearGradient id="linearGradient2838"><stop id="stop2840" offset="0" style="stop-color:#797265;stop-opacity:1"/><stop id="stop2842" offset="1" style="stop-color:#797265;stop-opacity:0"/></linearGradient><linearGradient id="linearGradient2828"><stop id="stop2830" offset="0" style="stop-color:#c4a361;stop-opacity:0"/><stop id="stop2836" offset=".5" style="stop-color:#c4a361;stop-opacity:1"/><stop id="stop2832" offset="1" style="stop-color:#c4a361;stop-opacity:0"/></linearGradient><linearGradient id="linearGradient2083"><stop id="stop2091" offset="0" style="stop-color:#b29b7a;stop-opacity:1"/><stop id="stop2825" offset=".75" style="stop-color:#b29b7a;stop-opacity:1"/><stop id="stop2087" offset="1" style="stop-color:#b29b7a;stop-opacity:0"/></linearGradient><linearGradient id="linearGradient18196"><stop id="stop18198" offset="0" style="stop-color:#fff;stop-opacity:0"/><stop id="stop19932" offset=".5" style="stop-color:#3f3f3f;stop-opacity:.070588239"/><stop id="stop19926" offset=".78" style="stop-color:#000;stop-opacity:.3298969"/><stop id="stop19928" offset=".93" style="stop-color:#000;stop-opacity:.52156866"/><stop id="stop18200" offset="1" style="stop-color:#000;stop-opacity:.65098041"/></linearGradient><radialGradient id="radialGradient22276" cx="1142.974" cy="629.836" r="184.272" fx="1142.974" fy="629.836" gradientTransform="scale(1.067735,0.936562)" gradientUnits="userSpaceOnUse" xlink:href="#linearGradient18196"/><radialGradient id="radialGradient2089" cx="429.063" cy="193.359" r="115.327" fx="429.063" fy="193.359" gradientTransform="matrix(1.326247,0.756671,-0.237671,0.416578,-86.79463,-211.5711)" gradientUnits="userSpaceOnUse" xlink:href="#linearGradient2083"/><radialGradient id="radialGradient2834" cx="389.153" cy="296.435" r="145.299" fx="389.153" fy="296.435" gradientTransform="matrix(1.261760,0.694540,-9.571303e-2,0.173880,-73.92675,-49.29122)" gradientUnits="userSpaceOnUse" xlink:href="#linearGradient2828"/><linearGradient id="linearGradient2849" x1="450.336" x2="434.037" y1="174.506" y2="202.848" gradientUnits="userSpaceOnUse" xlink:href="#linearGradient2838"/><radialGradient id="radialGradient2857" cx="334.724" cy="404.737" r="134.425" fx="334.724" fy="404.737" gradientTransform="matrix(1.423258,0.835563,-0.102514,0.174618,-104.3701,22.23215)" gradientUnits="userSpaceOnUse" xlink:href="#linearGradient2851"/><radialGradient id="radialGradient2867" cx="335.283" cy="342.661" r="128.338" fx="335.283" fy="342.661" gradientTransform="matrix(1.365389,0.812582,-0.233740,0.392756,-33.91345,-36.51279)" gradientUnits="userSpaceOnUse" xlink:href="#linearGradient2861"/></defs><rect style="fill:#88ee8d;fill-opacity:1;stroke:none;stroke-width:.625;stroke-miterlimit:4;stroke-dasharray:none;stroke-opacity:1" id="rect1347" width="739.634" height="735.391" x="-1.414" y=".55"/><g id="g2870" transform="translate(1.414214,73.53911)"><path id="path2093" d="M 1416.9885 589.88031 A 196.59508 172.42354 0 1 1 1023.7984,589.88031 A 196.59508 172.42354 0 1 1 1416.9885 589.88031 z" style="fill:#e7c278;fill-opacity:1;fill-rule:nonzero;stroke:none;stroke-width:.31654838;stroke-linecap:round;stroke-linejoin:round;stroke-miterlimit:4;stroke-dashoffset:0;stroke-opacity:1" transform="matrix(0.757276,0.437214,-0.454310,0.786887,-286.1225,-691.8792)"/><path id="path20317" d="M 202.71947,299.44658 C 208.38996,422.54373 348.39642,503.86621 459.39513,447.27144 C 365.21205,418.42218 272.86092,365.77250 202.71947,299.44658 z" style="fill:url(#radialGradient2867);fill-opacity:1;fill-rule:evenodd;stroke:none;stroke-width:.5;stroke-linecap:butt;stroke-linejoin:miter;stroke-miterlimit:4;stroke-opacity:1"/><path id="rect9686" d="M 377.87820,147.06490 C 441.81993,156.53001 478.71921,187.73644 503.66094,219.70155 C 518.13363,237.67709 530.84601,264.79737 534.61925,287.64041 C 454.21914,272.64649 362.13235,223.37223 303.96474,154.15633 C 326.76049,146.78441 351.91070,143.53306 377.87820,147.06490 z" style="fill:url(#radialGradient2089);fill-opacity:1;fill-rule:nonzero;stroke:none;stroke-width:.4375;stroke-linecap:round;stroke-linejoin:round;stroke-miterlimit:4;stroke-dashoffset:0;stroke-opacity:1"/><path id="path11205" d="M 376.79648,146.92869 C 411.72078,185.96055 460.54533,212.90035 505.45448,221.99848 C 468.61901,174.43424 423.93168,152.51279 376.79648,146.92869 z" style="fill:url(#linearGradient2849);fill-opacity:1;fill-rule:evenodd;stroke:none;stroke-width:.5;stroke-linecap:butt;stroke-linejoin:miter;stroke-miterlimit:4;stroke-opacity:1"/><path id="rect17282" d="M 202.58476,285.35277 C 279.80473,357.10719 368.20139,411.04895 471.32596,440.47925 C 467.76379,443.04537 463.75773,444.98804 459.72414,447.09839 C 363.67074,418.14003 275.81952,367.48021 202.66126,298.86639 C 202.39134,293.29225 202.46298,290.33359 202.58476,285.35277 z" style="fill:url(#radialGradient2857);fill-opacity:1;fill-rule:nonzero;stroke:none;stroke-width:.5;stroke-linecap:round;stroke-linejoin:round;stroke-miterlimit:4;stroke-dashoffset:0;stroke-opacity:1"/><path id="rect12729" d="M 248.88967,186.52076 C 315.86142,260.54075 446.02105,338.84748 534.01701,351.26923 C 533.42901,353.71899 532.78166,356.13448 532.13438,358.55002 C 443.47289,346.30658 310.77166,267.09499 243.41949,191.86009 C 245.22707,190.07119 247.01090,188.26856 248.88967,186.52076 z" style="fill:url(#radialGradient2834);fill-opacity:1;fill-rule:nonzero;stroke:none;stroke-width:.5;stroke-linecap:round;stroke-linejoin:round;stroke-miterlimit:4;stroke-dashoffset:0;stroke-opacity:1"/></g><g id="g1346" transform="translate(1.414214,73.53911)"><path id="path8162" d="M 1416.9885 589.88031 A 196.59508 172.42354 0 1 1 1023.7984,589.88031 A 196.59508 172.42354 0 1 1 1416.9885 589.88031 z" style="fill:url(#radialGradient22276);fill-opacity:1;fill-rule:nonzero;stroke:none;stroke-width:.31654838;stroke-linecap:round;stroke-linejoin:round;stroke-miterlimit:4;stroke-dashoffset:0;stroke-opacity:1" transform="matrix(0.757276,0.437214,-0.454310,0.786887,-286.1225,-691.8792)"/></g><g id="g16666" transform="matrix(0.778907,0.449703,-0.449703,0.778907,-334.0086,-640.6897)"><path id="path30933" d="M 1073.3438,517.75000 C 918.35854,530.11674 809.50000,559.11597 809.50000,592.87500 C 809.50000,637.86332 1002.8104,674.37500 1241.0000,674.37500 C 1479.1896,674.37502 1672.5313,637.86329 1672.5312,592.87500 C 1672.5313,559.96071 1568.8269,531.64221 1420.0000,518.78125 C 1420.2794,519.35154 1420.4774,519.95785 1420.7500,520.53125 C 1564.0315,533.27743 1663.5312,560.71586 1663.5312,592.59375 C 1663.5313,636.59229 1474.4494,672.31250 1241.5000,672.31250 C 1008.5506,672.31252 819.50000,636.59230 819.50000,592.59375 C 819.50000,559.94909 923.67621,531.91227 1072.5312,519.59375 C 1072.8212,518.99033 1073.0469,518.34897 1073.3438,517.75000 z" style="fill:#ada293;fill-opacity:1;fill-rule:nonzero;stroke:none;stroke-width:.61603445;stroke-linecap:round;stroke-linejoin:round;stroke-miterlimit:4;stroke-dashoffset:0;stroke-opacity:1"/><path id="path31697" d="M 1072.3125,520.06250 C 924.79567,532.36774 821.62500,560.19374 821.62500,592.59375 C 821.62500,636.37130 1009.7206,671.90625 1241.5000,671.90625 C 1473.2794,671.90627 1661.4062,636.37132 1661.4062,592.59375 C 1661.4062,560.95839 1562.9310,533.69553 1420.9688,520.96875 C 1422.3741,523.94787 1423.7491,526.93919 1424.9688,530.00000 C 1541.4522,542.21363 1620.4375,565.66378 1620.4375,592.59375 C 1620.4375,632.09871 1450.6583,664.15625 1241.5000,664.15625 C 1032.3417,664.15624 862.59375,632.09873 862.59375,592.59375 C 862.59376,564.88673 946.24963,540.89097 1068.2812,529.00000 C 1069.5143,525.95740 1070.9103,523.00455 1072.3125,520.06250 z" style="fill:#ada393;fill-opacity:1;fill-rule:nonzero;stroke:none;stroke-width:.61603445;stroke-linecap:round;stroke-linejoin:round;stroke-miterlimit:4;stroke-dashoffset:0;stroke-opacity:1"/><path id="path31705" d="M 1061.3750,550.09375 C 995.39909,560.08148 953.03124,575.39329 953.03125,592.59375 C 953.03125,622.66954 1082.2643,647.06250 1241.5000,647.06250 C 1400.7357,647.06249 1530.0000,622.66956 1530.0000,592.59375 C 1530.0000,576.30670 1491.8907,561.73694 1431.8438,551.75000 C 1432.7971,555.71061 1433.6546,559.71376 1434.3125,563.78125 C 1467.5758,571.70795 1487.5938,581.70216 1487.5938,592.59375 C 1487.5937,618.24959 1377.3344,639.06250 1241.5000,639.06250 C 1105.6656,639.06249 995.43750,618.24961 995.43750,592.59375 C 995.43750,580.63725 1019.5911,569.77054 1058.9062,561.53125 C 1059.6010,557.67188 1060.4173,553.85099 1061.3750,550.09375 z" style="fill:#343423;fill-opacity:.72972971;fill-rule:nonzero;stroke:none;stroke-width:.61603445;stroke-linecap:round;stroke-linejoin:round;stroke-miterlimit:4;stroke-dashoffset:0;stroke-opacity:1"/><path id="path31701" d="M 1067.4375,530.84375 C 950.66132,542.62125 871.09377,565.85797 871.09375,592.59375 C 871.09375,631.21472 1037.0220,662.56250 1241.5000,662.56250 C 1445.9780,662.56249 1611.9374,631.21474 1611.9375,592.59375 C 1611.9375,566.65949 1536.9243,544.05341 1425.8438,531.96875 C 1428.2995,538.38194 1430.2202,545.00525 1431.8438,551.75000 C 1491.8907,561.73695 1530.0000,576.30672 1530.0000,592.59375 C 1530.0001,622.66954 1400.7357,647.06250 1241.5000,647.06250 C 1082.2643,647.06249 953.03125,622.66956 953.03125,592.59375 C 953.03124,575.39328 995.39909,560.08147 1061.3750,550.09375 C 1063.0514,543.51702 1065.0080,537.05888 1067.4375,530.84375 z" style="fill:#d8d4c1;fill-opacity:1;fill-rule:nonzero;stroke:none;stroke-width:.61603445;stroke-linecap:round;stroke-linejoin:round;stroke-miterlimit:4;stroke-dashoffset:0;stroke-opacity:1"/></g></svg>