<svg xmlns="http://www.w3.org/2000/svg" xmlns:cc="http://web.resource.org/cc/" xmlns:svg="http://www.w3.org/2000/svg" id="svg1" width="480" height="480" version="1.0"><metadata id="metadata1351"/><rect style="opacity:1;color:#000;fill:#ffc033;fill-opacity:1;fill-rule:nonzero;stroke:none;stroke-width:35;stroke-linecap:butt;stroke-linejoin:miter;marker:none;marker-start:none;marker-mid:none;marker-end:none;stroke-miterlimit:4;stroke-dasharray:none;stroke-dashoffset:0;stroke-opacity:1;visibility:visible;display:inline;overflow:visible" id="rect4946" width="480" height="480" x="0" y="0"/><g id="g4042" style="stroke:#fff;stroke-width:35;stroke-miterlimit:4;stroke-dasharray:none;stroke-opacity:1" transform="translate(4.000098,4.000068)"><path style="color:#000;fill:none;fill-opacity:1;fill-rule:nonzero;stroke:#fff;stroke-width:40.41089801;stroke-linecap:butt;stroke-linejoin:miter;marker:none;marker-start:none;marker-mid:none;marker-end:none;stroke-miterlimit:4;stroke-dasharray:none;stroke-dashoffset:0;stroke-opacity:1;visibility:visible;display:inline;overflow:visible" id="path4044" d="M 480 256 A 240 96 0 1 1 0,256 A 240 96 0 1 1 480 256 z" transform="matrix(0.866103,0,0,0.866103,32.13533,18.27763)"/><path id="path4046" d="M 480 256 A 240 96 0 1 1 0,256 A 240 96 0 1 1 480 256 z" transform="matrix(0.612427,-0.612427,0.612427,0.612427,-63.76389,230.2011)" style="color:#000;fill:none;fill-opacity:1;fill-rule:nonzero;stroke:#fff;stroke-width:40.4109181;stroke-linecap:butt;stroke-linejoin:miter;marker:none;marker-start:none;marker-mid:none;marker-end:none;stroke-miterlimit:4;stroke-dasharray:none;stroke-dashoffset:0;stroke-opacity:1;visibility:visible;display:inline;overflow:visible"/><path id="path4048" d="M 480 256 A 240 96 0 1 1 0,256 A 240 96 0 1 1 480 256 z" transform="matrix(0,-0.866103,0.866103,0,18.27771,447.8648)" style="color:#000;fill:none;fill-opacity:1;fill-rule:nonzero;stroke:#fff;stroke-width:40.41089801;stroke-linecap:butt;stroke-linejoin:miter;marker:none;marker-start:none;marker-mid:none;marker-end:none;stroke-miterlimit:4;stroke-dasharray:none;stroke-dashoffset:0;stroke-opacity:1;visibility:visible;display:inline;overflow:visible"/><path id="path4050" d="M 480 256 A 240 96 0 1 1 0,256 A 240 96 0 1 1 480 256 z" transform="matrix(-0.612427,-0.612427,0.612427,-0.612427,230.2012,543.7639)" style="color:#000;fill:none;fill-opacity:1;fill-rule:nonzero;stroke:#fff;stroke-width:40.4109181;stroke-linecap:butt;stroke-linejoin:miter;marker:none;marker-start:none;marker-mid:none;marker-end:none;stroke-miterlimit:4;stroke-dasharray:none;stroke-dashoffset:0;stroke-opacity:1;visibility:visible;display:inline;overflow:visible"/><path style="color:#000;fill:#fff3f3;fill-opacity:1;fill-rule:nonzero;stroke:#fff;stroke-width:35;stroke-linecap:butt;stroke-linejoin:miter;marker:none;marker-start:none;marker-mid:none;marker-end:none;stroke-miterlimit:4;stroke-dasharray:none;stroke-dashoffset:0;stroke-opacity:1;visibility:visible;display:inline;overflow:visible" id="path4052" d="M 272 256 A 32 32 0 1 1 208,256 A 32 32 0 1 1 272 256 z" transform="translate(0,-16.00005)"/></g><g id="g4932"><path id="path1353" d="M 480 256 A 240 96 0 1 1 0,256 A 240 96 0 1 1 480 256 z" transform="matrix(0.866103,0,0,0.866103,32.13533,18.27763)" style="color:#000;fill:none;fill-opacity:1;fill-rule:nonzero;stroke:#000;stroke-width:23.09194172;stroke-linecap:butt;stroke-linejoin:miter;marker:none;marker-start:none;marker-mid:none;marker-end:none;stroke-miterlimit:4;stroke-dasharray:none;stroke-dashoffset:0;stroke-opacity:1;visibility:visible;display:inline;overflow:visible"/><path style="color:#000;fill:none;fill-opacity:1;fill-rule:nonzero;stroke:#000;stroke-width:23.0919532;stroke-linecap:butt;stroke-linejoin:miter;marker:none;marker-start:none;marker-mid:none;marker-end:none;stroke-miterlimit:4;stroke-dasharray:none;stroke-dashoffset:0;stroke-opacity:1;visibility:visible;display:inline;overflow:visible" id="use2228" d="M 480 256 A 240 96 0 1 1 0,256 A 240 96 0 1 1 480 256 z" transform="matrix(0.612427,-0.612427,0.612427,0.612427,-63.76389,230.2011)"/><path style="color:#000;fill:none;fill-opacity:1;fill-rule:nonzero;stroke:#000;stroke-width:23.09194172;stroke-linecap:butt;stroke-linejoin:miter;marker:none;marker-start:none;marker-mid:none;marker-end:none;stroke-miterlimit:4;stroke-dasharray:none;stroke-dashoffset:0;stroke-opacity:1;visibility:visible;display:inline;overflow:visible" id="use2232" d="M 480 256 A 240 96 0 1 1 0,256 A 240 96 0 1 1 480 256 z" transform="matrix(0,-0.866103,0.866103,0,18.27771,447.8648)"/><path style="color:#000;fill:none;fill-opacity:1;fill-rule:nonzero;stroke:#000;stroke-width:23.0919532;stroke-linecap:butt;stroke-linejoin:miter;marker:none;marker-start:none;marker-mid:none;marker-end:none;stroke-miterlimit:4;stroke-dasharray:none;stroke-dashoffset:0;stroke-opacity:1;visibility:visible;display:inline;overflow:visible" id="use2234" d="M 480 256 A 240 96 0 1 1 0,256 A 240 96 0 1 1 480 256 z" transform="matrix(-0.612427,-0.612427,0.612427,-0.612427,230.2012,543.7639)"/><path id="path2242" d="M 272 256 A 32 32 0 1 1 208,256 A 32 32 0 1 1 272 256 z" transform="translate(0,-16.00005)" style="color:#000;fill:#000;fill-opacity:1;fill-rule:nonzero;stroke:#000;stroke-width:20;stroke-linecap:butt;stroke-linejoin:miter;marker:none;marker-start:none;marker-mid:none;marker-end:none;stroke-miterlimit:4;stroke-dasharray:none;stroke-dashoffset:0;stroke-opacity:1;visibility:visible;display:inline;overflow:visible"/></g></svg>