<svg xmlns="http://www.w3.org/2000/svg" xmlns:cc="http://web.resource.org/cc/" xmlns:svg="http://www.w3.org/2000/svg" xmlns:xlink="http://www.w3.org/1999/xlink" id="svg1" width="48mm" height="48mm" version="1.0"><metadata id="metadata3235"/><defs id="defs3233"><linearGradient id="linearGradient4147"><stop style="stop-color:#849885;stop-opacity:1" id="stop4149" offset="0"/><stop style="stop-color:#536652;stop-opacity:1" id="stop4151" offset="1"/></linearGradient><radialGradient id="radialGradient3179" cx="399.934" cy="404.929" r="33.117" fx="399.934" fy="404.929" gradientTransform="matrix(0.513962,-0.206519,0.959643,2.388249,-195.9129,-496.5339)" gradientUnits="userSpaceOnUse" xlink:href="#linearGradient2233"/><radialGradient id="radialGradient3177" cx="386.313" cy="398.866" r="33.117" fx="386.313" fy="398.866" gradientTransform="matrix(1.154521,-0.633559,1.238238,2.256416,-564.9054,-272.3634)" gradientUnits="userSpaceOnUse" xlink:href="#linearGradient2233"/><linearGradient id="linearGradient3139"><stop id="stop3141" offset="0" style="stop-color:#ff375c;stop-opacity:1"/><stop id="stop3143" offset="1" style="stop-color:#961724;stop-opacity:1"/></linearGradient><linearGradient id="linearGradient3150" x1="535.775" x2="563.676" y1="441.43" y2="544.498" gradientUnits="userSpaceOnUse" xlink:href="#linearGradient3139"/><radialGradient id="radialGradient2245" cx="461.513" cy="501.139" r="61.114" fx="461.513" fy="501.139" gradientTransform="matrix(0.997885,0.31731,-0.435764,1.370402,219.3543,-339.4472)" gradientUnits="userSpaceOnUse" xlink:href="#linearGradient2233"/><linearGradient id="linearGradient3124" x1="406.112" x2="420.234" y1="452.539" y2="648.544" gradientUnits="userSpaceOnUse" xlink:href="#linearGradient2233"/><radialGradient id="radialGradient2247" cx="276.162" cy="488.705" r="160.109" fx="276.162" fy="488.705" gradientTransform="matrix(1,0,0,0.694006,3.373602e-14,163.1386)" gradientUnits="userSpaceOnUse" xlink:href="#linearGradient2233"/><linearGradient id="linearGradient3189" x1="-283.631" x2="-283.333" y1="475.076" y2="503.499" gradientTransform="translate(98.07745,51.69997)" gradientUnits="userSpaceOnUse" xlink:href="#linearGradient2233"/><radialGradient id="radialGradient3183" cx="200.366" cy="583.787" r="61.114" fx="200.366" fy="583.787" gradientTransform="matrix(0.443426,0.17596,-0.170531,0.429745,164.2494,243.9769)" gradientUnits="userSpaceOnUse" xlink:href="#linearGradient2233"/><linearGradient id="linearGradient3126" x1="328.805" x2="418.708" y1="653.352" y2="653.352" gradientTransform="translate(-747.5129,2.450817e-14)" gradientUnits="userSpaceOnUse" xlink:href="#linearGradient2233"/><linearGradient id="linearGradient2233"><stop style="stop-color:#ffc6ae;stop-opacity:1" id="stop2235" offset="0"/><stop style="stop-color:#ff837a;stop-opacity:1" id="stop2237" offset="1"/></linearGradient><linearGradient id="linearGradient3128" x1="216.173" x2="306.076" y1="647.796" y2="647.796" gradientTransform="translate(-522.2489,2.450817e-14)" gradientUnits="userSpaceOnUse" xlink:href="#linearGradient2233"/><linearGradient id="linearGradient4153" x1="188.438" x2="338.94" y1="72.643" y2="72.643" gradientUnits="userSpaceOnUse" xlink:href="#linearGradient4147"/><linearGradient id="linearGradient4161" x1="253.393" x2="247.617" y1="50.777" y2="100.94" gradientUnits="userSpaceOnUse" xlink:href="#linearGradient4147"/><linearGradient id="linearGradient4179" x1="241.174" x2="297.78" y1="53.993" y2="95.152" gradientUnits="userSpaceOnUse" xlink:href="#linearGradient4147"/><linearGradient id="linearGradient4183" x1="241.174" x2="297.78" y1="53.993" y2="95.152" gradientUnits="userSpaceOnUse" xlink:href="#linearGradient4147"/><linearGradient id="linearGradient4194" x1="188.438" x2="338.94" y1="72.643" y2="72.643" gradientUnits="userSpaceOnUse" xlink:href="#linearGradient4147"/><linearGradient id="linearGradient4196" x1="241.174" x2="297.78" y1="53.993" y2="95.152" gradientUnits="userSpaceOnUse" xlink:href="#linearGradient4147"/><linearGradient id="linearGradient4206" x1="188.438" x2="338.94" y1="72.643" y2="72.643" gradientUnits="userSpaceOnUse" xlink:href="#linearGradient4147"/><linearGradient id="linearGradient4208" x1="241.174" x2="297.78" y1="53.993" y2="95.152" gradientUnits="userSpaceOnUse" xlink:href="#linearGradient4147"/><linearGradient id="linearGradient4211" x1="241.174" x2="297.78" y1="53.993" y2="95.152" gradientTransform="matrix(0.964455,-0.264246,0.264246,0.964455,-191.505,89.57238)" gradientUnits="userSpaceOnUse" xlink:href="#linearGradient4147"/><linearGradient id="linearGradient4214" x1="188.438" x2="338.94" y1="72.643" y2="72.643" gradientTransform="matrix(0.964455,-0.264246,0.264246,0.964455,-191.505,89.57238)" gradientUnits="userSpaceOnUse" xlink:href="#linearGradient4147"/></defs><rect style="opacity:1;color:#000;fill:#d8d8d8;fill-opacity:1;fill-rule:nonzero;stroke:none;stroke-width:35.81899261;stroke-linecap:butt;stroke-linejoin:miter;marker:none;marker-start:none;marker-mid:none;marker-end:none;stroke-miterlimit:4;stroke-dasharray:none;stroke-dashoffset:0;stroke-opacity:1;visibility:visible;display:inline;overflow:visible" id="rect3266" width="170.079" height="170.079" x="0" y="0"/><path style="opacity:.22033898;color:#000;fill:#828780;fill-opacity:1;fill-rule:nonzero;stroke:none;stroke-width:35.81899261;stroke-linecap:butt;stroke-linejoin:miter;marker:none;marker-start:none;marker-mid:none;marker-end:none;stroke-miterlimit:4;stroke-dasharray:none;stroke-dashoffset:0;stroke-opacity:1;visibility:visible;display:inline;overflow:visible" id="path4220" d="M 126.59375,9.5625 C 118.6096,31.930615 101.97718,52.331497 78.8125,59.875 C 55.956912,68.817889 32.362421,76.793261 10.15625,87.375 C 0.83500142,94.341304 1.7824301,107.66142 5.5,117.40625 C 7.2868359,128.67839 17.851761,139.34935 29.90625,136.46875 C 43.909868,134.08649 57.567707,130.1888 71.552991,127.65915 C 89.773638,123.83987 108.07107,117.58166 126.875,119.0625 C 139.71548,120.78833 151.46604,128.22311 159.6875,138.28125 C 175.88158,105.16379 168.80164,64.716677 149.1575,34.683252 C 143.00435,24.65756 135.6096,15.519057 127.875,6.6875 C 127.44792,7.6458333 127.02083,8.6041667 126.59375,9.5625 z"/><path style="opacity:.35254237;color:#000;fill:#828780;fill-opacity:1;fill-rule:nonzero;stroke:none;stroke-width:35.81899261;stroke-linecap:butt;stroke-linejoin:miter;marker:none;marker-start:none;marker-mid:none;marker-end:none;stroke-miterlimit:4;stroke-dasharray:none;stroke-dashoffset:0;stroke-opacity:1;visibility:visible;display:inline;overflow:visible" id="path4200" d="M 127.09375,13.28125 C 118.60232,36.371433 100.22666,56.130567 76.134528,62.81015 C 54.710915,71.719245 32.361561,78.937921 11.4375,88.90625 C 3.3651077,94.988751 3.5511915,106.61792 7.125,115.125 C 8.4564563,124.81535 15.49168,135.51429 26.4375,134.78125 C 38.038545,134.05681 49.037415,129.53931 60.571889,128.0108 C 80.890784,123.96714 100.97101,117.35754 121.81151,116.6069 C 136.0523,117.02899 149.69797,123.94331 159.09375,134.65625 C 173.42583,102.83879 166.1994,65.152917 147.9855,36.580007 C 142.32139,27.240663 135.58224,18.628876 128.40625,10.375 C 127.96875,11.34375 127.53125,12.3125 127.09375,13.28125 z M 56.15625,101.21875 C 55.984572,102.20423 50.016805,102.97767 54.375,101.65625 C 54.954525,101.46291 55.547643,101.28192 56.15625,101.21875 z"/><g id="g4189" transform="matrix(0.964455,-0.264246,0.264246,0.964455,-191.505,89.57238)"><path id="path4181" d="M 325.16439,11.25 C 310.78172,30.19447 288.66149,43.310356 264.61873,43.629917 C 241.93611,46.241328 219.05213,48.117479 196.47689,51.09375 C 187.4157,53.637646 183.68097,63.856024 185.16439,72.53125 C 184.21558,80.720304 185.35484,90.863717 193.63314,94.90625 C 202.4178,98.874039 212.80674,96.501158 222.19761,97.952215 C 243.72556,99.579205 265.55226,99.256587 286.89274,102.11321 C 302.89276,104.78428 317.05159,115.04298 324.69564,129.34375 C 344.32373,103.89012 347.06763,69.142461 338.50814,38.875 C 335.73564,28.515185 331.82844,18.424893 327.19564,8.71875 C 326.51856,9.5625 325.84147,10.40625 325.16439,11.25 z M 204.00814,71.75 C 207.55339,72.663649 213.24684,70.23356 215.97689,72.34375 C 215.92133,75.461899 209.31674,72.518083 207.13314,73.53125 C 205.79028,74.327041 201.53975,73.331375 204.00814,71.75 z M 225.50814,71.75 C 228.66163,72.916566 235.3088,69.342779 236.60189,73.625 C 235.15584,77.808887 227.99343,74.881731 224.72689,75.15625 C 223.26829,74.32043 223.85881,71.902 225.50814,71.75 z M 247.10189,71.75 C 248.8206,71.525349 258.50349,70.835803 255.00814,73.53125 C 253.07628,72.550733 245.96819,75.522012 246.53939,72.125 C 246.71706,71.955144 246.90922,71.790253 247.10189,71.75 z" style="opacity:1;color:#000;fill:#828780;fill-opacity:1;fill-rule:nonzero;stroke:none;stroke-width:35.81899261;stroke-linecap:butt;stroke-linejoin:miter;marker:none;marker-start:none;marker-mid:none;marker-end:none;stroke-miterlimit:4;stroke-dasharray:none;stroke-dashoffset:0;stroke-opacity:1;visibility:visible;display:inline;overflow:visible"/><path id="rect4141" d="M 328.65625,12.5 C 314.5966,30.721412 293.45648,44.455383 269.75,45.3125 L 203.25,52.375 C 195.41162,52.374998 189.09375,58.692878 189.09375,66.53125 L 189.09375,80.6875 C 189.09374,88.525874 195.41163,94.84375 203.25,94.84375 L 275.96875,98.6875 C 294.3867,99.330242 314.0889,105.10797 326.71875,125.6875 C 353.08675,88.388556 342.80493,42.724601 328.65625,12.5 z M 205.78125,69.75 C 205.82744,69.744238 205.85943,69.75354 205.90625,69.75 C 205.93388,69.747911 205.97295,69.749837 206,69.75 C 206.03608,69.750696 206.08742,69.75 206.125,69.75 L 217.0625,69.75 C 218.66581,69.75 219.9375,71.052947 219.9375,72.65625 C 219.9375,74.259552 218.6658,75.53125 217.0625,75.53125 L 206.125,75.53125 C 204.5217,75.531248 203.21875,74.259553 203.21875,72.65625 C 203.21875,71.175855 204.34943,69.928628 205.78125,69.75 z M 227.25,69.75 C 227.29633,69.744788 227.32818,69.75354 227.375,69.75 C 227.47324,69.742571 227.55604,69.75 227.65625,69.75 L 236.65625,69.75 C 238.79399,69.75 240.53125,71.487262 240.53125,73.625 C 240.53125,75.762736 238.79399,77.46875 236.65625,77.46875 L 227.65625,77.46875 C 225.51851,77.468747 223.8125,75.762738 223.8125,73.625 C 223.8125,71.635222 225.31967,69.967157 227.25,69.75 z M 248.875,69.75 C 248.92119,69.744238 248.95318,69.75354 249,69.75 C 249.02763,69.747911 249.0667,69.749837 249.09375,69.75 C 249.12983,69.750696 249.18117,69.75 249.21875,69.75 L 256.9375,69.75 C 258.54081,69.75 259.8125,71.052947 259.8125,72.65625 C 259.81251,74.259552 258.5408,75.53125 256.9375,75.53125 L 249.21875,75.53125 C 247.61545,75.531248 246.3125,74.259553 246.3125,72.65625 C 246.3125,71.175855 247.44318,69.928628 248.875,69.75 z" style="opacity:1;color:#000;fill:url(#linearGradient4194);fill-opacity:1;fill-rule:nonzero;stroke:none;stroke-width:35.81899261;stroke-linecap:butt;stroke-linejoin:miter;marker:none;marker-start:none;marker-mid:none;marker-end:none;stroke-miterlimit:4;stroke-dasharray:none;stroke-dashoffset:0;stroke-opacity:1;visibility:visible;display:inline;overflow:visible"/><path style="opacity:.54237288;color:#000;fill:url(#linearGradient4196);fill-opacity:1;fill-rule:nonzero;stroke:none;stroke-width:35.81899261;stroke-linecap:butt;stroke-linejoin:miter;marker:none;marker-start:none;marker-mid:none;marker-end:none;stroke-miterlimit:4;stroke-dasharray:none;stroke-dashoffset:0;stroke-opacity:1;visibility:visible;display:inline;overflow:visible" id="path4177" d="M 328.65625,12.5 C 314.5966,30.721412 293.45648,44.455383 269.75,45.3125 L 203.25,52.375 C 195.41162,52.374998 189.09375,58.692878 189.09375,66.53125 L 189.09375,80.6875 C 189.09374,88.525874 195.41163,94.84375 203.25,94.84375 L 275.96875,98.6875 C 294.3867,99.330242 314.0889,105.10797 326.71875,125.6875 C 353.08675,88.388556 342.80493,42.724601 328.65625,12.5 z M 205.78125,69.75 C 205.82744,69.744238 205.85943,69.75354 205.90625,69.75 C 205.93388,69.747911 205.97295,69.749837 206,69.75 C 206.03608,69.750696 206.08742,69.75 206.125,69.75 L 217.0625,69.75 C 218.66581,69.75 219.9375,71.052947 219.9375,72.65625 C 219.9375,74.259552 218.6658,75.53125 217.0625,75.53125 L 206.125,75.53125 C 204.5217,75.531248 203.21875,74.259553 203.21875,72.65625 C 203.21875,71.175855 204.34943,69.928628 205.78125,69.75 z M 227.25,69.75 C 227.29633,69.744788 227.32818,69.75354 227.375,69.75 C 227.47324,69.742571 227.55604,69.75 227.65625,69.75 L 236.65625,69.75 C 238.79399,69.75 240.53125,71.487262 240.53125,73.625 C 240.53125,75.762736 238.79399,77.46875 236.65625,77.46875 L 227.65625,77.46875 C 225.51851,77.468747 223.8125,75.762738 223.8125,73.625 C 223.8125,71.635222 225.31967,69.967157 227.25,69.75 z M 248.875,69.75 C 248.92119,69.744238 248.95318,69.75354 249,69.75 C 249.02763,69.747911 249.0667,69.749837 249.09375,69.75 C 249.12983,69.750696 249.18117,69.75 249.21875,69.75 L 256.9375,69.75 C 258.54081,69.75 259.8125,71.052947 259.8125,72.65625 C 259.81251,74.259552 258.5408,75.53125 256.9375,75.53125 L 249.21875,75.53125 C 247.61545,75.531248 246.3125,74.259553 246.3125,72.65625 C 246.3125,71.175855 247.44318,69.928628 248.875,69.75 z"/></g></svg>