<svg xmlns="http://www.w3.org/2000/svg" xmlns:cc="http://web.resource.org/cc/" xmlns:svg="http://www.w3.org/2000/svg" xmlns:xlink="http://www.w3.org/1999/xlink" id="svg928" width="480" height="480" version="1.0"><defs id="defs930"><linearGradient id="linearGradient5958"><stop id="stop5959" offset="0" style="stop-color:#ffe644;stop-opacity:1"/><stop id="stop5960" offset="1" style="stop-color:#523d00;stop-opacity:1"/></linearGradient><linearGradient id="linearGradient1437" x1="434.336" x2="730.884" y1="14.338" y2="312.132" gradientUnits="userSpaceOnUse" xlink:href="#linearGradient5958"/><linearGradient id="linearGradient1439" x1="929.071" x2="694.074" y1="220.462" y2="113.181" gradientTransform="scale(0.783943,1.275603)" gradientUnits="userSpaceOnUse" xlink:href="#linearGradient5958"/></defs><metadata id="metadata931"/><rect style="opacity:1;color:#000;fill:#b76e88;fill-opacity:1;fill-rule:nonzero;stroke:none;stroke-width:35;stroke-linecap:butt;stroke-linejoin:miter;marker:none;marker-start:none;marker-mid:none;marker-end:none;stroke-miterlimit:4;stroke-dasharray:none;stroke-dashoffset:0;stroke-opacity:1;visibility:visible;display:inline;overflow:visible" id="rect1441" width="480" height="480" x="0" y="0"/><path id="path563" d="M 0,56.7061 L 113.398,113.386 L 226.772,56.7061 L 113.398,8.2781e-15 L 0,56.7061 z" style="opacity:.98999999;fill:#000;fill-opacity:.18039198;fill-rule:evenodd;stroke:none;stroke-width:3.54330993;stroke-linecap:butt;stroke-linejoin:bevel;stroke-dashoffset:0;stroke-opacity:1;display:none" transform="scale(3.527399,3.526957)"/><g id="g1415" transform="matrix(1.471216,0,0,1.471216,-472.4794,-55.10682)"><use id="use1385" width="800" height="400" x="0" y="0" transform="matrix(-0.515038,0.857167,-0.857167,-0.515038,959.8103,-238.0488)" xlink:href="#g6585"/><use id="use1413" width="800" height="400" x="0" y="0" transform="translate(-50.15033,-133.6242)" xlink:href="#g6585"/><use id="use1401" width="800" height="400" x="0" y="0" transform="matrix(-0.97437,-0.224951,0.224951,-0.97437,917.1405,380.3493)" xlink:href="#g6585"/><use id="use1397" width="800" height="400" x="0" y="0" transform="translate(87.71322,138.8399)" xlink:href="#g6585"/><use id="use1409" width="800" height="400" x="0" y="0" transform="translate(126.2713,7.990337)" xlink:href="#g6585"/><use id="use1403" width="800" height="400" x="0" y="0" transform="translate(45.97888,83.47551)" xlink:href="#g6585"/><g id="g6585" transform="matrix(0.289826,0,0,0.289826,311.0191,128.9354)"><path style="fill:#ffcb00;fill-opacity:1;fill-rule:evenodd;stroke:url(#linearGradient1437);stroke-width:37.5;stroke-linecap:butt;stroke-linejoin:miter;stroke-miterlimit:4;stroke-opacity:1" id="path5334" d="M 800 200 A 200 200 0 1 1 400,200 A 200 200 0 1 1 800 200 z"/><path transform="translate(-14.16768,0)" style="fill:#deaa04;fill-opacity:1;fill-rule:evenodd;stroke:url(#linearGradient1439);stroke-width:12.5;stroke-linecap:butt;stroke-linejoin:miter;stroke-miterlimit:4;stroke-opacity:1" id="path5962" d="M 700,300 C 700,300 713.65465,240.20808 706.82733,188.38367 C 700,136.55927 712.58559,50 639.16768,50 C 541.27713,50 557.19783,150 557.19783,150 C 557.19783,150 525,184.26456 525,200 C 525,215.73544 561.43107,225 561.43107,225 C 561.43107,225 610.37635,222.36318 581.58502,239.92303 C 552.79368,257.48288 541.40533,242.36743 550,266.12028 C 558.59467,289.87313 610.37635,300 610.37635,300 L 600,356.81299 L 700,300 z"/></g><use id="use1379" width="800" height="400" x="0" y="0" transform="translate(37.87074,-44.43933)" xlink:href="#g6585"/><use id="use1383" width="800" height="400" x="0" y="0" transform="translate(-12.54461,49.80829)" xlink:href="#g6585"/><use id="use1387" width="800" height="400" x="0" y="0" transform="matrix(-0.515038,0.857167,-0.857167,-0.515038,767.3284,-173.0901)" xlink:href="#g6585"/><use id="use1411" width="800" height="400" x="0" y="0" transform="matrix(-0.97437,-0.224951,0.224951,-0.97437,865.4445,639.079)" xlink:href="#g6585"/><use id="use1389" width="800" height="400" x="0" y="0" transform="translate(-73.75968,64.50088)" xlink:href="#g6585"/><use id="use1391" width="800" height="400" x="0" y="0" transform="matrix(-0.766045,-0.642788,0.642788,-0.766045,794.4181,661.5695)" xlink:href="#g6585"/><use id="use1407" width="800" height="400" x="0" y="0" transform="matrix(0.731354,-0.681998,0.681998,0.731354,-48.26066,299.654)" xlink:href="#g6585"/><use id="use1393" width="800" height="400" x="0" y="0" transform="translate(-121.9808,15.73163)" xlink:href="#g6585"/><use id="use1395" width="800" height="400" x="0" y="0" transform="matrix(-0.515038,0.857167,-0.857167,-0.515038,1005.082,-60.66433)" xlink:href="#g6585"/><use id="use1399" width="800" height="400" x="0" y="0" transform="translate(96.07937,-44.44111)" xlink:href="#g6585"/><use id="use1405" width="800" height="400" x="0" y="0" transform="matrix(0.34202,-0.939693,0.939693,0.34202,75.46904,579.0678)" xlink:href="#g6585"/></g></svg>