<svg xmlns="http://www.w3.org/2000/svg" xmlns:cc="http://web.resource.org/cc/" xmlns:svg="http://www.w3.org/2000/svg" id="svg1" width="48mm" height="48mm"><metadata id="metadata2504"/><rect id="rect604" width="170.079" height="170.079" style="font-size:12px;fill:red;fill-opacity:1;fill-rule:evenodd;stroke-width:1pt" x="0" y="0"/><g id="g5727" transform="matrix(1.288883,0,0,1.288883,-24.28361,-25.3961)"><path style="font-size:12px;fill:#ffe600;fill-rule:evenodd;stroke:#000;stroke-width:.90574255pt" id="path562" d="M 77.883829,131.17627 C 80.929326,135.12299 89.004392,134.95252 92.342017,131.1617 L 92.130417,57.899199 L 77.709923,58.058542 L 77.883829,131.17627 z"/><path style="font-size:12px;fill:#ffe600;fill-rule:evenodd;stroke:#000;stroke-width:1.07085061;stroke-linejoin:round" id="path577" d="M 59.474633,40.163333 L 59.76419,57.865789 L 91.494761,57.910336 L 111.0442,50.397244 L 110.97138,46.019604 L 95.50745,40.403203 L 59.474633,40.163333 z"/><path style="font-size:12px;fill:#ffe600;fill-rule:evenodd;stroke:#000;stroke-width:.85668049pt;stroke-linejoin:round" id="path563" d="M 62.046386,101.996 C 74.215525,106.01811 94.424606,110.95945 117.61836,95.229074 C 116.18257,93.861811 114.74763,92.495405 113.31183,91.128142 C 93.311779,104.60288 76.296401,100.54478 65.942567,96.869618 C 64.64384,98.578697 63.345113,100.28692 62.046386,101.996 z"/><path style="font-size:12px;fill:#ffe600;fill-rule:evenodd;stroke:#000;stroke-width:1.07085061;stroke-linejoin:round" id="path564" d="M 48.691601,118.49996 L 84.958292,72.727491 L 120.94828,118.03906 L 92.156975,62.946764 L 77.022009,63.315137 L 48.691601,118.49996 z"/><path style="font-size:12px;fill:#ffe600;fill-rule:evenodd;stroke:#000;stroke-width:.85668049pt;stroke-linejoin:round" id="path565" d="M 59.763334,45.509022 L 59.908969,53.315099 L 76.832683,58.055972 L 91.494761,57.910336 L 111.0442,50.397244 L 110.97138,46.019604 L 95.50745,40.403203 L 75.737846,40.403203 L 59.763334,45.509022 z"/><path transform="matrix(0.988162,0,0,1.005484,-304.8711,-374.4964)" style="font-size:12px;fill:#ffe600;fill-rule:evenodd;stroke:#000;stroke-width:1pt" id="path559" d="M 401.99219 433.1239 A 8.1445313 7.8710942 0 1 1 385.70313,433.1239 A 8.1445313 7.8710942 0 1 1 401.99219 433.1239 z"/><path transform="matrix(0.902022,0,0,0.864448,-270.5427,-312.9903)" style="font-size:12px;fill:#ffe600;fill-rule:evenodd;stroke:#000;stroke-width:1.25" id="path558" d="M 397.8299 432.63797 A 4.4283142 4.3086238 0 1 1 388.97327,432.63797 A 4.4283142 4.3086238 0 1 1 397.8299 432.63797 z"/></g></svg>