<svg xmlns="http://www.w3.org/2000/svg" xmlns:cc="http://web.resource.org/cc/" xmlns:svg="http://www.w3.org/2000/svg" xmlns:xlink="http://www.w3.org/1999/xlink" id="svg2" width="326.667" height="306.828" enable-background="new 0 0 323.19 306.828" overflow="visible" space="preserve" viewBox="0 0 323.19 306.828"><metadata id="metadata4"/><rect style="fill:#69e1e1;fill-opacity:1;stroke:none;stroke-width:.625;stroke-miterlimit:4;stroke-dasharray:none;stroke-opacity:1" id="rect1729" width="323.731" height="323.731" x="0" y="-8.417"/><path id="path69" d="M 186.42130,235.12336 L 185.84530,235.51936 L 185.66530,235.70036 L 185.26930,236.09636 L 184.87330,236.49236 L 184.47730,236.88836 L 184.08130,237.28436 L 183.90130,237.46436 L 183.50530,237.86036 L 183.10930,238.25636 L 182.74930,238.65236 L 182.53330,238.86936 L 182.13730,239.26536 L 181.77730,239.62536 L 181.38130,240.02136 L 181.20130,240.23736 L 180.62530,240.63336 L 180.22930,241.02936 L 179.83330,241.42536 L 179.65330,241.60536 L 179.25730,242.00136 L 178.86130,242.39736 L 178.46530,242.79336 L 178.10530,243.18936 L 177.88930,243.37036 L 177.49330,243.76636 L 177.13330,244.16236 L 176.73730,244.55836 L 176.55730,244.73936 L 176.16130,245.13536 L 175.76530,245.53136 L 175.18930,245.92736 L 175.00930,246.14336 L 175.36930,246.14336 L 175.54930,246.14336 L 175.87330,246.10736 L 176.05330,246.10736 L 176.41330,246.10736 L 176.59330,246.10736 L 176.95330,246.10736 L 177.13330,246.10736 L 177.49330,246.10736 L 177.67330,246.10736 L 178.03330,246.10736 L 178.21330,246.10736 L 178.57330,246.10736 L 178.75330,246.10736 L 179.07730,246.10736 L 179.25730,246.10736 L 179.61730,246.10736 L 179.79730,246.10736 L 180.15730,246.10736 L 180.33730,246.10736 L 180.69730,246.10736 L 180.87730,246.10736 L 181.23730,246.10736 L 181.41730,246.10736 L 181.77730,246.10736 L 181.92130,246.10736 L 182.28130,246.10736 L 182.46130,246.10736 L 182.64130,246.10736 L 183.00130,246.10736 L 183.18130,246.10736 L 183.54130,246.10736 L 183.90130,246.10736 L 184.44130,245.92736 L 184.80130,245.92736 L 185.34130,245.92736 L 185.70130,245.89136 L 186.06130,245.89136 L 186.60130,245.71136 L 186.96130,245.71136 L 187.32130,245.71136 L 187.82530,245.71136 L 188.18530,245.71136 L 188.76130,245.49536 L 189.08530,245.49536 L 189.44530,245.49536 L 189.80530,245.49536 L 190.52530,245.31436 L 190.88530,245.31436 L 191.24530,245.31436 L 191.60530,245.31436 L 191.96530,245.31436 L 192.50530,245.09836 L 192.86530,245.09836 L 193.40530,245.09836 L 193.76530,245.09836 L 194.12530,245.09836 L 194.66530,244.91836 L 195.02530,244.91836 L 195.38530,244.91836 L 195.88930,244.91836 L 196.24930,244.91836 L 196.82530,244.70236 L 197.14930,244.70236 L 197.36530,244.52136 L 197.54530,244.30536 L 197.76130,244.12536 L 197.94130,243.90936 L 198.12130,243.72836 L 198.33730,243.51236 L 198.69730,243.33236 L 198.87730,243.15136 L 199.09330,242.93536 L 199.27330,242.75536 L 199.45330,242.53936 L 199.66930,242.35836 L 199.84930,242.14236 L 200.06530,241.96236 L 200.24530,241.74636 L 200.42530,241.56536 L 200.64130,241.34936 L 200.82130,241.16936 L 201.00130,240.95336 L 201.21730,240.77236 L 201.39730,240.59236 L 201.75730,240.37636 L 201.97330,240.19636 L 202.15330,239.97936 L 202.36930,239.79936 L 202.54930,239.58336 L 202.72930,239.40336 L 202.94530,239.18636 L 203.12530,239.00636 L 203.30530,238.79036 L 203.52130,238.61036 L 203.70130,238.42936 L 203.73730,238.21336 L 203.73730,238.03336 L 203.73730,237.81736 L 203.77330,237.63636 L 203.77330,237.42036 L 203.80930,237.24036 L 203.80930,237.02336 L 203.84530,236.84336 L 204.02530,236.62736 L 203.84530,236.62736 L 203.88130,236.44736 L 203.88130,236.26636 L 204.06130,236.05036 L 203.88130,236.05036 L 204.09730,235.87036 L 204.09730,235.65436 L 203.91730,235.65436 L 204.13330,235.47336 L 203.95330,235.47336 L 204.13330,235.25736 L 204.16930,235.07736 L 204.16930,234.86136 L 203.98930,234.86136 L 204.16930,234.68036 L 203.84530,234.68036 L 203.30530,234.68036 L 202.94530,234.68036 L 202.58530,234.68036 L 202.22530,234.68036 L 201.68530,234.68036 L 201.54130,234.50036 L 201.18130,234.50036 L 200.82130,234.50036 L 200.46130,234.50036 L 199.95730,234.50036 L 199.59730,234.50036 L 199.23730,234.50036 L 198.87730,234.50036 L 198.33730,234.50036 L 197.97730,234.50036 L 197.65330,234.50036 L 197.29330,234.50036 L 197.11330,234.32036 L 196.57330,234.32036 L 196.24930,234.32036 L 195.88930,234.32036 L 195.52930,234.32036 L 194.98930,234.32036 L 194.62930,234.32036 L 194.26930,234.32036 L 193.94530,234.32036 L 193.40530,234.32036 L 193.04530,234.32036 L 192.68530,234.32036 L 192.54130,234.10336 L 192.18130,234.10336 L 191.78530,234.32036 L 191.60530,234.32036 L 191.46130,234.32036 L 191.28130,234.32036 L 191.10130,234.32036 L 190.92130,234.32036 L 190.52530,234.50036 L 190.34530,234.50036 L 190.20130,234.50036 L 190.02130,234.50036 L 189.84130,234.50036 L 189.66130,234.50036 L 189.26530,234.71636 L 189.12130,234.71636 L 188.94130,234.71636 L 188.76130,234.71636 L 188.58130,234.71636 L 188.40130,234.71636 L 188.00530,234.89736 L 187.86130,234.93236 L 187.68130,234.93236 L 187.50130,234.93236 L 187.32130,234.93236 L 187.14130,234.93236 L 186.74530,235.11336 L 186.60130,235.11336 L 186.42130,235.11336 L 186.42130,235.12336 z" clip-rule="evenodd" style="fill:silver;fill-rule:evenodd"/><path id="path83" stroke-miterlimit="10" d="M 160.17830,1.8793565 L 149.12530,16.675357 L 147.18130,27.727357 L 141.92530,39.787357 L 141.70930,51.667357 L 148.15330,56.527357 L 165.64930,55.735357 L 181.77730,58.075357 L 188.76130,50.299357 L 187.42930,30.859357 L 184.87330,21.319357 L 184.87330,13.147357 L 177.31330,1.6993565 L 163.49030,0.90735652 L 160.17830,1.8793565 z" clip-rule="evenodd" style="fill-rule:evenodd;stroke:#000;stroke-width:.035999998;stroke-miterlimit:10"/><path id="path85" stroke-miterlimit="10" d="M 160.78930,3.6433565 L 154.95730,10.627357 L 170.11330,5.9473565 L 158.84530,11.419357 L 165.03730,23.659357 L 157.87330,12.175357 L 151.24930,15.883357 L 148.15330,27.547357 L 165.03730,26.971357 L 177.88930,16.063357 L 169.14130,29.671357 L 177.09730,46.195357 L 179.04130,20.743357 L 180.80530,31.831357 L 185.26930,26.971357 L 183.90130,20.347357 L 184.11730,13.543357 L 178.86130,7.5313565 L 171.48130,13.147357 L 173.82130,3.0313565 L 164.46130,2.2753565 L 160.78930,3.6433565 z" clip-rule="evenodd" style="fill:#616161;fill-rule:evenodd;stroke:#000;stroke-width:.035999998;stroke-miterlimit:10"/><path id="path87" stroke-miterlimit="10" d="M 148.15330,29.887357 L 166.40530,28.915357 L 175.15330,47.383357 L 180.01330,50.299357 L 181.20130,56.707357 L 167.19730,53.791357 L 149.30530,53.971357 L 144.26530,51.271357 L 143.86930,46.411357 L 157.87330,45.043357 L 159.99730,34.927357 L 151.06930,42.523357 L 146.78530,41.731357 L 144.62530,36.475357 L 146.56930,32.803357 L 148.15330,29.887357 z" clip-rule="evenodd" style="fill:#616161;fill-rule:evenodd;stroke:#000;stroke-width:.035999998;stroke-miterlimit:10"/><path id="path89" stroke-miterlimit="10" d="M 181.20130,33.559357 L 180.98530,39.211357 L 178.86130,47.383357 L 182.17330,50.299357 L 182.56930,54.763357 L 187.42930,49.507357 L 185.66530,29.491357 L 181.20130,33.559357 z" clip-rule="evenodd" style="fill:#616161;fill-rule:evenodd;stroke:#000;stroke-width:.035999998;stroke-miterlimit:10"/><path id="path91" stroke-miterlimit="10" d="M 148.72930,57.499357 L 147.36130,61.747357 L 162.51730,61.963357 L 182.17330,63.511357 L 182.17330,58.651357 L 165.64930,56.527357 L 148.72930,57.499357 z" clip-rule="evenodd" style="fill-rule:evenodd;stroke:#000;stroke-width:.035999998;stroke-miterlimit:10"/><path id="path93" stroke-miterlimit="10" d="M 149.88130,58.471357 L 165.03730,57.859357 L 180.80530,59.803357 L 181.38130,62.719357 L 164.28130,60.991357 L 148.90930,61.171357 L 149.88130,58.471357 z" clip-rule="evenodd" style="fill:#616161;fill-rule:evenodd;stroke:#000;stroke-width:.035999998;stroke-miterlimit:10"/><path id="path95" stroke-miterlimit="10" d="M 81.265304,61.171357 L 75.613304,71.107357 L 77.161304,84.715357 L 91.381304,92.887357 L 127.92130,93.463357 L 127.12930,102.60736 L 127.52530,120.67936 L 118.77730,122.62336 L 114.88930,135.25936 L 115.46530,153.40336 L 120.54130,158.04736 L 114.70930,158.44336 L 109.63330,162.51136 L 111.21730,186.23536 L 112.54930,197.50436 L 116.43730,202.76036 L 114.49330,204.48836 L 114.88930,218.27636 L 117.80530,221.98436 L 115.28530,225.08136 L 113.52130,261.22536 L 106.53730,280.08936 L 97.969304,292.14936 L 98.365304,304.38936 L 138.43330,306.94536 L 142.10530,303.63336 L 142.68130,275.84136 L 145.99330,245.49236 L 146.38930,224.90036 L 133.93330,221.19236 L 146.56930,218.85236 L 146.38930,207.58436 L 143.86930,203.30036 L 181.20130,205.64036 L 179.25730,210.10436 L 177.31330,300.50036 L 185.08930,307.12436 L 208.41730,307.69936 L 211.90930,303.05536 L 208.02130,259.67536 L 212.70130,247.43536 L 213.27730,211.47136 L 209.56930,207.40336 L 214.03330,204.84736 L 218.13730,199.23136 L 215.22130,164.99636 L 209.78530,162.22436 L 209.78530,156.96836 L 206.07730,156.21236 L 211.51330,150.56036 L 209.78530,127.44836 L 203.73730,125.46836 L 204.31330,123.16436 L 208.99330,122.37236 L 207.44530,102.35636 L 203.55730,98.468357 L 248.66530,97.676357 L 259.93330,90.836357 L 255.65030,72.764357 L 209.78530,65.959357 L 183.72130,64.375357 L 168.16930,63.403357 L 129.68530,62.251357 L 87.493304,61.855357 L 81.265304,61.171357 z" clip-rule="evenodd" style="fill-rule:evenodd;stroke:#000;stroke-width:.035999998;stroke-miterlimit:10"/><path id="path97" stroke-miterlimit="10" d="M 82.237304,63.223357 L 77.557304,70.999357 L 94.873304,71.791357 L 119.96530,72.151357 L 128.89330,70.027357 L 139.00930,73.123357 L 158.44930,72.943357 L 174.39730,64.987357 L 133.35730,63.799357 L 116.65330,65.959357 L 111.00130,64.015357 L 82.237304,63.223357 z" clip-rule="evenodd" style="fill:#616161;fill-rule:evenodd;stroke:#000;stroke-width:.035999998;stroke-miterlimit:10"/><path id="path99" stroke-miterlimit="10" d="M 177.09730,65.167357 L 161.76130,72.943357 L 188.00530,74.311357 L 201.39730,78.775357 L 222.02530,79.927357 L 228.64930,83.635357 L 256.62130,81.295357 L 254.89330,73.735357 L 229.80130,70.207357 L 219.86530,69.451357 L 213.45730,67.687357 L 177.09730,65.167357 z" clip-rule="evenodd" style="fill:#616161;fill-rule:evenodd;stroke:#000;stroke-width:.035999998;stroke-miterlimit:10"/><path id="path101" stroke-miterlimit="10" d="M 77.377304,75.679357 L 79.105304,84.787357 L 91.741304,86.155357 L 93.685304,87.703357 L 134.32930,89.467357 L 156.50530,89.863357 L 161.76130,87.127357 L 179.83330,87.703357 L 183.72130,91.411357 L 197.90530,92.203357 L 202.98130,84.427357 L 186.81730,78.199357 L 161.54530,77.011357 L 156.68530,78.775357 L 153.58930,76.435357 L 134.14930,77.803357 L 128.10130,75.283357 L 113.16130,77.983357 L 93.109304,76.255357 L 88.249304,74.311357 L 83.389304,76.831357 L 77.377304,75.679357 z" clip-rule="evenodd" style="fill:#616161;fill-rule:evenodd;stroke:#000;stroke-width:.035999998;stroke-miterlimit:10"/><path id="path103" stroke-miterlimit="10" d="M 85.909304,87.343357 L 92.929304,91.591357 L 101.67730,91.231357 L 93.325304,89.287357 L 90.193304,86.947357 L 85.909304,87.343357 z" clip-rule="evenodd" style="fill:#616161;fill-rule:evenodd;stroke:#000;stroke-width:.035999998;stroke-miterlimit:10"/><path id="path105" stroke-miterlimit="10" d="M 160.39330,90.259357 L 164.46130,88.495357 L 176.52130,88.891357 L 182.74930,93.355357 L 173.82130,92.779357 L 168.74530,92.203357 L 165.03730,92.563357 L 160.39330,90.259357 z" clip-rule="evenodd" style="fill:#616161;fill-rule:evenodd;stroke:#000;stroke-width:.035999998;stroke-miterlimit:10"/><path id="path107" stroke-miterlimit="10" d="M 205.10530,84.787357 L 200.42530,91.807357 L 225.51730,93.175357 L 237.57730,93.535357 L 245.53330,91.591357 L 249.06130,93.535357 L 257.98930,90.259357 L 255.86530,82.663357 L 227.28130,85.579357 L 220.65730,81.511357 L 209.96530,85.003357 L 205.10530,84.787357 z" clip-rule="evenodd" style="fill:#616161;fill-rule:evenodd;stroke:#000;stroke-width:.035999998;stroke-miterlimit:10"/><path id="path109" stroke-miterlimit="10" d="M 128.10130,92.383357 L 132.38530,90.619357 L 101.49730,89.071357 L 103.80130,91.231357 L 102.82930,91.807357 L 128.10130,92.383357 z" clip-rule="evenodd" style="fill:#616161;fill-rule:evenodd;stroke:#000;stroke-width:.035999998;stroke-miterlimit:10"/><path id="path111" stroke-miterlimit="10" d="M 135.69830,92.779357 L 132.38630,95.299357 L 132.60230,105.59536 L 132.60230,118.62736 L 147.93830,120.39136 L 152.61830,122.91136 L 158.45030,121.14736 L 145.41830,113.98336 L 149.12630,110.27536 L 145.02230,106.38736 L 161.15030,93.535357 L 142.68230,91.807357 L 139.19030,91.987357 L 135.69830,92.779357 z" clip-rule="evenodd" style="fill:#616161;fill-rule:evenodd;stroke:#000;stroke-width:.035999998;stroke-miterlimit:10"/><path id="path113" stroke-miterlimit="10" d="M 163.49030,94.147357 L 157.26230,99.007357 L 156.68630,104.62336 L 154.16630,107.53936 L 156.11030,111.64336 L 166.22630,112.03936 L 174.79430,108.15136 L 187.61030,112.79536 L 202.76630,111.42736 L 200.82230,104.04736 L 201.79430,98.215357 L 184.29830,96.091357 L 163.49030,94.147357 z" clip-rule="evenodd" style="fill:#616161;fill-rule:evenodd;stroke:#000;stroke-width:.035999998;stroke-miterlimit:10"/><path id="path115" stroke-miterlimit="10" d="M 201.79330,113.37136 L 202.58530,117.65536 L 198.30130,121.93936 L 185.66530,122.73136 L 176.12530,119.59936 L 161.14930,120.78736 L 156.10930,116.89936 L 164.28130,114.16336 L 174.79330,111.82336 L 182.74930,113.98336 L 176.52130,118.05136 L 188.58130,120.96736 L 186.24130,114.95536 L 201.79330,113.37136 z" clip-rule="evenodd" style="fill:#616161;fill-rule:evenodd;stroke:#000;stroke-width:.035999998;stroke-miterlimit:10"/><path id="path117" stroke-miterlimit="10" d="M 163.30930,122.91136 L 175.54930,122.11936 L 185.84530,124.67536 L 185.08930,127.37536 L 172.45330,128.56336 L 162.73330,126.00736 L 163.30930,122.91136 z" clip-rule="evenodd" style="fill:#616161;fill-rule:evenodd;stroke:#000;stroke-width:.035999998;stroke-miterlimit:10"/><path id="path119" stroke-miterlimit="10" d="M 121.29730,126.61936 L 121.29730,149.55136 L 127.34530,153.61936 L 144.44530,154.59136 L 166.00930,153.43936 L 176.91730,154.98636 L 196.93330,155.77836 L 208.20130,150.70236 L 188.00530,148.00236 L 156.28930,149.73036 L 142.89730,146.41836 L 127.92130,146.63436 L 128.89330,143.14236 L 142.89730,143.32236 L 153.98530,146.81436 L 178.86130,145.08636 L 176.34130,140.80236 L 167.77330,141.37836 L 170.50930,139.03836 L 182.74930,138.85836 L 180.22930,141.55836 L 181.59730,145.66236 L 189.37330,145.08636 L 209.38930,148.18236 L 207.62530,129.89436 L 188.97730,125.64636 L 185.26930,130.50636 L 172.84930,131.26236 L 160.57330,126.97836 L 146.78530,125.82636 L 142.32130,122.91036 L 124.03330,123.70236 L 121.29730,126.61936 z" clip-rule="evenodd" style="fill:#616161;fill-rule:evenodd;stroke:#000;stroke-width:.035999998;stroke-miterlimit:10"/><path id="path121" stroke-miterlimit="10" d="M 119.56930,128.34736 L 116.25730,135.54736 L 117.22930,153.61936 L 120.32530,149.73136 L 119.56930,128.34736 z" clip-rule="evenodd" style="fill:#616161;fill-rule:evenodd;stroke:#000;stroke-width:.035999998;stroke-miterlimit:10"/><path id="path123" stroke-miterlimit="10" d="M 121.11730,152.07136 L 119.35330,154.59136 L 121.69330,157.72336 L 125.58130,153.83536 L 121.11730,152.07136 z" clip-rule="evenodd" style="fill:#616161;fill-rule:evenodd;stroke:#000;stroke-width:.035999998;stroke-miterlimit:10"/><path id="path125" stroke-miterlimit="10" d="M 130.44130,95.875357 L 128.71330,97.639357 L 129.07330,118.84336 L 130.83730,118.23136 L 130.44130,95.875357 z" clip-rule="evenodd" style="fill:#616161;fill-rule:evenodd;stroke:#000;stroke-width:.035999998;stroke-miterlimit:10"/><path id="path127" stroke-miterlimit="10" d="M 161.94130,156.21136 L 177.88930,157.36236 L 180.98530,159.52236 L 206.07730,157.93836 L 207.22930,164.16736 L 185.66530,164.38336 L 178.28530,162.79936 L 168.96130,161.46736 L 157.08130,157.93936 L 156.68530,156.60736 L 161.94130,156.21136 z" clip-rule="evenodd" style="fill:#616161;fill-rule:evenodd;stroke:#000;stroke-width:.035999998;stroke-miterlimit:10"/><path id="path129" stroke-miterlimit="10" d="M 121.90930,159.52336 L 152.40130,159.70436 L 168.34930,164.56336 L 193.62130,166.32836 L 212.70130,166.50836 L 213.45730,178.96436 L 209.56930,185.37236 L 215.00530,190.41236 L 215.22130,200.13236 L 209.17330,204.23636 L 173.02930,202.47236 L 125.79730,199.16036 L 125.79730,193.93936 L 128.10130,189.04336 L 127.34530,183.82236 L 124.21330,180.69036 L 121.90930,159.52336 z" clip-rule="evenodd" style="fill:#616161;fill-rule:evenodd;stroke:#000;stroke-width:.035999998;stroke-miterlimit:10"/><path id="path131" stroke-miterlimit="10" d="M 134.72530,166.32736 L 153.37330,166.90236 L 155.71330,171.94236 L 146.96530,169.60236 L 135.30130,171.76236 L 130.04530,169.60236 L 134.72530,166.32736 z" clip-rule="evenodd" style="fill-rule:evenodd;stroke:#000;stroke-width:.035999998;stroke-miterlimit:10"/><path id="path133" stroke-miterlimit="10" d="M 169.93330,185.37136 L 190.92130,184.97536 L 207.84130,189.04336 L 186.06130,190.23136 L 156.68530,189.04336 L 169.93330,185.37136 z" clip-rule="evenodd" style="fill-rule:evenodd;stroke:#000;stroke-width:.035999998;stroke-miterlimit:10"/><path id="path135" stroke-miterlimit="10" d="M 120.14530,160.85536 L 116.25730,160.27936 L 111.79330,163.19536 L 114.31330,195.48736 L 117.62530,201.10336 L 124.82530,199.16036 L 124.60930,192.96836 L 125.79730,189.26036 L 125.58130,184.58036 L 123.63730,181.88036 L 120.14530,160.85536 z" clip-rule="evenodd" style="fill:#616161;fill-rule:evenodd;stroke:#000;stroke-width:.035999998;stroke-miterlimit:10"/><path id="path137" stroke-miterlimit="10" d="M 123.06130,202.50736 L 122.66530,219.42736 L 131.23330,219.24736 L 143.65330,217.30336 L 144.04930,207.76336 L 140.73730,201.93136 L 127.92130,201.17536 L 123.06130,202.50736 z" clip-rule="evenodd" style="fill:#616161;fill-rule:evenodd;stroke:#000;stroke-width:.035999998;stroke-miterlimit:10"/><path id="path139" stroke-miterlimit="10" d="M 116.07730,204.84736 L 118.20130,202.72336 L 121.90930,202.32736 L 121.51330,219.42736 L 118.20130,220.03936 L 115.68130,217.48236 L 116.07730,204.84736 z" clip-rule="evenodd" style="fill:#616161;fill-rule:evenodd;stroke:#000;stroke-width:.035999998;stroke-miterlimit:10"/><path id="path141" stroke-miterlimit="10" d="M 119.56930,222.95536 L 116.65330,225.47536 L 115.28530,260.46736 L 111.79330,270.36736 L 107.50930,282.64236 L 99.913304,292.54236 L 99.553304,303.05436 L 104.98930,303.05436 L 104.98930,293.51436 L 112.18930,283.39836 L 116.43730,270.00636 L 119.56930,260.46636 L 119.56930,222.95536 z" clip-rule="evenodd" style="fill:#616161;fill-rule:evenodd;stroke:#000;stroke-width:.035999998;stroke-miterlimit:10"/><path id="path143" stroke-miterlimit="10" d="M 122.26930,222.74036 L 128.71330,222.16436 L 143.65330,226.44736 L 133.93330,235.37636 L 144.04930,229.76036 L 144.62530,238.86836 L 142.32130,251.72036 L 134.32930,260.86436 L 142.32130,258.12936 L 140.55730,269.79336 L 140.37730,285.56136 L 138.61330,294.88536 L 133.35730,299.52936 L 133.17730,305.00236 L 106.71730,302.08636 L 108.08530,292.36536 L 116.25730,282.42936 L 124.03330,258.92136 L 122.26930,222.74036 z" clip-rule="evenodd" style="fill:#616161;fill-rule:evenodd;stroke:#000;stroke-width:.035999998;stroke-miterlimit:10"/><path id="path147" stroke-miterlimit="10" d="M 181.59730,209.92336 L 184.69330,212.04736 L 184.29730,241.78336 L 185.84530,255.39036 L 182.92930,265.90236 L 184.29730,278.35836 L 182.92930,288.47436 L 184.29730,303.81036 L 178.46530,299.92236 L 179.83330,267.27036 L 180.98530,237.31836 L 180.62530,222.95536 L 181.59730,209.92336 z" clip-rule="evenodd" style="fill:#616161;fill-rule:evenodd;stroke:#000;stroke-width:.035999998;stroke-miterlimit:10"/><path id="path149" stroke-miterlimit="10" d="M 187.21330,212.04736 L 200.64130,211.29136 L 206.25730,212.26336 L 210.93730,216.15136 L 210.36130,246.28436 L 205.50130,256.76036 L 205.68130,274.07636 L 205.10530,281.67236 L 208.59730,290.77936 L 208.41730,296.25236 L 203.16130,300.89636 L 203.55730,306.33336 L 187.03330,304.02836 L 184.29730,289.23236 L 188.58130,279.51236 L 184.87330,266.87636 L 190.70530,252.11636 L 187.78930,244.51936 L 190.92130,238.68736 L 198.48130,238.29136 L 201.03730,235.37536 L 200.64130,226.44636 L 194.98930,224.10636 L 192.07330,228.17436 L 193.26130,232.06236 L 188.00530,236.74336 L 186.45730,229.75936 L 187.42930,221.58736 L 187.21330,212.04736 z" clip-rule="evenodd" style="fill:#616161;fill-rule:evenodd;stroke:#000;stroke-width:.035999998;stroke-miterlimit:10"/></svg>