<svg xmlns="http://www.w3.org/2000/svg" xmlns:cc="http://web.resource.org/cc/" xmlns:svg="http://www.w3.org/2000/svg" id="svg939" width="793.707" height="793.701"><metadata id="metadata3"/><defs id="defs941"><linearGradient id="linearGradient1574"><stop id="stop1575" offset="0" style="stop-color:#000;stop-opacity:1"/><stop id="stop1576" offset="1" style="stop-color:#fff;stop-opacity:1"/></linearGradient></defs><rect style="fill:#fbf900;fill-opacity:1;stroke:none;stroke-width:.625;stroke-miterlimit:4;stroke-dasharray:none;stroke-opacity:1" id="rect2041" width="744.1" height="744.1" x="0" y="-.005"/><path id="path1597" d="M 635.00000 394.09448 A 277.50000 277.50000 0 1 1 80.000000,394.09448 A 277.50000 277.50000 0 1 1 635.00000 394.09448 z" style="fill:#fbf900;fill-opacity:.75;fill-rule:evenodd;stroke:#000;stroke-width:19.586746;stroke-linecap:butt;stroke-linejoin:miter;stroke-miterlimit:4;stroke-opacity:1" transform="matrix(1.097596,-5.470275e-2,5.393768e-2,1.082246,-41.59105,-34.90648)"/><path id="path1592" d="M 755.00000 397.84448 A 37.500000 38.750000 0 1 1 680.00000,397.84448 A 37.500000 38.750000 0 1 1 755.00000 397.84448 z" style="fill:#000;fill-opacity:1;fill-rule:evenodd;stroke:#000;stroke-width:1pt;stroke-linecap:butt;stroke-linejoin:miter;stroke-opacity:1" transform="matrix(1.319252,-6.574974e-2,6.574974e-2,1.319252,-599.3970,-104.2738)"/><path id="path1593" d="M 284.03267,380.71130 C 284.03267,380.71130 282.75596,355.09432 298.55723,328.62620 C 313.59737,303.43301 331.01090,292.76794 331.01090,292.76794 L 235.97468,103.47317 C 235.97468,103.47317 174.71067,122.61177 115.98486,215.02914 C 55.129612,310.79761 67.002252,377.26081 67.002252,377.26081 L 284.03267,380.71130 z" style="fill:#000;fill-opacity:1;fill-rule:evenodd;stroke:#000;stroke-width:1.1399454pt;stroke-linecap:butt;stroke-linejoin:miter;stroke-opacity:1"/><path id="path1595" d="M 406.54971,293.52100 C 406.54971,293.52100 430.26212,303.29759 447.45679,328.88242 C 463.82325,353.23489 466.03789,373.53439 466.03789,373.53439 L 677.78685,368.36054 C 677.78685,368.36054 682.24942,288.66864 628.09914,212.24064 C 572.56303,133.85667 494.76695,94.890421 494.76695,94.890421 L 406.54971,293.52100 z" style="fill:#000;fill-opacity:1;fill-rule:evenodd;stroke:#000;stroke-width:1.1399454pt;stroke-linecap:butt;stroke-linejoin:miter;stroke-opacity:1"/><path id="path1596" d="M 429.09717,439.67582 C 429.09717,439.67582 407.82915,454.01217 377.00359,454.16985 C 347.66281,454.31994 329.53110,444.92763 329.53110,444.92763 L 216.62726,624.14011 C 216.62726,624.14011 280.52593,671.96972 374.15126,669.17875 C 470.17268,666.31634 542.24761,617.73203 542.24761,617.73203 L 429.09717,439.67582 z" style="fill:#000;fill-opacity:1;fill-rule:evenodd;stroke:#000;stroke-width:1.1399454pt;stroke-linecap:butt;stroke-linejoin:miter;stroke-opacity:1"/><path id="path1600" d="M 635.00000 394.09448 A 277.50000 277.50000 0 1 1 80.000000,394.09448 A 277.50000 277.50000 0 1 1 635.00000 394.09448 z" style="fill:none;fill-opacity:1;fill-rule:evenodd;stroke:#ff0;stroke-width:13.812904;stroke-linecap:butt;stroke-linejoin:miter;stroke-miterlimit:4;stroke-opacity:1" transform="matrix(1.037597,-5.171245e-2,5.098920e-2,1.023086,-19.13454,-12.73731)"/></svg>