<svg xmlns="http://www.w3.org/2000/svg" xmlns:cc="http://web.resource.org/cc/" xmlns:svg="http://www.w3.org/2000/svg" id="svg1392" width="793.707" height="793.707" x="0" y="0" version="1.0"><metadata id="metadata3"/><rect style="fill:#fff;fill-opacity:1;stroke:none;stroke-width:.625;stroke-miterlimit:4;stroke-dasharray:none;stroke-opacity:1" id="rect1326" width="759.531" height="756.481" x="-3.05" y="-3.23"/><g id="g1318" transform="translate(22.12495,-130.3872)"><path id="path8251" d="M 600.00023,502.36210 C 600.00023,640.43334 488.07138,752.36219 350.00014,752.36219 C 211.92890,752.36219 100.00005,640.43334 100.00005,502.36210 C 100.00005,364.29085 211.92890,252.36200 350.00014,252.36200 C 488.07138,252.36200 600.00023,364.29085 600.00023,502.36210 L 600.00023,502.36210 z" style="fill:#000;fill-opacity:1;stroke:#000;stroke-width:3;stroke-miterlimit:4;stroke-opacity:1"/><path id="path3691" d="M 349.99986,507.36220 C 349.99986,576.39780 294.03548,632.36221 224.99991,632.36221 C 155.96434,632.36221 99.999965,576.39780 99.999965,507.36220 C 99.999965,438.32660 155.96434,382.36220 224.99991,382.36220 C 294.03548,382.36220 349.99986,438.32660 349.99986,507.36220 L 349.99986,507.36220 z" style="fill:#fffbff;fill-opacity:1"/><path id="path5973" d="M 599.98432,502.44427 C 599.93904,639.94989 488.85469,751.60650 351.35112,752.35831 C 213.84753,753.11013 101.54888,642.67491 99.999985,505.17800 L 349.98423,502.36208 L 599.98432,502.44427 z" style="fill:#fff;fill-opacity:1"/><path id="path4453" d="M 260.00003,502.36226 C 260.00003,524.45364 242.09141,542.36223 220.00000,542.36223 C 197.90859,542.36223 179.99996,524.45364 179.99996,502.36226 C 179.99996,480.27089 197.90859,462.36230 220.00000,462.36230 C 242.09141,462.36230 260.00003,480.27089 260.00003,502.36226 L 260.00003,502.36226 z" style="fill:#000;fill-opacity:1"/><path id="path7491" d="M 599.99986,507.36220 C 599.99986,576.39780 544.03548,632.36221 474.99991,632.36221 C 405.96434,632.36221 349.99996,576.39780 349.99996,507.36220 C 349.99996,438.32660 405.96434,382.36220 474.99991,382.36220 C 544.03548,382.36220 599.99986,438.32660 599.99986,507.36220 L 599.99986,507.36220 z" style="fill:#000;fill-opacity:1"/><path id="path8253" d="M 519.99983,502.36226 C 519.99983,524.45364 502.09121,542.36223 479.99980,542.36223 C 457.90839,542.36223 439.99976,524.45364 439.99976,502.36226 C 439.99976,480.27089 457.90839,462.36230 479.99980,462.36230 C 502.09121,462.36230 519.99983,480.27089 519.99983,502.36226 L 519.99983,502.36226 z" style="fill:#fff;fill-opacity:1"/></g></svg>