<svg xmlns="http://www.w3.org/2000/svg" xmlns:cc="http://web.resource.org/cc/" xmlns:svg="http://www.w3.org/2000/svg" id="svg1923" width="48" height="48" version="1.0"><metadata id="metadata1928"/><rect style="opacity:1;fill:#000;fill-opacity:1;stroke:none;stroke-width:.96064842;stroke-linecap:round;stroke-linejoin:round;stroke-miterlimit:4;stroke-dasharray:none;stroke-opacity:1" id="rect2897" width="48" height="48" x="0" y="0"/><path style="fill:#0f0;fill-opacity:1;fill-rule:evenodd;stroke:none;stroke-width:1px;stroke-linecap:butt;stroke-linejoin:miter;stroke-opacity:1;opacity:.6" id="path2894" d="M 22.273753,12.864012 L 6.2792729,33.523562 L 10.011313,34.323282 L 15.609383,27.792202 L 20.541013,29.658222 L 22.273753,27.925492 L 25.072783,28.591922 L 27.471953,26.459322 L 30.537573,26.725902 L 34.003043,21.261122 L 39.734393,23.527002 L 42.533433,20.594682 L 22.273753,12.864012 z"/><g id="g2768" transform="translate(-0.513369,-0.427807)"><g id="g2762" transform="translate(2e-6,0)"><path style="opacity:1;fill:none;fill-opacity:1;stroke:#0f0;stroke-width:.80000001;stroke-linecap:round;stroke-linejoin:round;stroke-miterlimit:4;stroke-dasharray:none;stroke-opacity:1" id="path1932" d="M 50.164457 24.190981 A 25.591513 25.591513 0 1 1 -1.018568,24.190981 A 25.591513 25.591513 0 1 1 50.164457 24.190981 z" transform="translate(8.487575e-2,0.326263)"/><path style="opacity:1;fill:none;fill-opacity:1;stroke:#0f0;stroke-width:1.07554054;stroke-linecap:round;stroke-linejoin:round;stroke-miterlimit:4;stroke-dasharray:none;stroke-opacity:1" id="path2821" d="M 50.164457 24.190981 A 25.591513 25.591513 0 1 1 -1.018568,24.190981 A 25.591513 25.591513 0 1 1 50.164457 24.190981 z" transform="matrix(0.743812,0,0,0.743812,6.274069,6.627148)"/><path style="opacity:1;fill:none;fill-opacity:1;stroke:#0f0;stroke-width:1.58778679;stroke-linecap:round;stroke-linejoin:round;stroke-miterlimit:4;stroke-dasharray:none;stroke-opacity:1" id="path2823" d="M 50.164457 24.190981 A 25.591513 25.591513 0 1 1 -1.018568,24.190981 A 25.591513 25.591513 0 1 1 50.164457 24.190981 z" transform="matrix(0.503846,0,0,0.503846,12.38294,12.5356)"/><path style="opacity:1;fill:none;fill-opacity:1;stroke:#0f0;stroke-width:3.08183026;stroke-linecap:round;stroke-linejoin:round;stroke-miterlimit:4;stroke-dasharray:none;stroke-opacity:1" id="path2825" d="M 50.164457 24.190981 A 25.591513 25.591513 0 1 1 -1.018568,24.190981 A 25.591513 25.591513 0 1 1 50.164457 24.190981 z" transform="matrix(0.259586,0,0,0.259586,18.06683,18.54794)"/></g><path id="path2827" d="M -0.89124668,24.572944 L 50.291777,24.572944" style="fill:none;fill-rule:evenodd;stroke:#0f0;stroke-width:.80000001;stroke-linecap:butt;stroke-linejoin:miter;stroke-miterlimit:4;stroke-dasharray:none;stroke-opacity:1"/><path id="path2829" d="M 24.572944,-1.2732095 L 24.572944,50.164456" style="fill:none;fill-rule:evenodd;stroke:#0f0;stroke-width:.69999999;stroke-linecap:butt;stroke-linejoin:miter;stroke-miterlimit:4;stroke-dasharray:none;stroke-opacity:1"/></g></svg>