<svg xmlns="http://www.w3.org/2000/svg" xmlns:cc="http://web.resource.org/cc/" xmlns:svg="http://www.w3.org/2000/svg" id="svg2892" width="48" height="48" version="1.0"><metadata id="metadata2897"/><rect style="opacity:1;fill:#000;fill-opacity:1;stroke:none;stroke-width:5.26900005;stroke-linecap:round;stroke-linejoin:round;stroke-miterlimit:4;stroke-dasharray:none;stroke-opacity:1" id="rect2919" width="48" height="48" x="0" y="0"/><path style="opacity:1;fill:#fff;fill-opacity:1;stroke:none;stroke-width:5.26900005;stroke-linecap:round;stroke-linejoin:round;stroke-miterlimit:4;stroke-dasharray:none;stroke-opacity:1" id="path2901" d="M 27.119363 14.450929 A 6.5570292 6.5570292 0 1 1 14.005305,14.450929 A 6.5570292 6.5570292 0 1 1 27.119363 14.450929 z" transform="matrix(0.941748,0,0,0.941748,1.1978,1.223759)"/><path style="opacity:1;fill:#fff;fill-opacity:1;stroke:none;stroke-width:5.26900005;stroke-linecap:round;stroke-linejoin:round;stroke-miterlimit:4;stroke-dasharray:none;stroke-opacity:1" id="path2905" d="M 27.119363 14.450929 A 6.5570292 6.5570292 0 1 1 14.005305,14.450929 A 6.5570292 6.5570292 0 1 1 27.119363 14.450929 z" transform="matrix(0.936894,0,0,0.936894,20.89444,1.262079)"/><path style="opacity:1;fill:#fff;fill-opacity:1;stroke:none;stroke-width:5.26900005;stroke-linecap:round;stroke-linejoin:round;stroke-miterlimit:4;stroke-dasharray:none;stroke-opacity:1" id="path2907" d="M 27.119363 14.450929 A 6.5570292 6.5570292 0 1 1 14.005305,14.450929 A 6.5570292 6.5570292 0 1 1 27.119363 14.450929 z" transform="matrix(0.932038,0,0,0.932038,-18.17816,1.300408)"/><path style="fill:#fff;fill-rule:evenodd;stroke:none;stroke-width:1px;stroke-linecap:butt;stroke-linejoin:miter;stroke-opacity:1;fill-opacity:1" id="path2911" d="M 0,16.769231 L 11.013262,25.273209 L 20.880637,16.769231 L 30.938992,25.082228 L 40.233421,16.896552 L 49.018568,25.082228 L 48.445623,42.65252 L 40.233422,37.013262 L 30.68435,43.671088 L 20.753316,37.267904 L 10.69496,43.798408 L 1.0185676,37.013262 L -0.12732095,38.286472 L 0,16.769231 z"/><path style="fill:#000;fill-rule:evenodd;stroke:none;stroke-width:1px;stroke-linecap:butt;stroke-linejoin:miter;stroke-opacity:1" id="path2913" d="M 4.3289124,24.827586 L 11.076923,30.302387 L 17.31565,25.209549 L 17.31565,33.230769 L 10.822281,38.068966 L 4.3289125,33.35809 L 4.3289124,24.827586 z"/><path style="fill:#000;fill-rule:evenodd;stroke:none;stroke-width:1px;stroke-linecap:butt;stroke-linejoin:miter;stroke-opacity:1" id="path2915" d="M 24.190981,25.082227 L 30.811671,30.557028 L 37.050398,25.46419 L 37.050398,33.230768 L 30.557029,38.323607 L 24.190982,33.230768 L 24.190981,25.082227 z"/><path style="fill:#000;fill-rule:evenodd;stroke:none;stroke-width:1px;stroke-linecap:butt;stroke-linejoin:miter;stroke-opacity:1" id="path2917" d="M 43.416445,25.209548 L 49.782493,30.81167 L 49.782493,38.068965 L 43.416445,33.230768 L 43.416445,25.209548 z"/></svg>